<?xml version="1.0" encoding="UTF-8"?>
<svg width="321px" height="59px" viewBox="0 0 321 59" version="1.1" xmlns="http://www.w3.org/2000/svg" xmlns:xlink="http://www.w3.org/1999/xlink">
    <!-- Generator: Sketch 60 (88103) - https://sketch.com -->
    <title>ddlogo</title>
    <desc>Created with Sketch.</desc>
    <defs>
        <polygon id="path-1" points="0 0.0591949819 51.25583 0.0591949819 51.25583 55.6502769 0 55.6502769"></polygon>
        <polygon id="path-3" points="0.162742258 0.469816099 52.6167239 0.469816099 52.6167239 58.5360827 0.162742258 58.5360827"></polygon>
        <polygon id="path-5" points="0.49140447 0.469816099 47.2550353 0.469816099 47.2550353 58.5360318 0.49140447 58.5360318"></polygon>
        <polygon id="path-7" points="0.0606404413 0.469816099 52.5141134 0.469816099 52.5141134 58.5360827 0.0606404413 58.5360827"></polygon>
        <polygon id="path-9" points="0.12544572 0.48008944 17.6444222 0.48008944 17.6444222 24.7663395 0.12544572 24.7663395"></polygon>
    </defs>
    <g id="Page-1" stroke="none" stroke-width="1" fill="none" fill-rule="evenodd">
        <g id="module10" transform="translate(-228.000000, -352.000000)">
            <g id="Icons/Logos/dnkn_long_horizontal" transform="translate(227.733434, 351.588460)">
                <g id="Group-22">
                    <g id="Group-3" transform="translate(0.696155, 1.393717)">
                        <mask id="mask-2" fill="white">
                            <use xlink:href="#path-1"></use>
                        </mask>
                        <g id="Clip-2"></g>
                        <path d="M22.8848169,37.861374 C28.7630807,37.861374 33.0733741,34.0491766 33.0733741,27.8544825 C33.0733741,21.6602953 28.7630807,17.8486047 22.8848169,17.8486047 L18.1824059,17.8486047 L18.1824059,37.861374 L22.8848169,37.861374 Z M-5.00150076e-05,45.3261247 L-5.00150076e-05,10.3833472 C-5.00150076e-05,4.42685212 4.31024334,0.0591949819 10.1885072,0.0591949819 L22.3361522,0.0591949819 C38.4029733,0.0591949819 51.25583,10.7801765 51.25583,27.8544825 C51.25583,44.9292953 38.4029733,55.6502769 22.3361522,55.6502769 L10.1885072,55.6502769 C4.31024334,55.6502769 -5.00150076e-05,51.2826198 -5.00150076e-05,45.3261247 L-5.00150076e-05,45.3261247 Z" id="Fill-1" fill="#FF6E0C" mask="url(#mask-2)"></path>
                    </g>
                    <path d="M56.3885417,34.9886053 L56.3885417,10.6556418 C56.3885417,5.31838901 60.2900577,1.39371747 65.6250428,1.39371747 C70.9600279,1.39371747 74.8615438,5.31838901 74.8615438,10.6556418 L74.8615438,34.3609584 C74.8615438,37.9710551 77.5689256,40.4831455 80.753961,40.4831455 C83.9389964,40.4831455 86.64587,37.9710551 86.64587,34.3609584 L86.64587,10.6556418 C86.64587,5.31838901 90.5478941,1.39371747 95.882371,1.39371747 C101.217864,1.39371747 105.11938,5.31838901 105.11938,10.6556418 L105.11938,34.9886053 C105.11938,48.5679187 95.4052255,58.5361336 80.753961,58.5361336 C66.1026965,58.5361336 56.3885417,48.5679187 56.3885417,34.9886053" id="Fill-4" fill="#FF6E0C"></path>
                    <g id="Group-8" transform="translate(110.688619, 0.000000)">
                        <mask id="mask-4" fill="white">
                            <use xlink:href="#path-3"></use>
                        </mask>
                        <g id="Clip-7"></g>
                        <path d="M0.162742258,48.0876374 L0.162742258,9.16365357 C0.162742258,4.05930271 4.06875994,0.469765198 9.09092803,0.469765198 C12.9969457,0.469765198 15.5482193,2.22483119 17.7006497,5.09615579 L28.3829315,19.4532878 C30.2957508,22.0054633 32.3683108,24.8767879 34.1224068,27.9074326 L34.1224068,10.839314 C34.1224068,4.77700661 37.3111173,0.469765198 43.3690567,0.469765198 C49.4275048,0.469765198 52.6167239,4.77700661 52.6167239,10.839314 L52.6167239,49.8421944 C52.6167239,54.9465452 48.7107063,58.5360827 43.7684086,58.5360827 C39.7820118,58.5360827 37.3111173,56.7815258 35.0788165,53.9096921 L23.7590979,39.5530691 C22.0848722,37.3994484 20.1715442,34.5276148 18.6570594,32.1352684 L18.6570594,48.0876374 C18.6570594,54.2293503 15.4683489,58.5360827 9.40990082,58.5360827 C3.35145271,58.5360827 0.162742258,54.2293503 0.162742258,48.0876374" id="Fill-6" fill="#FF6E0C" mask="url(#mask-4)"></path>
                    </g>
                    <g id="Group-11" transform="translate(167.773315, 0.000000)">
                        <mask id="mask-6" fill="white">
                            <use xlink:href="#path-5"></use>
                        </mask>
                        <g id="Clip-10"></g>
                        <path d="M30.3223129,54.3886195 L22.9838229,45.4549875 C21.2297522,43.3018758 20.5120391,42.4238338 18.9961881,40.3501276 L18.9961881,49.1239306 C18.9961881,54.6278541 15.1678755,58.5360318 9.74379629,58.5360318 C4.31971711,58.5360318 0.49140447,54.6278541 0.49140447,49.1239306 L0.49140447,9.88130657 C0.49140447,4.37789198 4.31971711,0.469714297 9.74379629,0.469714297 C15.1678755,0.469714297 18.9961881,4.37789198 18.9961881,9.88130657 L18.9961881,18.3364693 C20.4316145,16.2622541 21.2297522,15.2254011 22.9838229,12.9923748 L29.365362,4.85687026 C37.820125,-5.91123328 52.8152403,6.69083278 43.7221707,17.2996162 L33.513337,29.2638929 L44.5203084,41.7066389 C53.2143092,51.5167859 39.1766539,65.2356196 30.3223129,54.3886195" id="Fill-9" fill="#FF6E0C" mask="url(#mask-6)"></path>
                    </g>
                    <path d="M220.681083,49.2742094 L220.681083,10.6556418 C220.681083,5.2397453 224.426156,1.39371747 229.731096,1.39371747 C235.036533,1.39371747 238.781109,5.2397453 238.781109,10.6556418 L238.781109,49.2742094 C238.781109,54.6901058 235.036533,58.5361336 229.731096,58.5361336 C224.426156,58.5361336 220.681083,54.6901058 220.681083,49.2742094" id="Fill-12" fill="#FF6E0C"></path>
                    <g id="Group-16" transform="translate(244.350347, 0.000000)">
                        <mask id="mask-8" fill="white">
                            <use xlink:href="#path-7"></use>
                        </mask>
                        <g id="Clip-15"></g>
                        <path d="M0.0606404413,48.0876374 L0.0606404413,9.16365357 C0.0606404413,4.05930271 3.96665813,0.469765198 8.98882621,0.469765198 C12.8948439,0.469765198 15.4456088,2.22483119 17.5980392,5.09615579 L28.280321,19.4532878 C30.1931402,22.0054633 32.266209,24.8767879 34.020305,27.9074326 L34.020305,10.839314 C34.020305,4.77700661 37.2085067,0.469765198 43.2669548,0.469765198 C49.3259117,0.469765198 52.5141134,4.77700661 52.5141134,10.839314 L52.5141134,49.8421944 C52.5141134,54.9465452 48.6080957,58.5360827 43.665798,58.5360827 C39.6799099,58.5360827 37.2085067,56.7815258 34.9767146,53.9096921 L23.656996,39.5530691 C21.9827704,37.3994484 20.0694424,34.5276148 18.5549576,32.1352684 L18.5549576,48.0876374 C18.5549576,54.2293503 15.3662471,58.5360827 9.307799,58.5360827 C3.24935089,58.5360827 0.0606404413,54.2293503 0.0606404413,48.0876374" id="Fill-14" fill="#FF6E0C" mask="url(#mask-8)"></path>
                    </g>
                    <g id="Group-19" transform="translate(302.827354, 0.000000)">
                        <mask id="mask-10" fill="white">
                            <use xlink:href="#path-9"></use>
                        </mask>
                        <g id="Clip-18"></g>
                        <path d="M10.1545282,0.557864111 C13.4135671,0.965157545 16.8391262,3.12509169 17.5233072,6.981098 C17.8977192,9.09233401 17.374887,11.8445161 16.3742141,15.1923894 C15.4128442,18.4079416 14.4307885,21.3691813 12.275334,23.1646173 C10.5692773,24.5857172 8.50277152,24.9192256 6.81895198,24.7086923 L6.73931187,24.6983624 C5.05600948,24.4829101 3.15292105,23.6471715 1.89677927,21.8517354 C0.30914844,19.5830913 0.175208249,16.4806763 0.1307339,13.1377219 C0.0841909769,9.65752744 0.335005619,6.87091234 1.27724124,4.92593862 C2.99674369,1.37392668 6.89704066,0.140732671 10.1545282,0.557864111" id="Fill-17" fill="#F20C90" mask="url(#mask-10)"></path>
                    </g>
                    <path d="M303.23484,53.4283694 L303.523016,53.4283694 C303.737793,53.4283694 303.895921,53.3042469 303.895921,53.0838663 C303.895921,52.8639923 303.737793,52.7393633 303.523016,52.7393633 L303.23484,52.7393633 L303.23484,53.4283694 Z M304.79838,54.5292592 C304.882616,54.6538883 304.948133,54.7587591 304.948133,54.9026398 C304.948133,55.2091461 304.743208,55.4199009 304.444687,55.4199009 C304.2772,55.4199009 304.128432,55.3332686 304.035329,55.1995203 L303.365874,54.270882 L303.23484,54.270882 L303.23484,54.8930139 C303.23484,55.1995203 303.020555,55.4199009 302.732379,55.4199009 C302.43435,55.4199009 302.229425,55.1995203 302.229425,54.8930139 L302.229425,52.4237377 C302.229425,52.1172313 302.444203,51.8968507 302.741738,51.8968507 L303.74666,51.8968507 C304.397889,51.8968507 304.901336,52.3756086 304.901336,53.0838663 C304.901336,53.5048693 304.723996,53.8402532 304.454539,54.0408755 L304.79838,54.5292592 Z M305.980149,53.6578692 C305.980149,52.2606054 304.882616,51.1313446 303.523016,51.1313446 C302.164401,51.1313446 301.066868,52.2606054 301.066868,53.6578692 C301.066868,55.0556396 302.164401,56.185407 303.523016,56.185407 C304.882616,56.185407 305.980149,55.0556396 305.980149,53.6578692 L305.980149,53.6578692 Z M307.004283,53.6578692 C307.004283,55.58202 305.450102,57.1424162 303.523016,57.1424162 C301.597408,57.1424162 300.042734,55.58202 300.042734,53.6578692 C300.042734,51.734225 301.597408,50.1738288 303.523016,50.1738288 C305.450102,50.1738288 307.004283,51.734225 307.004283,53.6578692 L307.004283,53.6578692 Z" id="Fill-20" fill="#FF6E0C"></path>
                </g>
            </g>
        </g>
    </g>
</svg>