<?xml version="1.0" encoding="UTF-8"?>
<svg width="238px" height="291px" viewBox="0 0 238 291" version="1.1" xmlns="http://www.w3.org/2000/svg" xmlns:xlink="http://www.w3.org/1999/xlink">
    <!-- Generator: Sketch 60 (88103) - https://sketch.com -->
    <title>id2</title>
    <desc>Created with Sketch.</desc>
    <g id="Page-1" stroke="none" stroke-width="1" fill="none" fill-rule="evenodd">
        <g id="module1" transform="translate(-690.000000, -5467.000000)">
            <g id="Locations" transform="translate(639.251745, 5400.678415)">
                <g>
                    <g id="Group-2-Copy" fill-rule="nonzero">
                        <polygon id="Path" fill="#424A60" transform="translate(178.291307, 206.700336) rotate(-315.000000) translate(-178.291307, -206.700336) " points="159.801673 80.8224422 52.4134126 188.207757 196.787844 332.578231 304.169201 225.192915"></polygon>
                        <path d="M241.589191,46.446591 L226.275124,31.1544978 C220.085948,24.9742022 210.050713,24.9727456 203.870237,31.1512459 L118.842065,116.050444 C112.654682,122.228944 112.656137,132.249775 118.845313,138.43007 L134.15938,153.722163 L241.589191,46.446591 Z" id="Path" fill="#E7ECED" transform="translate(177.895835, 90.120243) rotate(-315.000000) translate(-177.895835, -90.120243) "></path>
                        <path d="M240.95086,283.374709 L217.96249,260.419325 L110.539586,367.694899 L133.521048,390.643385 C139.710224,396.82368 149.745459,396.825137 155.925935,390.646637 L240.947201,305.747437 C247.141491,299.575836 247.140036,289.555005 240.95086,283.374709 Z" id="Path" fill="#E7ECED" transform="translate(178.066208, 327.849442) rotate(-315.000000) translate(-178.066208, -327.849442) "></path>
                        <circle id="Oval" fill="#FFFFFF" transform="translate(179.462285, 328.517363) rotate(-315.000000) translate(-179.462285, -328.517363) " cx="179.462285" cy="328.517363" r="14.0781488"></circle>
                        <path d="M172.426133,103.645706 C170.624356,103.645706 168.822478,102.955397 167.44983,101.582664 C164.697497,98.8301586 164.696851,94.3817416 167.448386,91.6300349 L181.522732,77.5548091 C184.274266,74.8031025 188.722405,74.8037481 191.474739,77.5562536 C194.227073,80.3087591 194.227718,84.7571761 191.476184,87.5088827 L177.401838,101.584109 C176.029589,102.956443 174.227911,103.645706 172.426133,103.645706 Z" id="Path" fill="#424A60" transform="translate(179.462285, 89.568579) rotate(-315.000000) translate(-179.462285, -89.568579) "></path>
                    </g>
                    <g id="map" transform="translate(51.665269, 87.192058)" fill-rule="nonzero">
                        <g id="Group" transform="translate(60.429913, 75.658717)" fill="#44C868">
                            <path d="M175.698356,131.334767 L157.143144,29.098158 C156.958164,28.077688 156.325264,27.1937727 155.418354,26.6895351 L108.715719,0.711837806 C108.109575,0.374141582 107.430084,0.239893493 106.762588,0.29156286 L115.259218,109.908126 L114.974598,110.035454 L170.867192,135.112167 C171.322031,135.315615 171.805471,135.416186 172.286603,135.416186 C173.048205,135.416186 173.802887,135.165682 174.423331,134.679897 C175.437262,133.888249 175.927621,132.600205 175.698356,131.334767 Z" id="Path"></path>
                            <path d="M57.6621303,25.5463503 L9.89712805,0.666165776 C9.32465842,0.367682911 8.68991369,0.24589083 8.0648562,0.287872191 C8.23046184,0.277722851 8.39699007,0.27982812 8.56213441,0.29156286 L0.0655041801,109.908126 L56.2427193,135.112628 C56.6961743,135.315615 57.1800749,135.416647 57.6621303,135.416647 L57.6621303,135.416647 L57.6621303,25.5463503 L57.6621303,25.5463503 Z" id="Path"></path>
                        </g>
                        <g id="Group" transform="translate(0.000000, 75.658717)" fill="#4CE166">
                            <path d="M68.9915857,0.292024194 C68.3240889,0.240354826 67.6445984,0.374602915 67.038454,0.711837806 L20.3353575,26.6895351 C19.4284476,27.1937727 18.795548,28.0772266 18.6105679,29.098158 L0.0558169422,131.334767 C-0.173908985,132.599744 0.316911068,133.887788 1.33038067,134.680359 C1.95174779,135.166143 2.70596845,135.416647 3.46710857,135.416647 C3.94824139,135.416647 4.43214199,135.316538 4.88651957,135.112628 L60.4746584,110.17247 L68.9915857,0.292024194 Z" id="Path"></path>
                            <path d="M167.192039,0.289717526 C166.732587,0.325240216 166.278209,0.44749363 165.857045,0.667088443 L118.092043,25.5468116 L118.092043,135.417109 C118.092043,135.417109 118.092043,135.417109 118.092043,135.417109 C118.57456,135.417109 119.058922,135.316538 119.511915,135.11309 L175.68913,109.908588 L167.192039,0.289717526 Z" id="Path"></path>
                        </g>
                        <polygon id="Path" fill="#FFDB56" points="12.9873569 135.739581 9.21809881 156.50836 65.0322732 127.026372 66.3280566 110.308103 66.543021 107.535487"></polygon>
                        <path d="M65.5346257,120.543712 L65.0322732,127.026372 L9.21809881,156.50836 L0.0558169422,206.993484 C-0.173908985,208.258461 0.316911068,209.546504 1.33038067,210.339076 C1.95174779,210.82486 2.70596845,211.075364 3.46710857,211.075364 C3.94824139,211.075364 4.43214199,210.975255 4.88651957,210.771345 L60.4746584,185.831187 L65.5346257,120.543712 L65.5346257,120.543712 Z" id="Path" fill="#A8EEFC"></path>
                        <g id="Group" transform="translate(64.581586, 87.653392)" fill="#FFBB24">
                            <polygon id="Path" points="53.5242959 27.2555914 1.96143503 19.8820959 0.450687211 39.3729808 53.510457 119.95828 53.510457 90.6552895 21.8484118 40.7952724 53.5242959 44.5842056"></polygon>
                            <polygon id="Path" points="147.590144 12.6502297 125.154962 0.170693447 103.915924 5.13372074 104.181631 8.56419769 105.23062 22.0969587"></polygon>
                        </g>
                        <polygon id="Path" fill="#FFDB56" points="171.695682 134.052484 169.684427 108.102928 169.684427 108.102928 168.49751 92.7871123 118.105882 114.908983 118.105882 132.237597 151.022194 117.922414"></polygon>
                        <path d="M236.128269,206.993484 L231.467785,181.312886 L169.812206,109.75035 L171.696143,134.052484 L234.926129,210.274489 C235.887472,209.477766 236.351998,208.226629 236.128269,206.993484 Z" id="Path" fill="#FFBB24"></path>
                        <path d="M118.313927,0.214520142 C91.5757663,0.214520142 69.8223817,21.9516386 69.8223817,48.6702376 C69.8223817,65.1979766 77.6685831,82.9427137 93.143715,101.410822 C104.509613,114.975415 115.720976,123.699695 116.192883,124.06461 C116.817479,124.547627 117.565703,124.788904 118.314388,124.788904 C119.062612,124.788904 119.811297,124.547627 120.435893,124.06461 C120.907339,123.699695 132.119163,114.975415 143.485061,101.410822 C158.960193,82.9427137 166.806395,65.1984379 166.806395,48.6702376 C166.806395,21.9516386 145.052087,0.214520142 118.313927,0.214520142 Z M136.272221,48.6697763 C136.272221,58.5801456 128.231813,66.6147322 118.313927,66.6147322 C108.39604,66.6147322 100.355633,58.5806069 100.355633,48.6697763 C100.355633,38.7589457 108.39604,30.7248204 118.313927,30.7248204 C128.231813,30.7248204 136.272221,38.7594071 136.272221,48.6697763 Z" id="Shape" fill="#FF4A4A"></path>
                        <path d="M118.313927,0.214520142 C116.194728,0.214520142 114.107359,0.351997567 112.0592,0.616803076 C135.854286,3.69251445 154.29648,24.06916 154.29648,48.6702376 C154.29648,65.1979766 146.450279,82.9427137 130.975147,101.410822 C123.665895,110.133718 116.425838,116.850275 112.0592,120.634133 C114.483316,122.734124 116.024971,123.934514 116.192883,124.06461 C116.817479,124.547627 117.565703,124.788904 118.314388,124.788904 C119.062612,124.788904 119.811297,124.547627 120.435893,124.06461 C120.907339,123.699695 132.119163,114.975415 143.485061,101.410822 C158.960193,82.9427137 166.806395,65.1984379 166.806395,48.6702376 C166.805472,21.9516386 145.052087,0.214520142 118.313927,0.214520142 Z" id="Path" fill="#E7343F"></path>
                        <path d="M119.511915,210.771345 L140.401752,201.398891 L118.092043,178.308681 L118.092043,211.075364 C118.092043,211.075364 118.092043,211.075364 118.092504,211.075364 C118.57456,211.075364 119.05846,210.975255 119.511915,210.771345 Z" id="Path" fill="#FFDB56"></path>
                        <g id="Group" transform="translate(60.429913, 100.109400)" fill="#1EA4E9">
                            <path d="M157.142683,4.64747509 C156.957703,3.62700507 156.324803,2.74308982 155.417893,2.23885215 L151.741356,0.193760129 L109.381832,9.64048907 L109.381832,9.64048907 L171.03695,81.2030246 L157.142683,4.64747509 Z" id="Path"></path>
                            <path d="M57.662015,110.965964 C57.662015,110.965964 57.662015,110.965964 57.662015,110.965964 L57.662015,107.502271 L4.6023606,26.9169725 L0.064581586,85.4579047 L56.2417968,110.662407 C56.6952517,110.865855 57.1791523,110.965964 57.662015,110.965964 Z" id="Path"></path>
                        </g>
                    </g>
                </g>
            </g>
        </g>
    </g>
</svg>