<?xml version="1.0" encoding="UTF-8"?>
<svg width="197px" height="291px" viewBox="0 0 197 291" version="1.1" xmlns="http://www.w3.org/2000/svg" xmlns:xlink="http://www.w3.org/1999/xlink">
    <!-- Generator: Sketch 60 (88103) - https://sketch.com -->
    <title>d3</title>
    <desc>Created with Sketch.</desc>
    <g id="Page-1" stroke="none" stroke-width="1" fill="none" fill-rule="evenodd">
        <g id="module1" transform="translate(-1142.000000, -5467.000000)">
            <g id="Menu" transform="translate(1057.761872, 5400.678415)">
                <g>
                    <g id="Group-2" fill-rule="nonzero">
                        <polygon id="Path" fill="#424A60" transform="translate(178.291307, 206.700336) rotate(-315.000000) translate(-178.291307, -206.700336) " points="159.801673 80.8224422 52.4134126 188.207757 196.787844 332.578231 304.169201 225.192915"></polygon>
                        <path d="M241.589191,46.446591 L226.275124,31.1544978 C220.085948,24.9742022 210.050713,24.9727456 203.870237,31.1512459 L118.842065,116.050444 C112.654682,122.228944 112.656137,132.249775 118.845313,138.43007 L134.15938,153.722163 L241.589191,46.446591 Z" id="Path" fill="#E7ECED" transform="translate(177.895835, 90.120243) rotate(-315.000000) translate(-177.895835, -90.120243) "></path>
                        <path d="M240.95086,283.374709 L217.96249,260.419325 L110.539586,367.694899 L133.521048,390.643385 C139.710224,396.82368 149.745459,396.825137 155.925935,390.646637 L240.947201,305.747437 C247.141491,299.575836 247.140036,289.555005 240.95086,283.374709 Z" id="Path" fill="#E7ECED" transform="translate(178.066208, 327.849442) rotate(-315.000000) translate(-178.066208, -327.849442) "></path>
                        <circle id="Oval" fill="#FFFFFF" transform="translate(179.462285, 328.517363) rotate(-315.000000) translate(-179.462285, -328.517363) " cx="179.462285" cy="328.517363" r="14.0781488"></circle>
                        <path d="M172.426133,103.645706 C170.624356,103.645706 168.822478,102.955397 167.44983,101.582664 C164.697497,98.8301586 164.696851,94.3817416 167.448386,91.6300349 L181.522732,77.5548091 C184.274266,74.8031025 188.722405,74.8037481 191.474739,77.5562536 C194.227073,80.3087591 194.227718,84.7571761 191.476184,87.5088827 L177.401838,101.584109 C176.029589,102.956443 174.227911,103.645706 172.426133,103.645706 Z" id="Path" fill="#424A60" transform="translate(179.462285, 89.568579) rotate(-315.000000) translate(-179.462285, -89.568579) "></path>
                    </g>
                    <g id="menu-(1)" transform="translate(84.417359, 107.029404)" fill-rule="nonzero">
                        <path d="M91.3368145,0 L185.917589,0 C191.514252,0 196.051243,4.54045319 196.051243,10.141386 L196.051243,185.925411 C196.051243,191.526344 191.514252,196.066797 185.917589,196.066797 L91.3368145,196.066797 L91.3368145,0 Z" id="Path" fill="#9ED2D9"></path>
                        <path d="M10.1485349,0 L91.3368145,0 L91.3368145,196.066797 L10.1485349,196.066797 C4.54365386,196.066797 0,191.526344 0,185.925411 L0,10.141386 C0,4.54045319 4.54365386,0 10.1485349,0 Z" id="Path" fill="#9ED2D9"></path>
                        <path d="M91.3368145,0 L172.525094,0 C178.129975,0 182.673629,4.54045319 182.673629,10.141386 L182.673629,185.925411 C182.673629,191.526344 178.129975,196.066797 172.525094,196.066797 L91.3368145,196.066797 L91.3368145,0 Z" id="Path" fill="#A0DDE5"></path>
                        <rect id="Rectangle" fill="#B7E7EB" x="81.1882795" y="17.0693447" width="20.2970699" height="6.45867095" rx="3.22933548"></rect>
                        <rect id="Rectangle" fill="#B7E7EB" x="81.1882795" y="47.0560312" width="20.2970699" height="6.45867095" rx="3.22933548"></rect>
                        <rect id="Rectangle" fill="#B7E7EB" x="81.1882795" y="77.5040515" width="20.2970699" height="6.45867095" rx="3.22933548"></rect>
                        <rect id="Rectangle" fill="#B7E7EB" x="81.1882795" y="107.952072" width="20.2970699" height="6.45867095" rx="3.22933548"></rect>
                        <rect id="Rectangle" fill="#B7E7EB" x="81.1882795" y="138.400092" width="20.2970699" height="6.45867095" rx="3.22933548"></rect>
                        <rect id="Rectangle" fill="#B7E7EB" x="81.1882795" y="168.848112" width="20.2970699" height="6.45867095" rx="3.22933548"></rect>
                        <g id="donut" transform="translate(8.764644, 21.682681)">
                            <path d="M32.2710665,1.26792342 C14.6811489,1.26792342 0.421844006,15.6487555 0.421844006,33.388586 C0.421844006,51.1284165 14.6811489,65.5093768 32.2710665,65.5093768 C49.8609841,65.5093768 64.1202889,51.1285447 64.1202889,33.3887142 C64.1202889,15.6488838 49.8609841,1.26792342 32.2710665,1.26792342 Z M32.2710665,44.5840505 C26.1403181,44.5840505 21.170338,39.5717129 21.170338,33.3887142 C21.170338,27.2057156 26.1403181,22.193378 32.2710665,22.193378 C38.4018148,22.193378 43.371795,27.2057156 43.371795,33.3887142 C43.371795,39.5717129 38.4018148,44.5840505 32.2710665,44.5840505 Z" id="Shape" fill="#FDCA74"></path>
                            <path d="M3.92188738,33.3886501 C3.92188738,16.3144556 17.1059263,2.35433601 33.7475205,1.33050243 C33.0986737,1.29062114 32.4452585,1.26792342 31.7865134,1.26792342 C14.2312292,1.26792342 0,15.648656 0,33.3886501 C0,51.1286443 14.2312292,65.5093768 31.7865134,65.5093768 C32.4452585,65.5093768 33.0986737,65.4866791 33.7475205,65.4467978 C17.1059263,64.4229642 3.92188738,50.4628447 3.92188738,33.3886501 Z" id="Path" fill="#E6B25B"></path>
                            <path d="M7.7235946,27.4716742 C7.39046917,27.4716742 7.06028395,27.3537773 6.83594618,27.1270159 L4.88923529,25.1598493 C4.49730573,24.7637301 4.57683832,24.1860116 5.06652976,23.8691637 C5.55622119,23.5523158 6.27113246,23.6166124 6.66306202,24.012494 L8.60977291,25.9796605 C9.00170247,26.3757798 8.92216988,26.9534983 8.43247844,27.2703462 C8.2228417,27.4058325 7.97233609,27.4716742 7.7235946,27.4716742 Z" id="Path" fill="#FA9EB0"></path>
                            <path d="M45.6895156,52.8301426 C45.3563786,52.8301426 45.0261818,52.7122439 44.8018362,52.485479 L42.8552045,50.5182818 C42.4632613,50.1222752 42.5427967,49.5444288 43.0325052,49.227576 C43.5223607,48.9108421 44.2370028,48.9750208 44.6290931,49.3710274 L46.5757248,51.3382246 C46.967668,51.7342312 46.8881327,52.3120776 46.3984241,52.6289304 C46.1889271,52.7644188 45.9382658,52.8301426 45.6895156,52.8301426 Z" id="Path" fill="#A8503C"></path>
                            <path d="M59.1885238,34.6565735 C58.8553868,34.6565735 58.52519,34.5386748 58.3008444,34.3119099 L56.3542127,32.3447127 C55.9622695,31.9487061 56.0418049,31.3708598 56.5315134,31.054007 C57.0213689,30.737273 57.7361581,30.8014517 58.1281013,31.1974583 L60.074733,33.1646556 C60.4666762,33.5606621 60.3871408,34.1385085 59.8974323,34.4553613 C59.6877883,34.5907309 59.437274,34.6565735 59.1885238,34.6565735 Z" id="Path" fill="#FA9EB0"></path>
                            <path d="M54.8906095,50.7169369 C54.8009229,50.7169369 54.7097319,50.7016833 54.6198138,50.669351 C54.1491618,50.5009101 53.8887813,49.9347036 54.0381818,49.4044799 L54.7805554,46.7705701 C54.9299559,46.2403463 55.4327794,45.9471392 55.9033158,46.1153194 C56.3739679,46.2837603 56.6343483,46.8499668 56.4849478,47.3801906 L55.7425743,50.0141003 C55.6217577,50.4430249 55.2698391,50.7169369 54.8906095,50.7169369 Z" id="Path" fill="#A8503C"></path>
                            <path d="M11.196469,35.924497 C10.9229704,35.924497 10.6496105,35.8310263 10.4403583,35.6439601 C10.0204664,35.2684551 10.0186626,34.6578383 10.4363343,34.2803366 L12.5105392,32.4049329 C12.9280721,32.0274312 13.6068927,32.0258089 14.0266459,32.4011891 C14.446399,32.7765693 14.4483417,33.3871862 14.0306699,33.7648127 L11.956465,35.6402163 C11.7472129,35.8296536 11.4719103,35.924497 11.196469,35.924497 Z" id="Path" fill="#FB8D4B"></path>
                            <path d="M36.0852961,59.5924009 C35.8117941,59.5924009 35.5384308,59.4989313 35.3291761,59.3118675 C34.9092791,58.936367 34.9074752,58.3260073 35.3250132,57.9483854 L37.3991049,56.07288 C37.816643,55.6952581 38.4956107,55.6937606 38.915369,56.0691362 C39.335266,56.4446366 39.3370699,57.0551212 38.9195319,57.4327431 L36.8454402,59.3082485 C36.6360467,59.4976834 36.360602,59.5924009 36.0852961,59.5924009 Z" id="Path" fill="#FA9EB0"></path>
                            <path d="M49.9769445,40.9961907 C49.5950074,40.9961907 49.227231,40.8108625 49.0444892,40.4902436 C48.7867626,40.0378911 48.994859,39.4873609 49.5093682,39.2607696 L52.0651911,38.1349277 C52.5798352,37.9083365 53.2057428,38.0912932 53.4636043,38.5436457 C53.7213309,38.9959982 53.5132345,39.5465284 52.9987253,39.7731196 L50.4429024,40.8989615 C50.2930676,40.9650062 50.1336574,40.9961907 49.9769445,40.9961907 Z" id="Path" fill="#FB8D4B"></path>
                            <g id="Group" transform="translate(6.749504, 24.090545)" fill="#A8503C">
                                <path d="M42.7275134,4.32535223 C42.5552756,4.32535223 42.380864,4.28109796 42.2221802,4.18793769 C41.7536728,3.91298288 41.6006151,3.3166817 41.8802619,2.85603496 L43.269289,0.567762199 C43.5489357,0.107241177 44.1552845,-0.0434999382 44.6239197,0.231580596 C45.0924271,0.506535407 45.2454848,1.10283658 44.965838,1.56348333 L43.5768109,3.85175609 C43.392042,4.15625565 43.0640613,4.32535223 42.7275134,4.32535223 Z" id="Path"></path>
                                <path d="M3.53464766,19.8095701 C3.41381265,19.8095701 3.29105963,19.7876944 3.17201478,19.7414286 L0.651102481,18.7625543 C0.143595461,18.5655473 -0.105235142,18.0013053 0.0951335911,17.5021876 C0.295630192,17.0031955 0.869500564,16.7586655 1.37687972,16.9556724 L3.89779201,17.9345468 C4.40529903,18.1315537 4.65412963,18.6957957 4.4537609,19.1949135 C4.30031963,19.5766066 3.92822453,19.8095701 3.53464766,19.8095701 Z" id="Path"></path>
                            </g>
                            <path d="M28.0523655,56.2112717 C27.7934361,56.2112717 27.5342337,56.123296 27.3305844,55.9454404 L25.2214767,54.1032825 C24.7968433,53.7323373 24.7759597,53.1116833 25.1746592,52.7168717 C25.5734951,52.3220601 26.2409515,52.30251 26.6654484,52.6733282 L28.7745561,54.5154861 C29.1991895,54.8864313 29.2200731,55.5070853 28.8213736,55.9018968 C28.6139025,56.1074274 28.333407,56.2112717 28.0523655,56.2112717 Z" id="Path" fill="#FB8D4B"></path>
                            <g id="Group" transform="translate(3.796596, 0.000000)" fill="#FA9EB0">
                                <path d="M12.5369758,48.9793834 C11.9966022,48.9793834 11.5546066,48.548588 11.5463978,48.0103167 C11.5380606,47.4669517 11.9751822,47.0198566 12.5223538,47.0117068 L15.2407679,46.9712123 C15.7822959,46.9652272 16.2384005,47.396914 16.2466093,47.940279 C16.2549464,48.483644 15.8178248,48.9307391 15.2706533,48.9388889 L12.5523674,48.9792561 C12.5472369,48.9792561 12.5419781,48.9793834 12.5369758,48.9793834 Z" id="Path"></path>
                                <path d="M28.4159823,-5.03190477e-05 C37.3974973,-0.0152809472 45.8438974,3.45031054 52.1931912,9.75382861 C53.5739465,11.1246569 55.2725385,13.454874 56.6116082,15.4189851 C57.672218,16.9748402 55.8896136,18.9138651 54.2475858,17.9800719 C54.2336051,17.9720494 54.2197526,17.9640269 54.2057719,17.9560044 L54.2057719,17.9560044 C51.9339709,16.6418429 49.1259008,16.6418429 46.8539715,17.9560044 L46.8539715,17.9560044 C44.5821705,19.2701658 41.7741003,19.2701658 39.5021711,17.9560044 L39.5021711,17.9560044 C37.2303701,16.6418429 34.4222999,16.6418429 32.1503706,17.9560044 L32.1503706,17.9560044 C31.0143419,18.6130851 29.7444061,18.9417528 28.4743422,18.9417528 C27.2044064,18.9417528 25.9343424,18.6132124 24.7983137,17.9560044 L24.7983137,17.9560044 C22.5265127,16.6418429 19.7184425,16.6418429 17.4465132,17.9560044 L17.4465132,17.9560044 C15.1747123,19.2701658 12.3666421,19.2701658 10.0947128,17.9560044 L10.0947128,17.9560044 C7.82291183,16.6418429 5.01484164,16.6418429 2.74291239,17.9560044 L2.74291239,17.9560044 C2.72905994,17.9640269 2.71507923,17.9720494 2.70109853,17.9800719 C1.05907073,18.9137377 -0.723533728,16.9747129 0.337076163,15.4189851 C1.67627412,13.4547467 3.37486606,11.1245296 4.75549309,9.75382861 C11.1053,3.45031054 19.5515718,-0.0150262648 28.533215,-5.03190477e-05 L28.4159823,-5.03190477e-05 Z" id="Path"></path>
                            </g>
                            <g id="Group" transform="translate(4.218440, 0.000000)" fill="#ED6883">
                                <path d="M28.5563082,0.125460294 C28.5759005,0.125460294 28.5954928,0.125961634 28.615214,0.125961634 C28.6350641,0.125961634 28.6543986,0.125334959 28.6741198,0.125460294 C28.6742487,0.125460294 28.5563082,0.125460294 28.5563082,0.125460294 Z" id="Path"></path>
                                <path d="M2.75684432,17.7989429 C3.03345681,17.6421488 3.3181898,17.504907 3.60859424,17.3860895 C5.11011283,15.2675527 6.88798611,12.9345678 8.36269417,11.5008612 C14.9158064,5.12870652 23.3457847,1.24557882 32.440097,0.33489501 C31.1789709,0.19740256 29.9028928,0.125961634 28.6153429,0.125961634 C19.6115161,0.125961634 11.1464779,3.53482185 4.77949259,9.72549148 C3.39191876,11.0747223 1.6849387,13.3682267 0.339256324,15.3015185 C-0.726591147,16.832861 1.0648163,18.7413364 2.71495287,17.8222552 C2.72887372,17.8146097 2.74279457,17.8067136 2.75684432,17.7989429 L2.75684432,17.7989429 Z" id="Path"></path>
                            </g>
                            <g id="Group" transform="translate(20.670356, 8.452823)" fill="#3B484A">
                                <path d="M1.00386173,4.2475329 C0.461923723,4.2475329 0.02260721,3.77241029 0.02260721,3.18630213 L0.02260721,1.0707085 C0.02260721,0.484600332 0.461923723,0.00947772758 1.00386173,0.00947772758 C1.54579973,0.00947772758 1.98511627,0.484600332 1.98511627,1.0707085 L1.98511627,3.18616477 C1.98524325,3.77227294 1.54579973,4.2475329 1.00386173,4.2475329 Z" id="Path"></path>
                                <path d="M22.6194026,4.2475329 C22.0774646,4.2475329 21.6381481,3.77241029 21.6381481,3.18630213 L21.6381481,1.0707085 C21.6381481,0.484600332 22.0774646,0.00947772758 22.6194026,0.00947772758 C23.1613406,0.00947772758 23.6006572,0.484600332 23.6006572,1.0707085 L23.6006572,3.18616477 C23.6007841,3.77227294 23.1613406,4.2475329 22.6194026,4.2475329 Z" id="Path"></path>
                                <path d="M11.8116322,5.37661871 C10.4888564,5.37661871 9.24711092,4.77924715 8.40518286,3.73738391 C8.04854777,3.29605146 8.09007899,2.62560526 8.49815183,2.23990295 C8.90622467,1.85433801 9.52614485,1.89911683 9.88277994,2.34044928 C10.3519431,2.92106311 11.0549257,3.2540198 11.8115052,3.2540198 C12.5679577,3.2540198 13.2709403,2.92106311 13.7401034,2.34044928 C14.0967385,1.89911683 14.7166587,1.85406329 15.1247315,2.23990295 C15.5328043,2.62560526 15.5744626,3.29605146 15.2177005,3.73738391 C14.3760264,4.77924715 13.134408,5.37661871 11.8116322,5.37661871 Z" id="Path"></path>
                            </g>
                        </g>
                        <ellipse id="Oval" fill="#F35244" cx="23.5261492" cy="138.861426" rx="10.1485349" ry="10.1493401"></ellipse>
                        <ellipse id="Oval" fill="#92563A" cx="23.5261492" cy="172.538781" rx="10.1485349" ry="10.1493401"></ellipse>
                        <ellipse id="Oval" fill="#7A432A" cx="121.782419" cy="37.3680248" rx="10.1485349" ry="10.1493401"></ellipse>
                        <ellipse id="Oval" fill="#7EB457" cx="121.782419" cy="71.0453805" rx="10.1485349" ry="10.1493401"></ellipse>
                        <ellipse id="Oval" fill="#F2DEC2" cx="121.782419" cy="104.722736" rx="10.1485349" ry="10.1493401"></ellipse>
                        <ellipse id="Oval" fill="#F59898" cx="121.782419" cy="138.861426" rx="10.1485349" ry="10.1493401"></ellipse>
                        <ellipse id="Oval" fill="#F98500" cx="121.782419" cy="172.538781" rx="10.1485349" ry="10.1493401"></ellipse>
                        <g id="Group" transform="translate(10.148535, 27.218685)" fill="#88C4CC">
                            <polygon id="Path" points="33.8284498 101.393111 64.2740546 101.393111 64.2740546 108.152652 33.8284498 108.152652"></polygon>
                            <polygon id="Path" points="33.8284498 114.912192 40.5941398 114.912192 40.5941398 121.671733 33.8284498 121.671733"></polygon>
                            <polygon id="Path" points="47.3598297 114.912192 64.2740546 114.912192 64.2740546 121.671733 47.3598297 121.671733"></polygon>
                            <polygon id="Path" points="33.8284498 135.190814 64.2740546 135.190814 64.2740546 141.950355 33.8284498 141.950355"></polygon>
                            <polygon id="Path" points="33.8284498 148.709896 40.5941398 148.709896 40.5941398 155.469437 33.8284498 155.469437"></polygon>
                            <polygon id="Path" points="47.3598297 148.709896 64.2740546 148.709896 64.2740546 155.469437 47.3598297 155.469437"></polygon>
                            <polygon id="Path" points="131.930954 0 162.376559 0 162.376559 6.75954072 131.930954 6.75954072"></polygon>
                            <polygon id="Path" points="131.930954 13.5190814 138.696644 13.5190814 138.696644 20.2786222 131.930954 20.2786222"></polygon>
                            <polygon id="Path" points="145.462334 13.5190814 162.376559 13.5190814 162.376559 20.2786222 145.462334 20.2786222"></polygon>
                            <polygon id="Path" points="131.930954 33.7977036 162.376559 33.7977036 162.376559 40.5572443 131.930954 40.5572443"></polygon>
                            <polygon id="Path" points="131.930954 47.316785 138.696644 47.316785 138.696644 54.0763258 131.930954 54.0763258"></polygon>
                            <polygon id="Path" points="145.462334 47.316785 162.376559 47.316785 162.376559 54.0763258 145.462334 54.0763258"></polygon>
                            <polygon id="Path" points="131.930954 67.5954072 162.376559 67.5954072 162.376559 74.3549479 131.930954 74.3549479"></polygon>
                            <polygon id="Path" points="131.930954 81.1144886 138.696644 81.1144886 138.696644 87.8740294 131.930954 87.8740294"></polygon>
                            <polygon id="Path" points="145.462334 81.1144886 162.376559 81.1144886 162.376559 87.8740294 145.462334 87.8740294"></polygon>
                            <polygon id="Path" points="131.930954 101.393111 162.376559 101.393111 162.376559 108.152652 131.930954 108.152652"></polygon>
                            <polygon id="Path" points="131.930954 114.912192 138.696644 114.912192 138.696644 121.671733 131.930954 121.671733"></polygon>
                            <polygon id="Path" points="145.462334 114.912192 162.376559 114.912192 162.376559 121.671733 145.462334 121.671733"></polygon>
                            <polygon id="Path" points="131.930954 135.190814 162.376559 135.190814 162.376559 141.950355 131.930954 141.950355"></polygon>
                            <polygon id="Path" points="131.930954 148.709896 138.696644 148.709896 138.696644 155.469437 131.930954 155.469437"></polygon>
                            <polygon id="Path" points="145.462334 148.709896 162.376559 148.709896 162.376559 155.469437 145.462334 155.469437"></polygon>
                            <polygon id="Path" points="20.2970699 81.1144886 64.2740546 81.1144886 64.2740546 87.8740294 20.2970699 87.8740294"></polygon>
                            <polygon id="Path" points="0 81.1144886 13.5313799 81.1144886 13.5313799 87.8740294 0 87.8740294"></polygon>
                        </g>
                    </g>
                </g>
            </g>
        </g>
    </g>
</svg>