<?xml version="1.0" encoding="UTF-8"?>
<svg width="223px" height="291px" viewBox="0 0 223 291" version="1.1" xmlns="http://www.w3.org/2000/svg" xmlns:xlink="http://www.w3.org/1999/xlink">
    <!-- Generator: Sketch 60 (88103) - https://sketch.com -->
    <title>id4</title>
    <desc>Created with Sketch.</desc>
    <g id="Page-1" stroke="none" stroke-width="1" fill="none" fill-rule="evenodd">
        <g id="module1" transform="translate(-1540.000000, -5467.000000)">
            <g id="Checkout" transform="translate(1472.276675, 5400.678415)">
                <g>
                    <g id="Group-2" fill-rule="nonzero">
                        <polygon id="Path" fill="#424A60" transform="translate(178.790726, 206.700333) rotate(-315.000000) translate(-178.790726, -206.700333) " points="160.451496 80.6720399 52.7624318 188.358158 197.136869 332.728626 304.819019 225.042516"></polygon>
                        <path d="M242.233285,46.2981139 L226.919187,31.0060515 C220.729998,24.8257683 210.680711,24.8383647 204.482925,31.0341744 L119.216759,116.171366 C113.012058,122.367185 112.999479,132.402049 119.188668,138.582332 L134.502766,153.874394 L242.233285,46.2981139 Z" id="Path" fill="#E7ECED" transform="translate(178.394139, 90.126730) rotate(-315.000000) translate(-178.394139, -90.126730) "></path>
                        <path d="M241.604594,283.222446 L218.616178,260.267109 L110.892575,367.84338 L133.874083,390.79182 C140.063272,396.972103 150.11256,396.959507 156.310345,390.763697 L241.569595,305.626514 C247.781204,299.437593 247.793782,289.40273 241.604594,283.222446 Z" id="Path" fill="#E7ECED" transform="translate(178.564993, 327.842957) rotate(-315.000000) translate(-178.564993, -327.842957) "></path>
                        <circle id="Oval" fill="#FFFFFF" transform="translate(179.964980, 328.517363) rotate(-315.000000) translate(-179.964980, -328.517363) " cx="179.96498" cy="328.517363" r="14.0978745"></circle>
                        <path d="M172.899259,103.675281 C171.094958,103.677537 169.291523,102.989047 167.918876,101.616314 C165.166542,98.8638081 165.172126,94.4091617 167.931368,91.6497475 L182.045139,77.5350965 C184.804382,74.7756822 189.25875,74.7700988 192.011083,77.5226046 C194.763416,80.2751103 194.757833,84.7297567 191.99859,87.489171 L177.884819,101.603822 C176.508727,102.98 174.70356,103.673014 172.899259,103.675281 Z" id="Path" fill="#424A60" transform="translate(179.964979, 89.568578) rotate(-315.000000) translate(-179.964979, -89.568578) "></path>
                    </g>
                    <g id="checkout" transform="translate(67.538022, 104.722736)" fill-rule="nonzero">
                        <ellipse id="Oval" fill="#4671C6" cx="130.550996" cy="179.935805" rx="20.2993389" ry="20.2442428"></ellipse>
                        <path d="M130.550996,191.346431 C124.242205,191.346431 119.109315,186.227473 119.109315,179.935805 C119.109315,173.644137 124.242205,168.525179 130.550996,168.525179 C136.858863,168.525179 141.991752,173.644137 141.991752,179.935805 C141.991752,186.227473 136.859788,191.346431 130.550996,191.346431 L130.550996,191.346431 Z" id="Path" fill="#F9CFCF"></path>
                        <path d="M130.550071,202.025382 C118.336791,202.025382 108.401301,192.115936 108.401301,179.935805 C108.401301,167.755674 118.336791,157.846227 130.550071,157.846227 C142.763351,157.846227 152.699767,167.755674 152.699767,179.935805 C152.699767,192.115936 142.764276,202.025382 130.550071,202.025382 Z M130.550071,161.536897 C120.377735,161.536897 112.102014,169.790155 112.102014,179.935805 C112.102014,190.081454 120.377735,198.334713 130.550071,198.334713 C140.723333,198.334713 148.999053,190.081454 148.999053,179.935805 C148.999053,169.790155 140.723333,161.536897 130.550071,161.536897 Z" id="Shape" fill="#3762CC"></path>
                        <ellipse id="Oval" fill="#4671C6" cx="44.9969758" cy="179.935805" rx="20.2993389" ry="20.2442428"></ellipse>
                        <path d="M44.9969758,191.346431 C38.6881844,191.346431 33.5552948,186.227473 33.5552948,179.935805 C33.5552948,173.644137 38.6881844,168.525179 44.9969758,168.525179 C51.304842,168.525179 56.4377317,173.644137 56.4377317,179.935805 C56.4377317,186.227473 51.3057672,191.346431 44.9969758,191.346431 L44.9969758,191.346431 Z" id="Path" fill="#F9CFCF"></path>
                        <path d="M44.9969758,202.025382 C32.783696,202.025382 22.8482053,192.115936 22.8482053,179.935805 C22.8482053,167.755674 32.7846212,157.846227 44.9969758,157.846227 C57.2102557,157.846227 67.1466715,167.755674 67.1466715,179.935805 C67.1466715,192.115936 57.2102557,202.025382 44.9969758,202.025382 Z M44.9969758,161.536897 C34.8246395,161.536897 26.5489189,169.790155 26.5489189,179.935805 C26.5489189,190.081454 34.8246395,198.334713 44.9969758,198.334713 C55.1702373,198.334713 63.445958,190.081454 63.445958,179.935805 C63.445958,169.790155 55.1693121,161.536897 44.9969758,161.536897 L44.9969758,161.536897 Z" id="Shape" fill="#3762CC"></path>
                        <path d="M50.9653016,159.691562 L50.9653016,174.855599 C50.9653016,177.594998 48.7383972,179.815858 45.9915426,179.815858 L44.5630672,179.815858 C42.4416331,179.815858 40.5533441,178.473377 39.8613106,176.473957 L34.0539659,159.692485 L50.9653016,159.692485 L50.9653016,159.691562 Z" id="Path" fill="#A4C9FF"></path>
                        <path d="M136.519322,159.691562 L136.519322,174.855599 C136.519322,177.594998 134.292418,179.815858 131.545563,179.815858 L130.117088,179.815858 C127.995654,179.815858 126.107365,178.473377 125.415331,176.473957 L119.607986,159.692485 L136.519322,159.692485 L136.519322,159.691562 Z" id="Path" fill="#A4C9FF"></path>
                        <path d="M45.9915426,181.661193 L44.5630672,181.661193 C41.6533811,181.661193 39.0610313,179.818626 38.1117983,177.075536 L32.3053788,160.293141 C32.1101661,159.729391 32.2008336,159.105668 32.5477755,158.620345 C32.8947174,158.1341 33.4563007,157.846227 34.0539659,157.846227 L50.9653016,157.846227 C51.9866985,157.846227 52.8156583,158.672937 52.8156583,159.691562 L52.8156583,174.855599 C52.8156583,178.608087 49.7542431,181.661193 45.9915426,181.661193 L45.9915426,181.661193 Z M36.6500165,161.536897 L41.6098978,175.871455 C42.0447316,177.126283 43.2308103,177.970523 44.5630672,177.970523 L45.9915426,177.970523 C47.7142247,177.970523 49.1149448,176.572683 49.1149448,174.855599 L49.1149448,161.536897 L36.6500165,161.536897 Z" id="Shape" fill="#3762CC"></path>
                        <path d="M131.546488,181.661193 L130.117088,181.661193 C127.207402,181.661193 124.615052,179.817703 123.665819,177.075536 L117.859399,160.294064 C117.664187,159.730314 117.754854,159.106591 118.101796,158.621268 C118.449663,158.135022 119.010321,157.84715 119.608912,157.84715 L136.520247,157.84715 C137.541644,157.84715 138.370604,158.67386 138.370604,159.692485 L138.370604,174.856521 C138.370604,178.608087 135.309189,181.661193 131.546488,181.661193 L131.546488,181.661193 Z M122.204037,161.536897 L127.163918,175.871455 C127.598752,177.127206 128.784831,177.970523 130.116163,177.970523 L131.545563,177.970523 C133.26732,177.970523 134.668965,176.572683 134.668965,174.855599 L134.668965,161.536897 L122.204037,161.536897 Z" id="Shape" fill="#3762CC"></path>
                        <path d="M216.292828,21.4593956 L179.918515,21.4593956 C177.50935,21.4593956 175.556299,19.511645 175.556299,17.1090194 L175.556299,6.23446281 C175.556299,3.83183721 177.50935,1.88408658 179.918515,1.88408658 L216.292828,1.88408658 C218.701993,1.88408658 220.655044,3.83183721 220.655044,6.23446281 L220.655044,17.109942 C220.655044,19.511645 218.701993,21.4593956 216.292828,21.4593956 Z" id="Path" fill="#F9A7A7"></path>
                        <path d="M216.292828,23.3047301 L179.918515,23.3047301 C176.493505,23.3047301 173.706867,20.5256563 173.706867,17.1090194 L173.706867,6.23446281 C173.706867,2.81782587 176.493505,0.0387520257 179.918515,0.0387520257 L216.292828,0.0387520257 C219.717839,0.0387520257 222.505401,2.81782587 222.505401,6.23446281 L222.505401,17.109942 C222.505401,20.5256563 219.717839,23.3047301 216.292828,23.3047301 Z M179.918515,3.72942114 C178.534448,3.72942114 177.407581,4.85322989 177.407581,6.23446281 L177.407581,17.109942 C177.407581,18.4911749 178.534448,19.6149837 179.918515,19.6149837 L216.292828,19.6149837 C217.67782,19.6149837 218.804688,18.4911749 218.804688,17.109942 L218.804688,6.23446281 C218.804688,4.85322989 217.67782,3.72942114 216.292828,3.72942114 L179.918515,3.72942114 Z" id="Shape" fill="#3762CC"></path>
                        <path d="M162.578822,21.2767075 C162.908185,18.9008392 164.819604,17.1090194 167.023379,17.1090194 L175.556299,17.1090194 L175.556299,6.23446281 L167.023379,6.23446281 C159.401759,6.23446281 152.84687,12.0611067 151.775514,19.7875225 L150.503393,28.9643712 L155.087652,28.9643712 C156.660456,28.9643712 158.156469,29.641609 159.191744,30.8226231 C160.227943,32.0036372 160.70071,33.5730943 160.490694,35.1277887 L162.578822,21.2767075 Z" id="Path" fill="#A4C9FF"></path>
                        <path d="M160.496245,36.9740459 C160.408353,36.9740459 160.321386,36.9675872 160.232569,36.9546699 C159.2269,36.8116564 158.523765,35.8862212 158.659766,34.8814365 C158.798543,33.8535851 158.485832,32.8174298 157.802126,32.0377759 C157.117494,31.2562767 156.128478,30.8087831 155.089503,30.8087831 L150.505244,30.8087831 C149.970491,30.8087831 149.461643,30.5781163 149.110075,30.1758334 C148.758507,29.7735504 148.598451,29.2393261 148.67154,28.7106377 L149.942735,19.533789 C151.140841,10.8994686 158.483057,4.38728291 167.024304,4.38728291 L175.557224,4.38728291 C176.578621,4.38728291 177.407581,5.21399279 177.407581,6.23261747 L177.407581,17.1080967 C177.407581,18.1267214 176.578621,18.9534312 175.557224,18.9534312 L167.024304,18.9534312 C165.738306,18.9534312 164.615139,20.060632 164.412525,21.527673 C164.4116,21.5350543 164.40975,21.5424356 164.408825,21.5488943 L162.322547,35.3999755 C162.185621,36.3161841 161.396444,36.9740459 160.496245,36.9740459 L160.496245,36.9740459 Z M152.628528,27.1199593 L155.089503,27.1199593 C156.735395,27.1199593 158.3193,27.6744824 159.594196,28.670963 L160.747894,21.0137473 C161.206782,17.7355104 163.903677,15.2646075 167.024304,15.2646075 L173.706867,15.2646075 L173.706867,8.07979736 L167.024304,8.07979736 C160.322312,8.07979736 154.553824,13.2218221 153.609217,20.0403333 L152.628528,27.1199593 Z" id="Shape" fill="#3762CC"></path>
                        <path d="M159.193594,30.8235458 C158.158319,29.6425317 156.662306,28.9652939 155.089503,28.9652939 L11.7451396,28.9652939 C9.02418995,28.9652939 6.43646601,30.1361587 4.64532066,32.178944 C2.85417531,34.2217294 2.03446726,36.9352939 2.39713719,39.6267143 L13.4622706,121.583558 C14.3532174,128.190778 20.0680443,133.174104 26.7533833,133.174104 L44.4853522,133.174104 L46.5457244,133.174104 L48.7698533,133.174104 L114.083746,133.174104 L116.307875,133.174104 L123.741684,133.174104 L135.529381,133.174104 C142.21472,133.174104 147.927697,128.191701 148.819569,121.584481 L160.492544,35.129634 C160.70256,33.5730943 160.229794,32.0045599 159.193594,30.8235458 Z M13.4289642,39.8398504 L34.5063781,39.8398504 L37.6464336,75.6310369 L18.2611709,75.6310369 L13.4289642,39.8398504 Z M26.7543085,122.297703 C25.5053177,122.297703 24.4367366,121.366731 24.2702045,120.132202 L19.7303542,86.5065161 L38.6012177,86.5065161 L41.7412731,122.297703 L26.7543085,122.297703 Z M75.9756488,122.297703 L52.6879837,122.297703 L49.5479283,86.5065161 L75.9756488,86.5065161 L75.9756488,122.297703 Z M75.9756488,75.6310369 L48.5940694,75.6310369 L45.4540139,39.8398504 L75.9756488,39.8398504 L75.9756488,75.6310369 Z M110.167466,122.297703 L86.8798012,122.297703 L86.8798012,86.5065161 L113.306597,86.5065161 L110.167466,122.297703 Z M114.261381,75.6310369 L86.8807264,75.6310369 L86.8807264,39.8398504 L117.401436,39.8398504 L114.261381,75.6310369 Z M138.013485,120.132202 C137.846028,121.366731 136.779297,122.297703 135.530306,122.297703 L121.115102,122.297703 L124.254232,86.5065161 L142.553336,86.5065161 L138.013485,120.132202 Z M144.021594,75.6310369 L125.208091,75.6310369 L128.348147,39.8398504 L148.8538,39.8398504 L144.021594,75.6310369 Z" id="Shape" fill="#A4C9FF"></path>
                        <path d="M142.322041,133.173182 C146.355819,133.173182 149.636501,136.682085 149.636501,140.994632 C149.636501,145.307179 146.355819,148.817005 142.322041,148.817005 L19.7951167,148.817005 C16.783661,148.817005 14.3430405,151.251002 14.3430405,154.254284 C14.3430405,157.257566 16.783661,159.691562 19.7951167,159.691562 L142.322966,159.691562 C152.369478,159.691562 160.542504,151.304516 160.542504,140.994632 C160.542504,132.886232 155.477152,125.985604 148.430069,123.401213 C146.82951,129.08023 141.585599,133.172259 135.531232,133.172259 L142.322041,133.173182 Z" id="Path" fill="#A4C9FF"></path>
                        <path d="M135.530306,135.017594 L26.7533833,135.017594 C19.1447163,135.017594 12.6434878,129.346881 11.6285671,121.828065 L0.563433635,39.8721438 C0.128599795,36.6538803 1.10928888,33.4070142 3.25200202,30.9628686 C5.39471515,28.5205683 8.49036202,27.1190367 11.7442144,27.1190367 L155.088577,27.1190367 C157.195209,27.1190367 159.199145,28.0260186 160.585987,29.608393 C161.97283,31.188922 162.607502,33.2898354 162.326248,35.3741408 L150.654197,121.82991 C149.640202,129.347803 143.138048,135.017594 135.530306,135.017594 Z M11.7451396,30.8097058 C9.55801787,30.8097058 7.47821687,31.7526717 6.0386393,33.3940968 C4.59813656,35.0355219 3.93940955,37.2185527 4.23176592,39.3803621 L15.2968994,121.336283 C16.0657226,127.031908 20.9904471,131.327847 26.7543085,131.327847 L135.531232,131.327847 C141.294168,131.327847 146.219818,127.032831 146.987716,121.337206 L158.659766,34.8814365 C158.798543,33.8535851 158.485832,32.8174298 157.802126,32.0386986 C157.802126,32.0386986 157.802126,32.0386986 157.8012,32.0377759 C157.117494,31.2571994 156.128478,30.8097058 155.089503,30.8097058 L11.7451396,30.8097058 L11.7451396,30.8097058 Z M135.530306,124.143037 L121.114177,124.143037 C120.595152,124.143037 120.100181,123.92621 119.749539,123.544226 C119.398896,123.163164 119.225888,122.652007 119.270296,122.137158 L122.410352,86.345972 C122.493618,85.3928567 123.293897,84.6611815 124.253307,84.6611815 L142.55241,84.6611815 C143.086238,84.6611815 143.594161,84.8909257 143.945729,85.292286 C144.297297,85.6927236 144.458278,86.2251026 144.387039,86.7528683 L139.848114,120.379477 C139.848114,120.379477 139.847189,120.3804 139.847189,120.381323 C139.555758,122.525601 137.69985,124.143037 135.530306,124.143037 Z M123.133841,120.452368 L135.530306,120.452368 C135.852269,120.452368 136.137223,120.202325 136.180707,119.884005 L140.437453,88.3518507 L125.950084,88.3518507 L123.133841,120.452368 Z M110.167466,124.143037 L86.8807264,124.143037 C85.8593295,124.143037 85.0303696,123.316327 85.0303696,122.297703 L85.0303696,86.5065161 C85.0303696,85.4878914 85.8593295,84.6611815 86.8807264,84.6611815 L113.307522,84.6611815 C113.826547,84.6611815 114.321517,84.8780083 114.67216,85.2599926 C115.022802,85.6419769 115.195811,86.1522119 115.151402,86.6670602 L112.011347,122.458247 C111.927156,123.411362 111.126876,124.143037 110.167466,124.143037 L110.167466,124.143037 Z M88.730158,120.452368 L108.471614,120.452368 L111.287857,88.3518507 L88.730158,88.3518507 L88.730158,120.452368 Z M75.9756488,124.143037 L52.6879837,124.143037 C51.7285737,124.143037 50.9282944,123.412285 50.8450284,122.458247 L47.7049729,86.6670602 C47.6596392,86.1512892 47.8335727,85.6410542 48.1842154,85.2599926 C48.534858,84.878931 49.0298284,84.6611815 49.5488535,84.6611815 L75.9756488,84.6611815 C76.9970457,84.6611815 77.8260056,85.4878914 77.8260056,86.5065161 L77.8260056,122.297703 C77.8260056,123.316327 76.9970457,124.143037 75.9756488,124.143037 L75.9756488,124.143037 Z M54.3829105,120.452368 L74.125292,120.452368 L74.125292,88.3518507 L51.5666675,88.3518507 L54.3829105,120.452368 Z M41.7403479,124.143037 L26.7533833,124.143037 C24.5819896,124.143037 22.7260818,122.524679 22.4355758,120.378555 L17.8957255,86.7528683 C17.8244867,86.2251026 17.9854678,85.6927236 18.3370355,85.292286 C18.6876782,84.8909257 19.1956011,84.6611815 19.729429,84.6611815 L38.6002925,84.6611815 C39.5597025,84.6611815 40.3599818,85.391934 40.4432478,86.345972 L43.5833033,122.137158 C43.628637,122.652929 43.4547035,123.163164 43.1040609,123.544226 C42.7543434,123.92621 42.259373,124.143037 41.7403479,124.143037 L41.7403479,124.143037 Z M21.845312,88.3518507 L26.1029829,119.88585 C26.1455411,120.203248 26.4314212,120.452368 26.7533833,120.452368 L39.7206835,120.452368 L36.9044405,88.3518507 L21.845312,88.3518507 Z M144.021594,77.4772941 L125.208091,77.4772941 C124.689066,77.4772941 124.194096,77.2604673 123.843453,76.878483 C123.492811,76.4974214 123.319802,75.9862638 123.364211,75.4714154 L126.504266,39.6793063 C126.587532,38.726191 127.387812,37.9945159 128.347222,37.9945159 L148.852875,37.9945159 C149.386703,37.9945159 149.894626,38.22426 150.246194,38.6256203 C150.597762,39.0260579 150.758743,39.5584369 150.687504,40.0862026 L145.855297,75.8783117 C145.732248,76.7935976 144.947697,77.4772941 144.021594,77.4772941 L144.021594,77.4772941 Z M127.227756,73.786625 L142.403457,73.786625 L146.737917,41.685185 L130.043999,41.685185 L127.227756,73.786625 Z M114.261381,77.4772941 L86.8798012,77.4772941 C85.8584043,77.4772941 85.0294444,76.6505842 85.0294444,75.6319595 L85.0294444,39.8398504 C85.0294444,38.8212258 85.8584043,37.9945159 86.8798012,37.9945159 L117.400511,37.9945159 C117.919536,37.9945159 118.414506,38.2113427 118.765149,38.593327 C119.115792,38.9743885 119.2888,39.4855462 119.244391,40.0003946 L116.104336,75.7925036 C116.02107,76.7456189 115.220791,77.4772941 114.261381,77.4772941 Z M88.730158,73.786625 L112.565529,73.786625 L115.381772,41.685185 L88.730158,41.685185 L88.730158,73.786625 Z M75.9756488,77.4772941 L48.5931442,77.4772941 C47.6337342,77.4772941 46.8334549,76.7465416 46.7501889,75.7925036 L43.6101334,40.0003946 C43.5647997,39.4846235 43.7387332,38.9743885 44.0893758,38.593327 C44.4400184,38.2113427 44.9349889,37.9945159 45.4540139,37.9945159 L75.9756488,37.9945159 C76.9970457,37.9945159 77.8260056,38.8212258 77.8260056,39.8398504 L77.8260056,75.6319595 C77.8260056,76.6505842 76.9970457,77.4772941 75.9756488,77.4772941 Z M50.2889962,73.786625 L74.125292,73.786625 L74.125292,41.685185 L47.4727532,41.685185 L50.2889962,73.786625 Z M37.6464336,77.4772941 L18.2611709,77.4772941 C17.3350674,77.4772941 16.5505161,76.7935976 16.4274674,75.8783117 L11.5952607,40.0862026 C11.5240219,39.5584369 11.685003,39.0260579 12.0365708,38.6256203 C12.3872134,38.22426 12.8951363,37.9945159 13.4289642,37.9945159 L34.5063781,37.9945159 C35.4657881,37.9945159 36.2660674,38.7252684 36.3493335,39.6793063 L39.4893889,75.4714154 C39.5347227,75.9871864 39.3607891,76.4974214 39.0101465,76.878483 C38.6604291,77.2595446 38.1645335,77.4772941 37.6464336,77.4772941 Z M19.8783827,73.786625 L35.6267692,73.786625 L32.8105262,41.685185 L15.5448472,41.685185 L19.8783827,73.786625 Z" id="Shape" fill="#3762CC"></path>
                        <path d="M142.322041,161.536897 L19.7951167,161.536897 C15.7687404,161.536897 12.4926837,158.269732 12.4926837,154.254284 C12.4926837,150.238836 15.7687404,146.971671 19.7951167,146.971671 L142.322966,146.971671 C145.336272,146.971671 147.787995,144.2904 147.787995,140.994632 C147.787995,137.698865 145.336272,135.017594 142.322966,135.017594 L135.531232,135.017594 C134.509835,135.017594 133.680875,134.190884 133.680875,133.172259 C133.680875,132.153634 134.509835,131.326925 135.531232,131.326925 C140.678924,131.326925 145.251156,127.862309 146.6491,122.90205 C146.788802,122.406577 147.130193,121.9923 147.589082,121.757942 C148.04982,121.524507 148.585499,121.491291 149.070292,121.669366 C157.039779,124.591453 162.393786,132.358467 162.393786,140.994632 C162.391936,152.322218 153.389025,161.536897 142.322041,161.536897 L142.322041,161.536897 Z M19.7951167,150.66234 C17.8096839,150.66234 16.1933972,152.27424 16.1933972,154.254284 C16.1933972,156.234328 17.8096839,157.846227 19.7951167,157.846227 L142.322966,157.846227 C151.349006,157.846227 158.692147,150.286814 158.692147,140.994632 C158.692147,134.539652 155.066373,128.681637 149.503276,125.875806 C148.481879,128.202773 146.90445,130.204038 144.959725,131.735666 C148.732602,132.933288 151.488708,136.631339 151.488708,140.995555 C151.488708,146.325804 147.377216,150.663263 142.322966,150.663263 L19.7951167,150.663263 L19.7951167,150.66234 Z" id="Shape" fill="#3762CC"></path>
                        <ellipse id="Oval" fill="#6BDDDD" cx="159.0946" cy="81.1356699" rx="36.1605971" ry="36.0624506"></ellipse>
                        <path d="M159.0946,107.971448 C144.256589,107.971448 132.185787,95.932485 132.185787,81.1356699 C132.185787,66.3388547 144.256589,54.299892 159.0946,54.299892 C173.932611,54.299892 186.003413,66.3388547 186.003413,81.1356699 C186.003413,95.932485 173.932611,107.971448 159.0946,107.971448 Z" id="Path" fill="#FFEA92"></path>
                        <path d="M159.0946,119.043455 C138.135609,119.043455 121.083646,102.037774 121.083646,81.1356699 C121.083646,60.2326427 138.135609,43.2278847 159.0946,43.2278847 C180.053591,43.2278847 197.105554,60.2335653 197.105554,81.1356699 C197.105554,102.037774 180.053591,119.043455 159.0946,119.043455 Z M159.0946,46.9185538 C140.176552,46.9185538 124.78436,62.2680467 124.78436,81.1356699 C124.78436,100.003293 140.176552,115.352786 159.0946,115.352786 C178.012647,115.352786 193.40484,100.003293 193.40484,81.1356699 C193.40484,62.2680467 178.012647,46.9185538 159.0946,46.9185538 Z" id="Shape" fill="#3762CC"></path>
                        <path d="M151.169522,98.1487318 C149.05734,98.1487318 147.062655,97.2057659 145.686915,95.5560368 L135.835615,83.7449729 C134.364582,81.9817558 134.606053,79.3641487 136.374069,77.8980304 C138.140235,76.4319121 140.766816,76.6718056 142.236925,78.4350227 L151.155644,89.1278138 L170.7648,64.8219897 C172.206228,63.0347832 174.827258,62.7533697 176.618404,64.1899626 C178.409549,65.6274782 178.693579,68.2413946 177.252151,70.0276785 L156.730769,95.4646927 C155.368907,97.1540965 153.36312,98.1321238 151.227808,98.1496545 C151.207454,98.1487318 151.188951,98.1487318 151.169522,98.1487318 L151.169522,98.1487318 Z" id="Path" fill="#F9A7A7"></path>
                    </g>
                </g>
            </g>
        </g>
    </g>
</svg>