<?xml version="1.0" encoding="UTF-8"?>
<svg width="214px" height="291px" viewBox="0 0 214 291" version="1.1" xmlns="http://www.w3.org/2000/svg" xmlns:xlink="http://www.w3.org/1999/xlink">
    <!-- Generator: Sketch 60 (88103) - https://sketch.com -->
    <title>id5</title>
    <desc>Created with Sketch.</desc>
    <g id="Page-1" stroke="none" stroke-width="1" fill="none" fill-rule="evenodd">
        <g id="module1" transform="translate(-1961.000000, -5467.000000)">
            <g id="Payment" transform="translate(1888.789141, 5400.678415)">
                <g id="Checkout">
                    <g id="Group-2" fill-rule="nonzero">
                        <polygon id="Path" fill="#424A60" transform="translate(178.790726, 206.700333) rotate(-315.000000) translate(-178.790726, -206.700333) " points="160.451496 80.6720399 52.7624318 188.358158 197.136869 332.728626 304.819019 225.042516"></polygon>
                        <path d="M242.233285,46.2981139 L226.919187,31.0060515 C220.729998,24.8257683 210.680711,24.8383647 204.482925,31.0341744 L119.216759,116.171366 C113.012058,122.367185 112.999479,132.402049 119.188668,138.582332 L134.502766,153.874394 L242.233285,46.2981139 Z" id="Path" fill="#E7ECED" transform="translate(178.394139, 90.126730) rotate(-315.000000) translate(-178.394139, -90.126730) "></path>
                        <path d="M241.604594,283.222446 L218.616178,260.267109 L110.892575,367.84338 L133.874083,390.79182 C140.063272,396.972103 150.11256,396.959507 156.310345,390.763697 L241.569595,305.626514 C247.781204,299.437593 247.793782,289.40273 241.604594,283.222446 Z" id="Path" fill="#E7ECED" transform="translate(178.564993, 327.842957) rotate(-315.000000) translate(-178.564993, -327.842957) "></path>
                        <circle id="Oval" fill="#FFFFFF" transform="translate(179.964980, 328.517363) rotate(-315.000000) translate(-179.964980, -328.517363) " cx="179.96498" cy="328.517363" r="14.0978745"></circle>
                        <path d="M172.899259,103.675281 C171.094958,103.677537 169.291523,102.989047 167.918876,101.616314 C165.166542,98.8638081 165.172126,94.4091617 167.931368,91.6497475 L182.045139,77.5350965 C184.804382,74.7756822 189.25875,74.7700988 192.011083,77.5226046 C194.763416,80.2751103 194.757833,84.7297567 191.99859,87.489171 L177.884819,101.603822 C176.508727,102.98 174.70356,103.673014 172.899259,103.675281 Z" id="Path" fill="#424A60" transform="translate(179.964979, 89.568578) rotate(-315.000000) translate(-179.964979, -89.568578) "></path>
                    </g>
                </g>
                <g id="credit-card" transform="translate(72.626503, 128.250752)">
                    <path d="M200.988464,152.701435 L11.8025644,152.701435 C5.27941878,152.701435 0,147.465957 0,141.005232 L0,11.6962027 C0,5.23547776 5.27941878,0 11.8025644,0 L200.988464,0 C207.50794,0 212.791028,5.23547776 212.791028,11.6962027 L212.791028,141.005232 C212.791028,147.465957 207.50794,152.701435 200.988464,152.701435" id="XMLID_130_" fill="#6BBEA1" fill-rule="nonzero"></path>
                    <rect id="XMLID_129_" fill="#498679" fill-rule="nonzero" x="17.1158001" y="106.106737" width="33.769011" height="21.2213474"></rect>
                    <rect id="XMLID_128_" fill="#498679" fill-rule="nonzero" x="63.8373084" y="106.106737" width="33.769011" height="21.2213474"></rect>
                    <rect id="XMLID_127_" fill="#498679" fill-rule="nonzero" x="115.184709" y="106.106737" width="33.769011" height="21.2213474"></rect>
                    <rect id="XMLID_126_" fill="#498679" fill-rule="nonzero" x="161.906217" y="106.106737" width="33.769011" height="21.2213474"></rect>
                    <path d="M72.1091259,63.6640423 L21.7964799,63.6640423 C19.2155792,63.6640423 17.1158001,61.6763094 17.1158001,59.2252438 L17.1158001,25.6601459 C17.1158001,23.2090803 19.2155792,21.2213474 21.7964799,21.2213474 L72.1091259,21.2213474 C74.6937563,21.2213474 76.7898058,23.2090803 76.7898058,25.6601459 L76.7898058,59.2252438 C76.7898058,61.6763094 74.6937563,63.6640423 72.1091259,63.6640423" id="XMLID_125_" fill="#F0C41B" fill-rule="nonzero"></path>
                    <path d="M72.3761909,67.816045 L21.0668258,67.816045 C16.3390614,67.816045 12.4899082,64.1477835 12.4899082,59.6422015 L12.4899082,25.2431882 C12.4899082,20.7376061 16.3390614,17.0693447 21.0668258,17.0693447 L72.3761909,17.0693447 C77.1039552,17.0693447 80.9531085,20.7376061 80.9531085,25.2431882 L80.9531085,59.6422015 C80.9531085,64.1477835 77.1039552,67.816045 72.3761909,67.816045 L72.3761909,67.816045 Z M21.0668258,24.3188733 C20.5267272,24.3188733 20.0969304,24.7320964 20.0969304,25.2431882 L20.0969304,59.6422015 C20.0969304,60.1532933 20.5267272,60.5665164 21.0668258,60.5665164 L72.3761909,60.5665164 C72.912486,60.5665164 73.3460862,60.1532933 73.3460862,59.6422015 L73.3460862,25.2431882 C73.3460862,24.7320964 72.912486,24.3188733 72.3761909,24.3188733 L21.0668258,24.3188733 Z" id="XMLID_122_" fill="#F3D55C" fill-rule="nonzero"></path>
                    <path d="M76.7898058,25.6601459 C76.7898058,23.2055434 74.6320122,21.2213474 71.9712455,21.2213474 L53.752864,21.2213474 L43.2134632,21.2213474 C40.5488569,21.2213474 38.3949029,23.2055434 38.3949029,25.6601459 L38.3949029,35.3689124 L38.3949029,59.2252438 C38.3949029,61.6763094 40.5488569,63.6640423 43.2134632,63.6640423 L48.9343037,63.6640423 C51.5950705,63.6640423 53.752864,61.6763094 53.752864,59.2252438 L53.752864,39.8077109 C53.752864,37.3566452 55.9068181,35.3689124 58.5714243,35.3689124 L71.9712455,35.3689124 C74.6320122,35.3689124 76.7898058,33.3811795 76.7898058,30.9301139 L76.7898058,25.6601459 Z" id="XMLID_121_" fill="#F0C41B" fill-rule="nonzero"></path>
                    <path d="M51.8209759,67.816045 L46.4792272,67.816045 C42.0229899,67.816045 38.3949029,64.1477835 38.3949029,59.6422015 L38.3949029,25.2431882 C38.3949029,20.7376061 42.0229899,17.0693447 46.4792272,17.0693447 L73.3313733,17.0693447 C77.7876107,17.0693447 81.4156977,20.7376061 81.4156977,25.2431882 L81.4156977,30.644087 C81.4156977,35.149669 77.7876107,38.8179305 73.3313733,38.8179305 L60.8194922,38.8179305 C60.3104128,38.8179305 59.9053003,39.2311537 59.9053003,39.7422454 L59.9053003,59.6422015 C59.9053003,64.1477835 56.2772133,67.816045 51.8209759,67.816045 L51.8209759,67.816045 Z M46.4792272,24.3188733 C45.9701478,24.3188733 45.5650354,24.7320964 45.5650354,25.2431882 L45.5650354,59.6422015 C45.5650354,60.1532933 45.9701478,60.5665164 46.4792272,60.5665164 L51.8209759,60.5665164 C52.3264703,60.5665164 52.7351678,60.1532933 52.7351678,59.6422015 L52.7351678,39.7422454 C52.7351678,35.2366634 56.3632548,31.5684019 60.8194922,31.5684019 L73.3313733,31.5684019 C73.8368677,31.5684019 74.2455652,31.1551788 74.2455652,30.644087 L74.2455652,25.2431882 C74.2455652,24.7320964 73.8368677,24.3188733 73.3313733,24.3188733 L46.4792272,24.3188733 Z" id="XMLID_118_" fill="#F3D55C" fill-rule="nonzero"></path>
                    <line x1="55.510703" y1="53.0533686" x2="76.7898058" y2="53.0533686" id="XMLID_117_" fill="#F0C41B" fill-rule="nonzero"></line>
                    <path d="M77.252395,54.8987031 L55.0481138,54.8987031 C53.0016192,54.8987031 51.3474002,53.0386059 51.3474002,50.7467004 C51.3474002,48.4547948 53.0016192,46.5946976 55.0481138,46.5946976 L77.252395,46.5946976 C79.2988895,46.5946976 80.9531085,48.4547948 80.9531085,50.7467004 C80.9531085,53.0386059 79.2988895,54.8987031 77.252395,54.8987031" id="XMLID_116_" fill="#F3D55C" fill-rule="nonzero"></path>
                    <line x1="38.3949029" y1="35.9840239" x2="17.1158001" y2="35.9840239" id="XMLID_115_" fill="#F0C41B" fill-rule="nonzero"></line>
                    <path d="M38.8574921,42.4426948 L16.6532109,42.4426948 C14.6067163,42.4426948 12.9524974,40.5825976 12.9524974,38.2906921 C12.9524974,35.9987866 14.6067163,34.1386893 16.6532109,34.1386893 L38.8574921,34.1386893 C40.9039867,34.1386893 42.5582056,35.9987866 42.5582056,38.2906921 C42.5582056,40.5825976 40.9039867,42.4426948 38.8574921,42.4426948" id="XMLID_114_" fill="#F3D55C" fill-rule="nonzero"></path>
                    <line x1="38.3949029" y1="53.0533686" x2="17.1158001" y2="53.0533686" id="XMLID_113_" fill="#F0C41B" fill-rule="nonzero"></line>
                    <path d="M38.8574921,54.8987031 L16.6532109,54.8987031 C14.6067163,54.8987031 12.9524974,53.0386059 12.9524974,50.7467004 C12.9524974,48.4547948 14.6067163,46.5946976 16.6532109,46.5946976 L38.8574921,46.5946976 C40.9039867,46.5946976 42.5582056,48.4547948 42.5582056,50.7467004 C42.5582056,53.0386059 40.9039867,54.8987031 38.8574921,54.8987031" id="XMLID_112_" fill="#F3D55C" fill-rule="nonzero"></path>
                    <path d="M145.463274,17.0693447 L114.049262,17.0693447 C112.119046,17.0693447 110.558817,18.9294419 110.558817,21.2213474 C110.558817,23.5132529 112.119046,25.3733502 114.049262,25.3733502 L145.463274,25.3733502 C147.39349,25.3733502 148.95372,23.5132529 148.95372,21.2213474 C148.95372,18.9294419 147.39349,17.0693447 145.463274,17.0693447" id="XMLID_111_" fill="#498679" fill-rule="nonzero"></path>
                    <path d="M195.675228,21.2213474 C195.675228,18.9294419 194.114999,17.0693447 192.184782,17.0693447 L160.770771,17.0693447 C158.840554,17.0693447 157.280325,18.9294419 157.280325,21.2213474 C157.280325,23.5132529 158.840554,25.3733502 160.770771,25.3733502 L192.184782,25.3733502 C194.114999,25.3733502 195.675228,23.5132529 195.675228,21.2213474" id="XMLID_110_" fill="#498679" fill-rule="nonzero"></path>
                    <path d="M118.885422,34.1386893 L114.722119,34.1386893 C112.419813,34.1386893 110.558817,35.9987866 110.558817,38.2906921 C110.558817,40.5825976 112.419813,42.4426948 114.722119,42.4426948 L118.885422,42.4426948 C121.187729,42.4426948 123.048725,40.5825976 123.048725,38.2906921 C123.048725,35.9987866 121.187729,34.1386893 118.885422,34.1386893" id="XMLID_109_" fill="#498679" fill-rule="nonzero"></path>
                    <path d="M137.504637,34.1386893 L131.259683,34.1386893 C129.532953,34.1386893 128.137206,35.9987866 128.137206,38.2906921 C128.137206,40.5825976 129.532953,42.4426948 131.259683,42.4426948 L137.504637,42.4426948 C139.231367,42.4426948 140.627114,40.5825976 140.627114,38.2906921 C140.627114,35.9987866 139.231367,34.1386893 137.504637,34.1386893" id="XMLID_108_" fill="#498679" fill-rule="nonzero"></path>
                    <path d="M157.280325,34.1386893 L153.117022,34.1386893 C150.814716,34.1386893 148.95372,35.9987866 148.95372,38.2906921 C148.95372,40.5825976 150.814716,42.4426948 153.117022,42.4426948 L157.280325,42.4426948 C159.582631,42.4426948 161.443628,40.5825976 161.443628,38.2906921 C161.443628,35.9987866 159.582631,34.1386893 157.280325,34.1386893" id="XMLID_107_" fill="#498679" fill-rule="nonzero"></path>
                    <path d="M179.600254,34.1386893 L173.355299,34.1386893 C171.62857,34.1386893 170.232822,35.9987866 170.232822,38.2906921 C170.232822,40.5825976 171.62857,42.4426948 173.355299,42.4426948 L179.600254,42.4426948 C181.326983,42.4426948 182.722731,40.5825976 182.722731,38.2906921 C182.722731,35.9987866 181.326983,34.1386893 179.600254,34.1386893" id="XMLID_106_" fill="#498679" fill-rule="nonzero"></path>
                    <path d="M192.786358,35.2981165 C191.990936,36.0919586 191.511925,37.1782687 191.511925,38.2645789 C191.511925,39.350889 191.990936,40.4371992 192.786358,41.2310412 C193.616937,41.9831021 194.715587,42.4426948 195.906523,42.4426948 C197.049118,42.4426948 198.187319,41.9831021 199.026687,41.2310412 C199.817714,40.4371992 200.30112,39.350889 200.30112,38.2645789 C200.30112,37.1782687 199.817714,36.0919586 199.026687,35.2981165 C197.35674,33.7522136 194.412359,33.7522136 192.786358,35.2981165" id="XMLID_105_" fill="#498679" fill-rule="nonzero"></path>
                </g>
            </g>
        </g>
    </g>
</svg>