<?xml version="1.0" encoding="UTF-8"?>
<svg width="203px" height="291px" viewBox="0 0 203 291" version="1.1" xmlns="http://www.w3.org/2000/svg" xmlns:xlink="http://www.w3.org/1999/xlink">
    <!-- Generator: Sketch 60 (88103) - https://sketch.com -->
    <title>id6</title>
    <desc>Created with Sketch.</desc>
    <g id="Page-1" stroke="none" stroke-width="1" fill="none" fill-rule="evenodd">
        <g id="module1" transform="translate(-2389.000000, -5467.000000)">
            <g id="Receipt" transform="translate(2312.293422, 5400.678415)">
                <g>
                    <g id="Group-2" fill-rule="nonzero">
                        <polygon id="Path" fill="#424A60" transform="translate(178.291307, 206.700336) rotate(-315.000000) translate(-178.291307, -206.700336) " points="159.801673 80.8224422 52.4134126 188.207757 196.787844 332.578231 304.169201 225.192915"></polygon>
                        <path d="M241.589191,46.446591 L226.275124,31.1544978 C220.085948,24.9742022 210.050713,24.9727456 203.870237,31.1512459 L118.842065,116.050444 C112.654682,122.228944 112.656137,132.249775 118.845313,138.43007 L134.15938,153.722163 L241.589191,46.446591 Z" id="Path" fill="#E7ECED" transform="translate(177.895835, 90.120243) rotate(-315.000000) translate(-177.895835, -90.120243) "></path>
                        <path d="M240.95086,283.374709 L217.96249,260.419325 L110.539586,367.694899 L133.521048,390.643385 C139.710224,396.82368 149.745459,396.825137 155.925935,390.646637 L240.947201,305.747437 C247.141491,299.575836 247.140036,289.555005 240.95086,283.374709 Z" id="Path" fill="#E7ECED" transform="translate(178.066208, 327.849442) rotate(-315.000000) translate(-178.066208, -327.849442) "></path>
                        <circle id="Oval" fill="#FFFFFF" transform="translate(179.462285, 328.517363) rotate(-315.000000) translate(-179.462285, -328.517363) " cx="179.462285" cy="328.517363" r="14.0781488"></circle>
                        <path d="M172.426133,103.645706 C170.624356,103.645706 168.822478,102.955397 167.44983,101.582664 C164.697497,98.8301586 164.696851,94.3817416 167.448386,91.6300349 L181.522732,77.5548091 C184.274266,74.8031025 188.722405,74.8037481 191.474739,77.5562536 C194.227073,80.3087591 194.227718,84.7571761 191.476184,87.5088827 L177.401838,101.584109 C176.029589,102.956443 174.227911,103.645706 172.426133,103.645706 Z" id="Path" fill="#424A60" transform="translate(179.462285, 89.568579) rotate(-315.000000) translate(-179.462285, -89.568579) "></path>
                    </g>
                    <g id="receipt" transform="translate(77.497903, 113.026742)" fill-rule="nonzero">
                        <path d="M191.159904,0 L10.4269038,0 C4.69210673,0 0,4.77480317 0,10.6106737 C0,16.4465443 4.69210673,21.2213474 10.4269038,21.2213474 L10.4269038,10.6106737 L191.159904,10.6106737 L191.159904,21.2213474 C196.894701,21.2213474 201.586808,16.4465443 201.586808,10.6106737 C201.586808,4.77480317 196.894701,0 191.159904,0 Z" id="Path" fill="#222837"></path>
                        <polygon id="Path" fill="#F0EDE0" points="17.5470298 177.100858 38.3586233 197.912131 59.1702168 177.100858 79.9818103 197.912131 100.793404 177.100858 121.604997 197.912131 142.416591 177.100858 163.228184 197.912131 184.039778 177.100858 190.976976 184.037949 190.976976 10.6106737 10.609832 10.6106737 10.609832 184.037949"></polygon>
                        <path d="M149.677323,141.629427 L97.5778921,141.629427 C95.6606331,141.629427 94.1045967,140.082806 94.1045967,138.169425 C94.1045967,136.256044 95.6606331,134.709423 97.5778921,134.709423 L149.677323,134.709423 C151.594582,134.709423 153.150618,136.256044 153.150618,138.169425 C153.150618,140.082806 151.594582,141.629427 149.677323,141.629427 Z" id="Path" fill="#D4C3A5"></path>
                        <path d="M167.220178,141.629427 C166.320649,141.629427 165.42112,141.246433 164.763771,140.619716 C164.14102,139.958181 163.76045,139.052922 163.76045,138.147664 C163.76045,137.204106 164.14102,136.333665 164.763771,135.675612 C166.078468,134.38736 168.361888,134.38736 169.676585,135.675612 C170.299336,136.333665 170.679906,137.204106 170.679906,138.147664 C170.679906,139.052922 170.299336,139.958181 169.676585,140.619716 C169.019236,141.246433 168.119707,141.629427 167.220178,141.629427 Z" id="Path" fill="#D4C3A5"></path>
                        <path d="M167.20661,94.1120625 L115.10718,94.1120625 C113.189921,94.1120625 111.633884,92.5654415 111.633884,90.6520602 C111.633884,88.7386789 113.189921,87.1920579 115.10718,87.1920579 L167.20661,87.1920579 C169.12387,87.1920579 170.679906,88.7386789 170.679906,90.6520602 C170.679906,92.5654415 169.12387,94.1120625 167.20661,94.1120625 Z" id="Path" fill="#D4C3A5"></path>
                        <path d="M167.220178,117.640078 L132.6229,117.640078 C130.71313,117.640078 129.163172,116.093457 129.163172,114.180076 C129.163172,112.266695 130.71313,110.720074 132.6229,110.720074 L167.220178,110.720074 C169.129948,110.720074 170.679906,112.266695 170.679906,114.180076 C170.679906,116.093457 169.129948,117.640078 167.220178,117.640078 Z" id="Path" fill="#D4C3A5"></path>
                        <path d="M104.137807,117.640078 L97.4490003,117.640078 C95.6028895,117.640078 94.1045967,116.093457 94.1045967,114.180076 C94.1045967,112.266695 95.6028895,110.720074 97.4490003,110.720074 L104.137807,110.720074 C105.983918,110.720074 107.482211,112.266695 107.482211,114.180076 C107.482211,116.093457 105.983918,117.640078 104.137807,117.640078 Z" id="Path" fill="#D4C3A5"></path>
                        <path d="M149.677323,70.1227132 L97.5778921,70.1227132 C95.6606331,70.1227132 94.1045967,68.5760922 94.1045967,66.6627109 C94.1045967,64.7493297 95.6606331,63.2027086 97.5778921,63.2027086 L149.677323,63.2027086 C151.594582,63.2027086 153.150618,64.7493297 153.150618,66.6627109 C153.150618,68.5760922 151.594582,70.1227132 149.677323,70.1227132 Z" id="Path" fill="#D4C3A5"></path>
                        <path d="M167.220178,70.1227132 C166.320649,70.1227132 165.42112,69.7397193 164.763771,69.1130019 C164.14102,68.4514668 163.76045,67.5462084 163.76045,66.6409499 C163.76045,65.697392 164.14102,64.8269512 164.763771,64.1688979 C166.043871,62.8806455 168.396485,62.8806455 169.676585,64.1688979 C170.299336,64.8269512 170.679906,65.7356914 170.679906,66.6409499 C170.679906,67.5462084 170.299336,68.4514668 169.676585,69.1130019 C169.019236,69.7397193 168.154305,70.1227132 167.220178,70.1227132 Z" id="Path" fill="#D4C3A5"></path>
                        <path d="M101.254701,94.1120625 C100.355172,94.1120625 99.4556424,93.7290685 98.7982941,93.1023511 C98.1755431,92.4408161 97.7949731,91.5703753 97.7949731,90.6302992 C97.7949731,89.6867413 98.1755431,88.8163005 98.7982941,88.1582472 C100.112991,86.8699948 102.431008,86.8699948 103.711108,88.1582472 C104.333859,88.8163005 104.714429,89.6867413 104.714429,90.6302992 C104.714429,91.5703753 104.333859,92.4408161 103.711108,93.1023511 C103.053759,93.7290685 102.15423,94.1120625 101.254701,94.1120625 Z" id="Path" fill="#D4C3A5"></path>
                        <path d="M117.861394,117.640078 C116.961865,117.640078 116.062336,117.257084 115.404988,116.630367 C114.782237,115.968832 114.401667,115.063573 114.401667,114.158315 C114.401667,113.253056 114.782237,112.344316 115.404988,111.686263 C116.719684,110.39801 119.037702,110.39801 120.317801,111.686263 C120.940552,112.31298 121.321122,113.214757 121.321122,114.158315 C121.321122,115.098391 120.940552,115.968832 120.317801,116.630367 C119.660453,117.257084 118.760924,117.640078 117.861394,117.640078 Z" id="Path" fill="#D4C3A5"></path>
                        <path d="M62.6441384,87.5841915 C62.6441384,89.5103286 64.2147626,91.0672605 66.1499959,91.0672605 C68.0852293,91.0672605 69.6558535,89.5103286 69.6558535,87.5841915 C69.6558535,79.176063 63.6222727,72.1402636 55.6324234,70.5206365 L55.6324234,66.6857776 C55.6324234,64.7596405 54.0617992,63.2027086 52.1265658,63.2027086 C50.1913325,63.2027086 48.6207083,64.7596405 48.6207083,66.6857776 L48.6207083,70.5310858 C44.7958178,71.3043271 41.3109954,73.321024 38.7412018,76.3408448 C36.5991229,78.8556206 35.6069652,82.0739764 35.9575509,85.4072734 C36.3151484,88.8171979 38.0821006,91.9798245 40.8061519,94.0835982 L48.6207083,100.12324 L48.6207083,119.064169 C44.5504077,117.622178 41.6089933,113.790802 41.6089933,109.255847 C41.6089933,107.32971 40.0383691,105.772778 38.1031357,105.772778 C36.1679024,105.772778 34.5972782,107.32971 34.5972782,109.255847 C34.5972782,117.663975 40.630859,124.699775 48.6207083,126.319402 L48.6207083,129.381019 C48.6207083,131.307156 50.1913325,132.864088 52.1265658,132.864088 C54.0617992,132.864088 55.6324234,131.307156 55.6324234,129.381019 L55.6324234,126.308952 C59.4573139,125.535711 62.9421363,123.519014 65.5154357,120.499193 C67.6575147,117.977451 68.6461665,114.759096 68.2955807,111.425799 C67.9344774,108.019357 66.1710311,104.860214 63.4469798,102.759923 L55.6324234,96.7202814 L55.6324234,77.7793523 C59.7027239,79.2178598 62.6441384,83.0492357 62.6441384,87.5841915 Z M59.1417867,108.256206 C60.365331,109.200118 61.1611607,110.624693 61.3224301,112.150277 C61.473182,113.578335 61.0594908,114.947181 60.1619913,115.999068 C58.9419529,117.43061 57.364317,118.433733 55.6324234,119.046754 L55.6324234,105.539412 L59.1417867,108.256206 Z M45.1113449,88.5873153 C43.8842948,87.6399206 43.091971,86.2153454 42.9307015,84.6862781 C42.7834555,83.2617029 43.1936409,81.8963398 44.0911404,80.8409699 C45.3111788,79.4094286 46.8888147,78.4063047 48.6207083,77.7932846 L48.6207083,91.297143 L45.1113449,88.5873153 Z" id="Shape" fill="#24AE5F"></path>
                        <g id="Group" transform="translate(17.529288, 30.909354)" fill="#A5A5A4">
                            <path d="M3.46933818,6.92000459 C2.56731025,6.92000459 1.66528232,6.53940434 1.00610807,5.91660393 C0.381627199,5.25920349 0,4.35960289 0,3.4600023 C0,2.5604017 0.381627199,1.6573411 1.00610807,1.00340067 C2.32445658,-0.276800184 4.64891316,-0.276800184 5.93256828,1.00340067 C6.55704915,1.6573411 6.93867635,2.5604017 6.93867635,3.4600023 C6.93867635,4.35960289 6.55704915,5.25920349 5.93256828,5.91660393 C5.27339403,6.53940434 4.3713661,6.92000459 3.46933818,6.92000459 Z" id="Path"></path>
                            <path d="M146.301991,3.4600023 C146.301991,1.55700103 147.8285,0 149.771329,0 L149.771329,0 C151.679465,0 153.240667,1.55700103 153.240667,3.4600023 L153.240667,3.4600023 C153.240667,5.36300356 151.679465,6.92000459 149.771329,6.92000459 L149.771329,6.92000459 C147.8285,6.92000459 146.301991,5.36300356 146.301991,3.4600023 Z M132.979732,3.4600023 C132.979732,1.55700103 134.540934,0 136.44907,0 L136.44907,0 C138.3919,0 139.918409,1.55700103 139.918409,3.4600023 L139.918409,3.4600023 C139.918409,5.36300356 138.3919,6.92000459 136.44907,6.92000459 L136.44907,6.92000459 C134.540934,6.92000459 132.979732,5.36300356 132.979732,3.4600023 Z M119.692167,3.4600023 C119.692167,1.55700103 121.253369,0 123.161505,0 L123.161505,0 C125.069641,0 126.630843,1.55700103 126.630843,3.4600023 L126.630843,3.4600023 C126.630843,5.36300356 125.069641,6.92000459 123.161505,6.92000459 L123.161505,6.92000459 C121.253369,6.92000459 119.692167,5.36300356 119.692167,3.4600023 Z M106.404602,3.4600023 C106.404602,1.55700103 107.931111,0 109.87394,0 L109.87394,0 C111.782076,0 113.343278,1.55700103 113.343278,3.4600023 L113.343278,3.4600023 C113.343278,5.36300356 111.782076,6.92000459 109.87394,6.92000459 L109.87394,6.92000459 C107.931111,6.92000459 106.404602,5.36300356 106.404602,3.4600023 Z M93.0823433,3.4600023 C93.0823433,1.55700103 94.6435454,0 96.5516814,0 L96.5516814,0 C98.4945108,0 100.02102,1.55700103 100.02102,3.4600023 L100.02102,3.4600023 C100.02102,5.36300356 98.4945108,6.92000459 96.5516814,6.92000459 L96.5516814,6.92000459 C94.6435454,6.92000459 93.0823433,5.36300356 93.0823433,3.4600023 Z M79.794778,3.4600023 C79.794778,1.55700103 81.3559802,0 83.2641162,0 L83.2641162,0 C85.1722522,0 86.7334544,1.55700103 86.7334544,3.4600023 L86.7334544,3.4600023 C86.7334544,5.36300356 85.1722522,6.92000459 83.2641162,6.92000459 L83.2641162,6.92000459 C81.3559802,6.92000459 79.794778,5.36300356 79.794778,3.4600023 Z M66.5072128,3.4600023 C66.5072128,1.55700103 68.0337216,0 69.976551,0 L69.976551,0 C71.884687,0 73.4458892,1.55700103 73.4458892,3.4600023 L73.4458892,3.4600023 C73.4458892,5.36300356 71.884687,6.92000459 69.976551,6.92000459 L69.976551,6.92000459 C68.0337216,6.92000459 66.5072128,5.36300356 66.5072128,3.4600023 Z M53.1849542,3.4600023 C53.1849542,1.55700103 54.7461564,0 56.6542924,0 L56.6542924,0 C58.5971218,0 60.1236306,1.55700103 60.1236306,3.4600023 L60.1236306,3.4600023 C60.1236306,5.36300356 58.5971218,6.92000459 56.6542924,6.92000459 L56.6542924,6.92000459 C54.7461564,6.92000459 53.1849542,5.36300356 53.1849542,3.4600023 Z M39.897389,3.4600023 C39.897389,1.55700103 41.4585912,0 43.3667272,0 L43.3667272,0 C45.2748632,0 46.8360654,1.55700103 46.8360654,3.4600023 L46.8360654,3.4600023 C46.8360654,5.36300356 45.2748632,6.92000459 43.3667272,6.92000459 L43.3667272,6.92000459 C41.4585912,6.92000459 39.897389,5.36300356 39.897389,3.4600023 Z M26.6098238,3.4600023 C26.6098238,1.55700103 28.1363326,0 30.079162,0 L30.079162,0 C31.987298,0 33.5485002,1.55700103 33.5485002,3.4600023 L33.5485002,3.4600023 C33.5485002,5.36300356 31.987298,6.92000459 30.079162,6.92000459 L30.079162,6.92000459 C28.1363326,6.92000459 26.6098238,5.36300356 26.6098238,3.4600023 Z M13.2875652,3.4600023 C13.2875652,1.55700103 14.8487674,0 16.7569034,0 L16.7569034,0 C18.6997328,0 20.2262416,1.55700103 20.2262416,3.4600023 L20.2262416,3.4600023 C20.2262416,5.36300356 18.6997328,6.92000459 16.7569034,6.92000459 L16.7569034,6.92000459 C14.8487674,6.92000459 13.2875652,5.36300356 13.2875652,3.4600023 Z" id="Shape"></path>
                            <path d="M163.058894,6.92000459 C162.122173,6.92000459 161.254838,6.53940434 160.595664,5.8820039 C159.971183,5.25920349 159.589556,4.35960289 159.589556,3.4600023 C159.589556,2.5604017 159.971183,1.6573411 160.595664,1.00340067 C161.844626,-0.276800184 164.203776,-0.276800184 165.522124,1.00340067 C166.146605,1.6573411 166.528232,2.5604017 166.528232,3.4600023 C166.528232,4.35960289 166.146605,5.25920349 165.522124,5.91660393 C164.86295,6.53940434 163.960922,6.92000459 163.058894,6.92000459 Z" id="Path"></path>
                        </g>
                    </g>
                </g>
            </g>
        </g>
    </g>
</svg>