<?xml version="1.0" encoding="UTF-8"?>
<svg width="303px" height="197px" viewBox="0 0 303 197" version="1.1" xmlns="http://www.w3.org/2000/svg" xmlns:xlink="http://www.w3.org/1999/xlink">
    <!-- Generator: Sketch 60 (88103) - https://sketch.com -->
    <title>id7</title>
    <desc>Created with Sketch.</desc>
    <g id="Page-1" stroke="none" stroke-width="1" fill="none" fill-rule="evenodd">
        <g id="module1" transform="translate(-3172.000000, -5526.000000)" fill-rule="nonzero">
            <g id="id7" transform="translate(3172.286785, 5526.531103)">
                <g id="online-store" transform="translate(111.869055, 0.000000)">
                    <path d="M184.555714,157.375618 L6.91219901,157.375618 L6.91219901,3.27881347 C6.91219901,1.46818641 8.38532581,0 10.2020455,0 L181.265867,0 C183.082587,0 184.555714,1.46818641 184.555714,3.27881347 L184.555714,157.375618 L184.555714,157.375618 Z" id="Path" fill="#B9785F"></path>
                    <path d="M184.555714,52.2989431 C183.881208,52.4651718 183.187697,52.5796849 182.461765,52.5796849 C177.672031,52.5796849 173.788966,48.7305668 173.788966,43.9827055 C173.788966,48.7301974 169.905901,52.5796849 165.116166,52.5796849 C160.326432,52.5796849 156.443367,48.7305668 156.443367,43.9827055 C156.443367,48.7301974 152.560674,52.5796849 147.770567,52.5796849 C142.980833,52.5796849 139.097768,48.7305668 139.097768,43.9827055 C139.097768,48.7301974 135.214703,52.5796849 130.424968,52.5796849 C125.635234,52.5796849 121.752169,48.7305668 121.752169,43.9827055 C121.752169,48.7301974 117.869104,52.5796849 113.079369,52.5796849 C108.289634,52.5796849 104.406569,48.7305668 104.406569,43.9827055 C104.406569,48.7301974 100.523877,52.5796849 95.73377,52.5796849 C90.9436628,52.5796849 87.0609704,48.7305668 87.0609704,43.9827055 C87.0609704,48.7301974 83.1779055,52.5796849 78.3881709,52.5796849 C73.5984364,52.5796849 69.7153714,48.7305668 69.7153714,43.9827055 C69.7153714,48.7301974 65.8326791,52.5796849 61.0425719,52.5796849 C56.2528373,52.5796849 52.3697723,48.7305668 52.3697723,43.9827055 C52.3697723,48.7301974 48.4867074,52.5796849 43.6969728,52.5796849 C38.9072383,52.5796849 35.0241733,48.7305668 35.0241733,43.9827055 C35.0241733,48.7301974 31.1411083,52.5796849 26.3513738,52.5796849 C21.5616392,52.5796849 17.6785743,48.7305668 17.6785743,43.9827055 C17.6785743,48.7301974 13.7958819,52.5796849 9.00577473,52.5796849 C8.27984281,52.5796849 7.58633188,52.4651718 6.91219901,52.2989431 L6.91219901,58.891943 C7.60310136,58.9868781 8.28878653,59.1017606 9.00577473,59.1017606 C12.2251412,59.1017606 15.2145795,58.1080823 17.6785743,56.4136577 C20.1433143,58.1077129 23.13238,59.1013912 26.3521191,59.1013912 C29.5714855,59.1013912 32.5609238,58.1077129 35.0249186,56.4132883 C37.4889134,58.1077129 40.4783517,59.1013912 43.6977181,59.1013912 C46.9170846,59.1013912 49.9065229,58.1077129 52.3705177,56.4132883 C54.8345124,58.1077129 57.8239507,59.1013912 61.0433172,59.1013912 C64.2626836,59.1013912 67.2521219,58.1077129 69.7161167,56.4132883 C72.1801115,58.1077129 75.1695498,59.1013912 78.3889162,59.1013912 C81.6082827,59.1013912 84.597721,58.1077129 87.0617158,56.4132883 C89.5253379,58.1077129 92.5147762,59.1013912 95.7341426,59.1013912 C98.9535091,59.1013912 101.942947,58.1077129 104.406942,56.4132883 C106.870937,58.1077129 109.860375,59.1013912 113.079742,59.1013912 C116.299108,59.1013912 119.288546,58.1077129 121.752541,56.4132883 C124.216536,58.1077129 127.205974,59.1013912 130.425341,59.1013912 C133.644707,59.1013912 136.634145,58.1077129 139.09814,56.4132883 C141.562135,58.1077129 144.551573,59.1013912 147.77094,59.1013912 C150.990306,59.1013912 153.979745,58.1077129 156.443739,56.4132883 C158.907734,58.1077129 161.897172,59.1013912 165.116539,59.1013912 C168.336278,59.1013912 171.325344,58.1077129 173.789338,56.4132883 C176.253333,58.1077129 179.242771,59.1013912 182.462138,59.1013912 C183.178753,59.1013912 183.864811,58.9868781 184.555714,58.8915736 L184.555714,52.2989431 L184.555714,52.2989431 Z" id="Path" fill="#AA6455"></path>
                    <rect id="Rectangle" fill="#B4E1FA" x="22.8102567" y="65.9740583" width="92.6234667" height="59.1017606"></rect>
                    <polygon id="Path" fill="#DAF0FD" points="98.1532259 120.95244 91.6357461 120.95244 52.5327125 68.7229774 59.0501924 68.7229774"></polygon>
                    <g id="Group" transform="translate(0.000000, 35.735948)" fill="#D2555A">
                        <path d="M77.7451646,16.480899 L77.7451646,16.480899 C72.9743863,16.480899 69.1066892,12.6145838 69.1066892,7.84551013 L69.1066892,0.103603706 L86.3836399,0.103603706 L86.3836399,7.84551013 C86.3836399,12.6145838 82.5159429,16.480899 77.7451646,16.480899 Z" id="Path"></path>
                        <path d="M112.299066,16.480899 L112.299066,16.480899 C107.528288,16.480899 103.660591,12.6145838 103.660591,7.84551013 L103.660591,0.103603706 L120.937541,0.103603706 L120.937541,7.84551013 C120.93717,12.6145838 117.069844,16.480899 112.299066,16.480899 Z" id="Path"></path>
                        <path d="M43.1920056,16.480899 L43.1920056,16.480899 C38.4212272,16.480899 34.5535302,12.6145838 34.5535302,7.84551013 L34.5535302,0.103603706 L51.8304809,0.103603706 L51.8304809,7.84551013 C51.8301097,12.6145838 47.9627839,16.480899 43.1920056,16.480899 Z" id="Path"></path>
                        <path d="M8.63847535,16.480899 L8.63847535,16.480899 C3.86769704,16.480899 0,12.6145838 0,7.84551013 L0,0.103603706 L17.2769507,0.103603706 L17.2769507,7.84551013 C17.2769507,12.6145838 13.4092537,16.480899 8.63847535,16.480899 Z" id="Path"></path>
                        <path d="M146.852225,16.480899 L146.852225,16.480899 C142.081447,16.480899 138.21375,12.6145838 138.21375,7.84551013 L138.21375,0.103603706 L155.4907,0.103603706 L155.4907,7.84551013 C155.4907,12.6145838 151.623374,16.480899 146.852225,16.480899 Z" id="Path"></path>
                    </g>
                    <g id="Group" transform="translate(51.841493, 35.735948)" fill="#C7CFE2">
                        <path d="M8.73499768,16.480899 L8.73499768,16.480899 C3.92855252,16.480899 0.0319401667,12.6145838 0.0319401667,7.84551013 L0.0319401667,0.103603706 L17.4380552,0.103603706 L17.4380552,7.84551013 C17.4380552,12.6145838 13.5418168,16.480899 8.73499768,16.480899 Z" id="Path"></path>
                        <path d="M78.3587099,16.480899 L78.3587099,16.480899 C73.5522647,16.480899 69.6556523,12.6145838 69.6556523,7.84551013 L69.6556523,0.103603706 L87.0617674,0.103603706 L87.0617674,7.84551013 C87.0613934,12.6145838 83.165155,16.480899 78.3587099,16.480899 Z" id="Path"></path>
                    </g>
                    <path d="M182.136444,52.2294628 L182.136444,52.2294628 C177.364686,52.2294628 173.496195,48.4979506 173.496195,43.8951553 L173.496195,36.423178 L190.776693,36.423178 L190.776693,43.8951553 C190.776693,48.4979506 186.908202,52.2294628 182.136444,52.2294628 Z" id="Path" fill="#D2555A"></path>
                    <g id="Group" transform="translate(17.280498, 35.735948)" fill="#C7CFE2">
                        <path d="M147.35678,16.480899 L147.35678,16.480899 C142.576208,16.480899 138.70057,12.6145838 138.70057,7.84551013 L138.70057,0.103603706 L156.012989,0.103603706 L156.012989,7.84551013 C156.012617,12.6145838 152.13698,16.480899 147.35678,16.480899 Z" id="Path"></path>
                        <path d="M8.85891782,16.480899 L8.85891782,16.480899 C4.07834553,16.480899 0.202708465,12.6145838 0.202708465,7.84551013 L0.202708465,0.103603706 L17.5151272,0.103603706 L17.5151272,7.84551013 C17.5151272,12.6145838 13.6394901,16.480899 8.85891782,16.480899 Z" id="Path"></path>
                        <path d="M78.1078488,16.480899 L78.1078488,16.480899 C73.3272765,16.480899 69.4516395,12.6145838 69.4516395,7.84551013 L69.4516395,0.103603706 L86.7640582,0.103603706 L86.7640582,7.84551013 C86.7640582,12.6145838 82.8884211,16.480899 78.1078488,16.480899 Z" id="Path"></path>
                    </g>
                    <g id="Group" transform="translate(0.000000, 9.621217)" fill="#FF6464">
                        <polygon id="Path" points="86.3836399 26.0514676 69.1070604 26.0514676 70.8942928 0.0761373155 86.9797552 0.0761373155"></polygon>
                        <polygon id="Path" points="120.93717 26.0514676 103.660591 26.0514676 103.064475 0.0761373155 119.149938 0.0761373155"></polygon>
                        <polygon id="Path" points="51.8301097 26.0514676 34.5535302 26.0514676 38.7237391 0.0761373155 54.8088303 0.0761373155"></polygon>
                        <polygon id="Path" points="17.2769507 26.0514676 0 26.0514676 6.55318533 0.0761373155 22.6386478 0.0761373155"></polygon>
                        <polygon id="Path" points="155.4907 26.0514676 138.21375 26.0514676 135.2354 0.0761373155 151.32012 0.0761373155"></polygon>
                    </g>
                    <g id="Group" transform="translate(51.841493, 9.621217)" fill="#EFF2FA">
                        <polygon id="Path" points="17.4380552 26.0514676 0.0319401667 26.0514676 3.03293001 0.0761373155 19.2386491 0.0761373155"></polygon>
                        <polygon id="Path" points="87.0613934 26.0514676 69.6556523 26.0514676 67.8550584 0.0761373155 84.0607775 0.0761373155"></polygon>
                    </g>
                    <polygon id="Path" fill="#FF6464" points="190.776693 36.423178 173.368777 36.423178 167.966436 10.3084466 184.173832 10.3084466"></polygon>
                    <g id="Group" transform="translate(17.280498, 9.621217)" fill="#EFF2FA">
                        <polygon id="Path" points="156.012617 26.0514676 138.70057 26.0514676 134.521429 0.0761373155 150.639913 0.0761373155"></polygon>
                        <polygon id="Path" points="17.5151272 26.0514676 0.203080407 26.0514676 5.57578458 0.0761373155 21.6938971 0.0761373155"></polygon>
                        <polygon id="Path" points="86.7640582 26.0514676 69.4516395 26.0514676 70.0489785 0.0761373155 86.1667191 0.0761373155"></polygon>
                    </g>
                    <path d="M187.486919,160.811767 L3.28940108,160.811767 C1.47292733,160.811767 0,159.426993 0,157.719233 L0,157.719233 C0,156.011473 1.47292733,154.626699 3.28940108,154.626699 L187.487292,154.626699 C189.303765,154.626699 190.776693,156.011473 190.776693,157.719233 L190.776693,157.719233 C190.776693,159.426993 189.303393,160.811767 187.486919,160.811767 Z" id="Path" fill="#C7CFE2"></path>
                    <g id="Group" opacity="0.97" transform="translate(6.912199, 147.754401)" fill="#AFB9D2">
                        <rect id="Rectangle" x="0.0386182487" y="0.15173858" width="177.566278" height="6.57932084"></rect>
                    </g>
                    <rect id="Rectangle" fill="#AA6455" x="6.91219901" y="134.697036" width="177.643515" height="13.0573657"></rect>
                    <g id="Group" transform="translate(20.045377, 61.850680)" fill="#5B5D6E">
                        <path d="M92.1091478,6.76136989 L92.1091478,59.5140984 L6.72241394,59.5140984 L6.72241394,6.76136989 L92.1091478,6.76136989 L92.1091478,6.76136989 Z M95.3934104,0.16732551 L3.4381514,0.16732551 C1.62451525,0.16732551 0.15388885,1.64374904 0.15388885,3.46453445 L0.15388885,62.8116809 C0.15388885,64.6324663 1.62451525,66.1088898 3.4381514,66.1088898 L95.3930384,66.1088898 C97.2066745,66.1088898 98.6773009,64.6324663 98.6773009,62.8116809 L98.6773009,3.46453445 C98.6773009,1.64374904 97.2070465,0.16732551 95.3934104,0.16732551 L95.3934104,0.16732551 Z" id="Shape"></path>
                        <path d="M147.939007,0.16732551 L115.09787,0.16732551 C113.284233,0.16732551 111.813607,1.64374904 111.813607,3.46453445 L111.813607,85.8910229 L151.222897,85.8910229 L151.222897,3.46453445 C151.222897,1.64374904 149.752643,0.16732551 147.939007,0.16732551 Z" id="Path"></path>
                    </g>
                    <rect id="Rectangle" fill="#B4E1FA" x="138.24398" y="68.7229774" width="26.2663562" height="52.2294628"></rect>
                    <rect id="Rectangle" fill="#A0D2F0" x="26.2663562" y="69.4102072" width="85.7112677" height="6.18506797"></rect>
                    <rect id="SVGCleanerId_0" fill="#A0D2F0" x="138.24398" y="69.4102072" width="26.2663562" height="6.18506797"></rect>
                    <polygon id="Path" fill="#A0D2F0" points="85.7112677 120.95244 72.5781826 120.95244 33.1785552 68.7229774 46.3116404 68.7229774"></polygon>
                    <polygon id="Path" fill="#B4E1FA" points="64.2834508 75.5952751 59.2476374 69.4102072 52.5327125 69.4102072 57.5689062 75.5952751"></polygon>
                    <polygon id="Path" fill="#DAF0FD" points="164.510336 95.6965599 144.810569 69.4102072 138.24398 69.4102072 164.510336 104.458926"></polygon>
                    <polygon id="Path" fill="#B4E1FA" points="149.994719 75.5952751 144.958742 69.4102072 138.24398 69.4102072 143.279957 75.5952751"></polygon>
                    <rect id="SVGCleanerId_0_1_" fill="#A0D2F0" x="138.24398" y="69.4102072" width="26.2663562" height="6.18506797"></rect>
                    <polygon id="Path" fill="#DAF0FD" points="164.510336 95.6965599 144.810569 69.4102072 138.24398 69.4102072 164.510336 104.458926"></polygon>
                    <polygon id="Path" fill="#A0D2F0" points="138.24398 77.6569645 138.24398 95.2498972 157.943747 121.63967 164.510336 121.63967 164.510336 112.84283"></polygon>
                </g>
                <g id="PickUp" transform="translate(0.000000, 25.969602)">
                    <g id="Group-7" transform="translate(0.000000, 86.977530)">
                        <path d="M82.2650556,39.0142564 C82.2650556,43.2512164 79.0502521,46.9363242 77.7910596,50.7592999 C76.4862889,54.7216667 76.8455064,59.5569425 74.4113251,62.8551064 C71.9528096,66.1860234 67.1609255,67.3323829 63.782736,69.7564953 C60.4377645,72.1566141 57.8649174,76.309787 53.8463165,77.5962994 C49.9690851,78.8374906 45.4294257,77.0097899 41.1323347,77.0097899 C36.8352436,77.0097899 32.2955842,78.8378715 28.4183528,77.5962994 C24.3997519,76.309787 21.8269049,72.1566141 18.4819333,69.7564953 C15.1037438,67.3320021 10.3118597,66.1860234 7.85334424,62.8551064 C5.41916288,59.5569425 5.77838038,54.7216667 4.47360973,50.7592999 C3.21480347,46.9363242 -1.42108547e-13,43.2512164 -1.42108547e-13,39.0142564 C-1.42108547e-13,34.7772965 3.21480347,31.0921887 4.47399598,27.269213 C5.77876663,23.3068462 5.41954914,18.4715703 7.8537305,15.1734065 C10.3126322,11.8424894 15.1041301,10.6961299 18.4823196,8.27201758 C21.8272911,5.87189878 24.4001382,1.7187259 28.4187391,0.432213474 C32.2959705,-0.808977761 36.8356299,1.01872299 41.1327209,1.01872299 C45.4298119,1.01872299 49.9694713,-0.809358611 53.8467028,0.432213474 C57.8653037,1.7187259 60.4381507,5.87189878 63.7831222,8.27201758 C67.1613117,10.6965108 71.9531959,11.8424894 74.4117113,15.1737873 C76.8458927,18.4719512 76.4866752,23.307227 77.7914459,27.2695939 C79.0502521,31.0925695 82.2650556,34.7772965 82.2650556,39.0142564 L82.2650556,39.0142564 Z" id="Path" fill="#C05939"></path>
                        <path d="M77.7914459,27.269213 C76.4866752,23.3068462 76.8458927,18.4715703 74.4117113,15.1734065 C72.5391453,12.6365624 69.3150717,11.3660457 66.3915048,9.83426564 C66.5212866,10.4177284 66.6696086,10.9916698 66.8526937,11.5477113 C68.1118862,15.3706869 71.3266897,19.0554139 71.3266897,23.2927547 C71.3266897,27.5297147 68.1118862,31.2148225 66.8526937,35.0377981 C65.547923,39.000165 65.9071405,43.8354408 63.4729592,47.1336047 C61.0140575,50.4649026 56.2225596,51.6108812 52.8443701,54.0349936 C49.4993986,56.4351124 46.9265515,60.5882852 42.9079506,61.8747977 C39.0303329,63.1159889 34.4910598,61.2882882 30.1939688,61.2882882 C25.8968777,61.2882882 21.3572183,63.1163698 17.4799869,61.8747977 C13.461386,60.5882852 10.888539,56.4351124 7.54356743,54.0349936 C6.73783873,53.4568628 5.85099639,52.9522361 4.93557116,52.4727455 C5.73125722,56.0489301 5.76138514,60.0196757 7.85450301,62.8551064 C10.3130185,66.1864043 15.1045164,67.3323829 18.4830921,69.7564953 C21.8280636,72.1566141 24.4009107,76.309787 28.4195116,77.5962994 C32.2971293,78.8374906 36.8364024,77.0097899 41.1334934,77.0097899 C45.4305845,77.0097899 49.9698576,78.8378715 53.8474753,77.5962994 C57.8660762,76.309787 60.4389232,72.1566141 63.7838948,69.7564953 C67.1624705,67.3323829 71.9539684,66.1860234 74.4124839,62.8551064 C76.8466652,59.5569425 76.4874477,54.7216667 77.7922184,50.7592999 C79.0514109,46.9359434 82.2662144,43.2512164 82.2662144,39.0142564 C82.2650556,34.7772965 79.0502521,31.0925695 77.7914459,27.269213 L77.7914459,27.269213 Z" id="Path" fill="#A64C31"></path>
                        <ellipse id="Oval" fill="#8A3E25" cx="23.1799574" cy="27.9269416" rx="3.35655919" ry="3.30958939"></ellipse>
                        <ellipse id="Oval" fill="#8A3E25" cx="41.1327209" cy="27.9269416" rx="3.35655919" ry="3.30958939"></ellipse>
                        <ellipse id="Oval" fill="#8A3E25" cx="59.0850981" cy="27.9269416" rx="3.35655919" ry="3.30958939"></ellipse>
                        <ellipse id="Oval" fill="#8A3E25" cx="23.1799574" cy="49.7237678" rx="3.35655919" ry="3.30958939"></ellipse>
                        <ellipse id="Oval" fill="#8A3E25" cx="41.1327209" cy="49.7237678" rx="3.35655919" ry="3.30958939"></ellipse>
                        <ellipse id="Oval" fill="#8A3E25" cx="59.0850981" cy="49.7237678" rx="3.35655919" ry="3.30958939"></ellipse>
                        <ellipse id="Oval" fill="#8A3E25" cx="32.1453309" cy="38.8253547" rx="3.35655919" ry="3.30958939"></ellipse>
                        <ellipse id="Oval" fill="#8A3E25" cx="50.0977081" cy="38.8253547" rx="3.35655919" ry="3.30958939"></ellipse>
                        <ellipse id="Oval" fill="#8A3E25" cx="32.1453309" cy="17.0285284" rx="3.35655919" ry="3.30958939"></ellipse>
                        <ellipse id="Oval" fill="#8A3E25" cx="50.0977081" cy="17.0285284" rx="3.35655919" ry="3.30958939"></ellipse>
                        <ellipse id="Oval" fill="#8A3E25" cx="32.1453309" cy="60.6221809" rx="3.35655919" ry="3.30958939"></ellipse>
                        <ellipse id="Oval" fill="#8A3E25" cx="50.0977081" cy="60.6221809" rx="3.35655919" ry="3.30958939"></ellipse>
                    </g>
                    <path d="M127.050476,167.791298 L60.3093464,167.791298 C53.9930505,167.791298 48.7597789,162.925262 48.3445619,156.666421 L39.4077856,21.9155981 L147.952037,21.9155981 L139.015261,156.666421 C138.600044,162.925262 133.366772,167.791298 127.050476,167.791298 Z" id="Path" fill="#FBE7C5"></path>
                    <path d="M122.543289,21.9155981 L115.254117,132.095326 C114.840321,138.354167 109.620128,143.220203 103.319618,143.220203 L47.7041615,143.220203 L48.5938799,156.666421 C49.0080592,162.925262 54.2278686,167.791298 60.5283791,167.791298 L127.102712,167.791298 C133.403223,167.791298 138.623416,162.925262 139.037595,156.666421 L147.952037,21.9155981 L122.543289,21.9155981 Z" id="Path" fill="#FDD8A3"></path>
                    <path d="M46.7719592,120.53579 L140.587478,120.53579 C142.278497,120.53579 143.679903,119.241188 143.790967,117.575939 L147.253603,65.6986446 C147.375465,63.8709047 145.906187,62.3224821 144.050115,62.3224821 L43.3097079,62.3224821 C41.4536357,62.3224821 39.9843578,63.8712852 40.1062192,65.6986446 L43.5688561,117.575939 C43.6799196,119.241188 45.0809398,120.53579 46.7719592,120.53579 Z" id="Path" fill="#FCB143"></path>
                    <path d="M144.062486,62.3224821 L120.019537,62.3224821 L116.149263,120.53579 L140.613236,120.53579 C142.297718,120.53579 143.693706,119.241196 143.80434,117.575959 L147.253589,65.6990031 C147.375364,63.8708946 145.911382,62.3224821 144.062486,62.3224821 Z" id="Path" fill="#FBA615"></path>
                    <path d="M145.186578,23.9701854 L42.1732442,23.9701854 L43.7403156,7.13188664 C44.1168123,3.08989316 47.4972146,0 51.5430173,0 L135.81719,0 C139.862992,0 143.243779,3.08989316 143.619891,7.13150117 L145.186578,23.9701854 Z" id="Path" fill="#586B76"></path>
                    <path d="M143.619507,7.13150117 C143.243395,3.08989316 139.862608,0 135.81719,0 L124.06934,0 L124.770854,7.53739657 C125.073972,10.7934255 122.52071,13.6057833 119.261324,13.6057833 L43.1379209,13.6057833 L42.1732442,23.9701854 L145.186578,23.9701854 L143.619507,7.13150117 Z" id="Path" fill="#465961"></path>
                    <ellipse id="Oval" fill="#A64C31" cx="89.5317234" cy="98.2777602" rx="16.2470695" ry="11.3002303"></ellipse>
                    <path d="M93.0813671,86.97753 C95.4180569,88.956301 96.8216105,91.4922166 96.8216105,94.2574767 C96.8216105,100.579891 89.4839428,105.705391 80.432831,105.705391 C79.1628575,105.705391 77.9283,105.601143 76.7414772,105.410023 C79.7476073,107.955591 84.2974155,109.577991 89.3900133,109.577991 C98.4415101,109.577991 105.778793,104.452491 105.778793,98.1300764 C105.779178,92.6949233 100.354362,88.1478041 93.0813671,86.97753 L93.0813671,86.97753 Z" id="Path" fill="#8A3E25"></path>
                    <ellipse id="Oval" fill="#C05939" transform="translate(96.777718, 87.836703) rotate(-37.030390) translate(-96.777718, -87.836703) " cx="96.7777179" cy="87.8367034" rx="11.3697128" ry="16.2895632"></ellipse>
                    <path d="M105.68502,81.1573924 C101.661668,75.7458507 95.947873,72.8383741 91.260135,73.334969 C94.4055754,74.5513388 97.5483704,76.94228 100.041518,80.2957332 C105.392886,87.493866 105.725835,96.3946097 100.785646,100.1764 C99.5592906,101.115137 98.123189,101.648928 96.5756006,101.813054 C100.181349,103.207354 103.790499,103.0578 106.429147,101.037676 C111.369337,97.2562688 111.036388,88.3555252 105.68502,81.1573924 L105.68502,81.1573924 Z" id="Path" fill="#A64C31"></path>
                    <path d="M153.940602,31.5036723 L32.7278555,31.5036723 C31.4531748,31.5036723 30.420045,30.4829588 30.420045,29.2235976 L30.420045,20.7713606 C30.420045,19.5119993 31.4531748,18.4912859 32.7278555,18.4912859 L153.940602,18.4912859 C155.215283,18.4912859 156.248413,19.5119993 156.248413,20.7713606 L156.248413,29.2235976 C156.248413,30.4829588 155.215283,31.5036723 153.940602,31.5036723 Z" id="Path" fill="#586B76"></path>
                    <path d="M153.871753,18.4912859 L136.339701,18.4912859 L136.339701,23.2519429 C136.339701,24.0978259 135.645435,24.7837283 134.789237,24.7837283 L30.420045,24.7837283 L30.420045,29.1556439 C30.420045,30.4525885 31.4839456,31.5036723 32.7967052,31.5036723 L153.871753,31.5036723 C155.184512,31.5036723 156.248413,30.4525885 156.248413,29.1556439 L156.248413,20.8393143 C156.248413,19.5423696 155.184128,18.4912859 153.871753,18.4912859 L153.871753,18.4912859 Z" id="Path" fill="#465961"></path>
                    <path d="M96.9713602,92.6709919 C97.5612086,93.4295771 98.4423018,93.8261544 99.3323029,93.8261544 C99.9752105,93.8261544 100.62354,93.6191263 101.170012,93.1918638 C102.472868,92.1730369 102.705244,90.2880324 101.689373,88.9809976 L97.302109,83.338802 C96.2862375,82.0321556 94.406701,81.7991033 93.1034575,82.8179301 C91.8006013,83.836757 91.5682251,85.7217615 92.5840966,87.0287963 L96.9713602,92.6709919 Z" id="Path" fill="#8A3E25"></path>
                    <g id="donut" transform="translate(93.334229, 70.540831)">
                        <path d="M48.7412085,1.90971257 C21.8220634,1.90971257 0,23.71224 0,50.607286 C0,77.502332 21.8220634,99.3050539 48.7412085,99.3050539 C75.6603535,99.3050539 97.4824169,77.5025265 97.4824169,50.6074804 C97.4824169,23.7124344 75.6603535,1.90971257 48.7412085,1.90971257 Z M48.7412085,67.5805334 C39.3588732,67.5805334 31.7529469,59.9814163 31.7529469,50.6074804 C31.7529469,41.2335446 39.3588732,33.6344275 48.7412085,33.6344275 C58.1235438,33.6344275 65.72947,41.2335446 65.72947,50.6074804 C65.72947,59.9814163 58.1235438,67.5805334 48.7412085,67.5805334 Z" id="Shape" fill="#FDCA74"></path>
                        <path d="M51.8515871,50.6073832 C51.8515871,24.7214962 72.0221107,3.55680365 97.4824169,2.00458751 C96.4897333,1.94412418 95.4900603,1.90971257 94.4822331,1.90971257 C67.6240544,1.90971257 45.8514135,23.7120891 45.8514135,50.6073832 C45.8514135,77.5026774 67.6240544,99.3050539 94.4822331,99.3050539 C95.4900603,99.3050539 96.4897333,99.2706423 97.4824169,99.210179 C72.0221107,97.6579628 51.8515871,76.4932703 51.8515871,50.6073832 Z" id="Path" fill="#E6B25B" transform="translate(71.666915, 50.607383) scale(-1, 1) translate(-71.666915, -50.607383) "></path>
                        <path d="M10.9525203,41.6317341 C10.4352583,41.6317341 9.92256172,41.454161 9.57422023,41.1126191 L6.55145607,38.149725 C5.94288567,37.5531007 6.06638026,36.6829564 6.82675086,36.2057286 C7.58712145,35.7285007 8.69720317,35.8253425 9.30577357,36.4216088 L12.3285377,39.3845029 C12.9371081,39.9811272 12.8136135,40.8512715 12.0532429,41.3284993 C11.7277285,41.5325653 11.3387548,41.6317341 10.9525203,41.6317341 Z" id="Path" fill="#FA9EB0"></path>
                        <path d="M69.5189703,80.2079281 C69.0016902,80.2079281 68.4889758,80.0303522 68.1406221,79.688805 L65.1179809,76.7258648 C64.5093893,76.1294102 64.6328882,75.2590734 65.3932853,74.7818381 C66.1539107,74.3047818 67.2635745,74.4014461 67.8723944,74.9979007 L70.8950356,77.9608409 C71.5036272,78.5572955 71.3801283,79.4276323 70.6197312,79.9048676 C70.2944338,80.1089367 69.9052182,80.2079281 69.5189703,80.2079281 Z" id="Path" fill="#A8503C"></path>
                        <path d="M89.940188,52.7080671 C89.422908,52.7080671 88.9101935,52.5304911 88.5618399,52.1889439 L85.5391987,49.2260037 C84.9306071,48.6295491 85.054106,47.7592123 85.8145031,47.281977 C86.5751284,46.8049207 87.6850206,46.901585 88.2936122,47.4980396 L91.3162534,50.4609798 C91.924845,51.0574344 91.8013461,51.9277713 91.040949,52.4050065 C90.7154233,52.6088966 90.326436,52.7080671 89.940188,52.7080671 Z" id="Path" fill="#FA9EB0"></path>
                        <path d="M83.0466927,76.7704455 C82.9101621,76.7704455 82.7713412,76.7478887 82.6344582,76.7000761 C81.9179806,76.4509876 81.5216013,75.613688 81.7490349,74.8295992 L82.8791564,70.9346038 C83.10659,70.150515 83.8720425,69.7169238 84.588344,69.9656266 C85.3048216,70.2147151 85.7012009,71.0520147 85.4737672,71.8361035 L84.3436458,75.7310989 C84.1597258,76.3653876 83.6239971,76.7704455 83.0466927,76.7704455 Z" id="Path" fill="#A8503C"></path>
                        <path d="M16.6918172,54.6177796 C16.267141,54.6177796 15.8426802,54.4769966 15.517763,54.1952425 C14.8657739,53.6296668 14.8629729,52.709972 15.5115145,52.1413889 L18.7322456,49.3167058 C19.3805718,48.7481227 20.4346136,48.7456792 21.0863872,49.3110669 C21.7381607,49.8764547 21.7411772,50.7961495 21.0926356,51.3649206 L17.8719045,54.1896037 C17.5469873,54.474929 17.11951,54.6177796 16.6918172,54.6177796 Z" id="Path" fill="#FB8D4B"></path>
                        <path d="M54.4518525,90.5203761 C54.027171,90.5203761 53.602705,90.3795947 53.2777838,90.0978441 C52.6257867,89.5322754 52.6229857,88.6129677 53.2713198,88.0442036 L56.491875,85.2193672 C57.1402092,84.6506031 58.1944794,84.6483476 58.846261,85.2137284 C59.498258,85.7792972 59.5010591,86.6987928 58.8527249,87.2675569 L55.6321697,90.0923933 C55.3070331,90.3777151 54.8793351,90.5203761 54.4518525,90.5203761 Z" id="Path" fill="#FA9EB0"></path>
                        <path d="M75.9230158,62.2566299 C75.3521611,62.2566299 74.8024715,61.9695183 74.5293401,61.4728132 C74.1441341,60.7720256 74.4551613,59.9191404 75.2241622,59.5681036 L79.0441719,57.8239415 C79.8133744,57.4729047 80.7488746,57.7563426 81.1342822,58.4571302 C81.5194882,59.1579178 81.208461,60.010803 80.4394601,60.3618398 L76.6194504,62.1060019 C76.3955028,62.2083188 76.1572436,62.2566299 75.9230158,62.2566299 Z" id="Path" fill="#FB8D4B"></path>
                        <g id="Group" transform="translate(9.632650, 36.666481)" fill="#A8503C">
                            <path d="M65.5509734,6.5790471 C65.2867325,6.5790471 65.0191567,6.51173444 64.7757098,6.37003365 C64.0569431,5.95181554 63.8221277,5.04481576 64.2511514,4.34415222 L66.3821455,0.863590765 C66.8111692,0.163118451 67.7414071,-0.0661652801 68.46037,0.352244063 C69.1791367,0.770462177 69.4139521,1.67746196 68.9849284,2.3781255 L66.8539343,5.85868695 C66.5704687,6.32184391 66.0672928,6.5790471 65.5509734,6.5790471 Z" id="Path"></path>
                            <path d="M5.42272593,30.1312096 C5.23734532,30.1312096 5.04902217,30.0979357 4.86638795,30.0275634 L0.998897385,28.5386534 C0.220298854,28.2389973 -0.161447869,27.380761 0.145950443,26.6215813 C0.453544924,25.8625929 1.33395566,25.4906522 2.11235802,25.7903083 L5.97984858,27.2792183 C6.75844711,27.5788744 7.14019384,28.4371107 6.83279553,29.1962904 C6.59739159,29.776862 6.02653703,30.1312096 5.42272593,30.1312096 Z" id="Path"></path>
                        </g>
                        <path d="M42.286928,85.1731808 C41.8848741,85.1731808 41.4823964,85.0406742 41.1661791,84.7727927 L37.8912524,81.9981834 C37.2319011,81.4394757 37.199474,80.5046631 37.8185564,79.9100084 C38.4378507,79.3153536 39.4742467,79.2859077 40.1333861,79.8444243 L43.4083127,82.6190336 C44.067664,83.1777413 44.1000911,84.1125539 43.4810088,84.7072086 C43.158857,85.0167733 42.7233164,85.1731808 42.286928,85.1731808 Z" id="Path" fill="#FB8D4B"></path>
                        <g id="Group" transform="translate(5.008978, 0.000000)" fill="#FA9EB0">
                            <path d="M19.1755744,74.304268 C18.3490613,74.304268 17.6730195,73.6507291 17.6604639,72.8341435 C17.6477121,72.0098305 18.316299,71.3315641 19.1532097,71.3192004 L23.3110826,71.2577681 C24.1393613,71.2486885 24.836983,71.9035798 24.8495387,72.7278927 C24.8622905,73.5522056 24.1937036,74.230472 23.3567929,74.2428358 L19.1991162,74.3040749 C19.1912689,74.3040749 19.1832255,74.304268 19.1755744,74.304268 Z" id="Path"></path>
                            <path d="M43.4628566,-7.63366083e-05 C57.200277,-0.0231819904 70.1192278,5.23430026 79.8306094,14.7970645 C81.9425044,16.8766822 84.5405373,20.4117426 86.5886732,23.3914011 C88.2108989,25.7517141 85.484367,28.6933155 82.9728501,27.2767027 C82.9514663,27.2645321 82.9302787,27.2523616 82.9088949,27.2401911 L82.9088949,27.2401911 C79.4341264,25.2465399 75.1391226,25.2465399 71.6641579,27.2401911 L71.6641579,27.2401911 C68.1893894,29.2338422 63.8943856,29.2338422 60.4194209,27.2401911 L60.4194209,27.2401911 C56.9446524,25.2465399 52.6496486,25.2465399 49.1746839,27.2401911 L49.1746839,27.2401911 C47.4371035,28.2370166 45.4947094,28.7356226 43.5521192,28.7356226 C41.6097252,28.7356226 39.667135,28.2372098 37.9295546,27.2401911 L37.9295546,27.2401911 C34.454786,25.2465399 30.1597822,25.2465399 26.6848175,27.2401911 L26.6848175,27.2401911 C23.210049,29.2338422 18.9150452,29.2338422 15.4400805,27.2401911 L15.4400805,27.2401911 C11.965312,25.2465399 7.67030824,25.2465399 4.19534354,27.2401911 L4.19534354,27.2401911 C4.17415592,27.2523616 4.15277213,27.2645321 4.13138834,27.2767027 C1.61987148,28.6931223 -1.10666041,25.7515209 0.515565247,23.3914011 C2.56389734,20.4115494 5.16193029,16.876489 7.27362904,14.7970645 C16.9857954,5.23430026 29.90455,-0.0227956239 43.6421666,-7.63366083e-05 L43.4628566,-7.63366083e-05 Z" id="Path"></path>
                        </g>
                        <g id="Group" transform="translate(67.858745, 14.000000) scale(-1, 1) translate(-67.858745, -14.000000) translate(42.858745, 0.000000)" fill="#ED6883">
                            <path d="M43.7309188,0.608162727 C43.8874287,0.608162727 44.0439386,0.612281408 44.2014782,0.612281408 C44.3600474,0.612281408 44.514498,0.607133057 44.6720375,0.608162727 C44.6730672,0.608162727 43.7309188,0.608162727 43.7309188,0.608162727 Z" id="Path"></path>
                            <path d="M4.21835535,26.9147142 C4.64161094,26.6776177 5.07729202,26.4700872 5.52165122,26.290417 C7.81918355,23.0868664 10.539577,19.5590377 12.7960855,17.3910548 C22.823259,7.75538587 35.7222985,1.883505 49.6378615,0.506412294 C47.7081631,0.298502755 45.7555861,0.190473187 43.7854556,0.190473187 C30.008348,0.190473187 17.0556619,5.34518934 7.31328859,14.7064253 C5.19010758,16.7466679 2.57819063,20.2147961 0.519109373,23.1382279 C-1.11178554,25.4538511 1.62931707,28.3397568 4.1542556,26.9499659 C4.17555644,26.9384048 4.19685728,26.9264647 4.21835535,26.9147142 L4.21835535,26.9147142 Z" id="Path"></path>
                        </g>
                        <g id="Group" transform="translate(45.075489, 17.104103) scale(-1, 1) translate(-45.075489, -17.104103) translate(26.575489, 12.604103)" fill="#3B484A">
                            <path d="M1.53296005,6.44705041 C0.705386604,6.44705041 0.0345226328,5.7258931 0.0345226328,4.83627812 L0.0345226328,1.62515791 C0.0345226328,0.735542924 0.705386604,0.0143856184 1.53296005,0.0143856184 C2.36053351,0.0143856184 3.03139752,0.735542924 3.03139752,1.62515791 L3.03139752,4.83606963 C3.03159142,5.72568462 2.36053351,6.44705041 1.53296005,6.44705041 Z" id="Path"></path>
                            <path d="M34.5412518,6.44705041 C33.7136783,6.44705041 33.0428143,5.7258931 33.0428143,4.83627812 L33.0428143,1.62515791 C33.0428143,0.735542924 33.7136783,0.0143856184 34.5412518,0.0143856184 C35.3688252,0.0143856184 36.0396892,0.735542924 36.0396892,1.62515791 L36.0396892,4.83606963 C36.0398831,5.72568462 35.3688252,6.44705041 34.5412518,6.44705041 Z" id="Path"></path>
                            <path d="M18.0371059,8.16081538 C16.017144,8.16081538 14.1209205,7.25410445 12.8352434,5.67272886 C12.2906391,5.00285941 12.3540599,3.98523327 12.9772128,3.39980115 C13.6003657,2.81457752 14.5470229,2.88254435 15.0916271,3.5524138 C15.8080687,4.43368929 16.8815674,4.93906232 18.036912,4.93906232 C19.1920625,4.93906232 20.2655612,4.43368929 20.9820029,3.5524138 C21.5266071,2.88254435 22.4732642,2.81416054 23.0964171,3.39980115 C23.7195701,3.98523327 23.7831848,5.00285941 23.2383866,5.67272886 C21.9530974,7.25410445 20.0570678,8.16081538 18.0371059,8.16081538 Z" id="Path"></path>
                        </g>
                    </g>
                </g>
            </g>
        </g>
    </g>
</svg>