<?xml version="1.0" encoding="UTF-8"?>
<svg width="358px" height="60px" viewBox="0 0 358 60" version="1.1" xmlns="http://www.w3.org/2000/svg" xmlns:xlink="http://www.w3.org/1999/xlink">
    <!-- Generator: Sketch 60 (88103) - https://sketch.com -->
    <title>torchysLogored</title>
    <desc>Created with Sketch.</desc>
    <defs>
        <polygon id="path-1" points="0.969294907 0.138067872 4.82218503 0.138067872 4.82218503 4.12040648 0.969294907 4.12040648"></polygon>
        <polygon id="path-3" points="0.969294907 0.138067872 4.82218503 0.138067872 4.82218503 4.12040648 0.969294907 4.12040648"></polygon>
        <polygon id="path-5" points="0.922082574 0 6.10783464 0 6.10783464 10.2735067 0.922082574 10.2735067"></polygon>
    </defs>
    <g id="Page-1" stroke="none" stroke-width="1" fill="none" fill-rule="evenodd">
        <g id="module11" transform="translate(-253.000000, -157.000000)">
            <g id="torchysLogored" transform="translate(253.703036, 156.816444)">
                <g id="Group-86">
                    <polygon id="Fill-1" fill="#9C050D" points="0 2.57878149 0 16.9349773 14.5329889 16.9349773 14.5329889 53.3273794 31.0436629 53.3273794 31.0436629 16.9349773 45.5766518 16.9349773 45.5766518 2.57878149"></polygon>
                    <g id="Group-85">
                        <path d="M134.458015,21.7916925 C134.458015,24.9080447 132.060821,26.7239192 128.108447,26.7239192 L120.982788,26.7239192 L120.982788,16.7905464 L128.180363,16.7905464 C131.988905,16.7905464 134.458015,18.3816839 134.458015,21.6448643 L134.458015,21.7916925 Z M150.896773,20.5571375 L150.896773,20.4133059 C150.896773,15.1934159 149.34459,11.4238282 146.381059,8.37639529 C142.926103,4.82555161 137.352626,2.57818219 128.602868,2.57818219 L104.47511,2.57818219 L104.47511,18.168933 C104.666886,18.0910242 104.861658,18.0101189 105.05643,17.944196 C106.467778,17.4467783 107.939056,17.135143 109.419323,16.9433675 C109.862804,16.8834377 110.572972,16.8384903 111.040425,16.9553535 C111.76258,17.12915 111.741605,17.6535362 111.217218,18.0430803 C110.581962,18.5135296 109.898762,18.7772209 109.116677,19.2776352 C108.544347,19.6432073 107.92707,19.9338671 107.363729,20.3144216 C106.719483,20.7519095 105.212247,21.6568503 105.152317,22.5947525 C105.089391,23.577602 106.518718,23.6974617 107.231883,23.7334196 C107.816199,23.7663811 108.406508,23.7274266 108.987828,23.6525143 C109.599112,23.577602 111.274152,23.3169072 111.447948,23.400809 C112.760412,24.0450549 109.868797,25.4354274 109.476256,26.2984173 C108.382536,28.6956113 111.639724,27.9884391 112.601598,27.7097653 C113.985978,27.3022423 115.310427,26.6729788 116.58993,26.0077575 C117.342049,25.6182135 119.541475,24.2847743 120.179728,24.776199 C121.081672,25.7500591 116.976477,29.1600677 116.215368,29.7383907 C114.204721,31.2666019 111.921394,32.4382305 109.494235,33.1334168 C107.888115,33.5948766 106.165132,33.7147363 104.47511,33.5679082 L104.47511,53.3267801 L120.982788,53.3267801 L120.982788,38.8297491 L124.512656,38.8297491 L133.822758,53.3267801 L152.661707,53.3267801 L141.161168,36.0759725 C147.15715,33.0974589 150.896773,27.9554776 150.896773,20.5571375 L150.896773,20.5571375 Z" id="Fill-2" fill="#9C050D"></path>
                        <path d="M179.816522,39.1911261 C174.386877,39.1911261 170.575339,34.5495592 170.575339,27.954279 L170.575339,27.8074509 C170.575339,21.718578 174.243046,16.717432 179.816522,16.717432 C184.332236,16.717432 186.942181,19.2524647 188.776034,22.8782207 L202.395093,14.68581 C198.232965,6.92789079 190.894555,1.49225329 180.029273,1.49225329 C165.283533,1.49225329 153.782994,12.8010162 153.782994,27.954279 L153.782994,28.0981107 C153.782994,43.8296966 165.709035,54.4133083 179.394016,54.4133083 C191.670646,54.4133083 198.583555,48.2495231 202.745683,40.7133443 L189.129621,32.8115935 C187.083016,36.5811811 184.473071,39.1911261 179.816522,39.1911261" id="Fill-4" fill="#9C050D"></path>
                        <polygon id="Fill-6" fill="#9C050D" points="237.521177 20.48672 222.421851 20.48672 222.421851 2.57668395 205.914174 2.57668395 205.914174 53.3282784 222.421851 53.3282784 222.421851 35.1305791 237.521177 35.1305791 237.521177 53.3282784 254.031851 53.3282784 254.031851 2.57668395 237.521177 2.57668395"></polygon>
                        <polygon id="Fill-8" fill="#9C050D" points="291.20484 2.57788255 282.667833 19.2503671 274.202741 2.57788255 255.717379 2.57788255 274.343576 35.3505216 274.343576 53.329477 290.851254 53.329477 290.851254 35.1287812 309.477451 2.57788255"></polygon>
                        <path d="M351.733091,36.9437567 C351.733091,26.7227206 343.265003,22.9501365 330.637783,20.5559389 C325.417893,19.5431244 324.078461,18.6711451 324.078461,17.295755 L324.078461,17.1519234 C324.078461,15.9173685 325.205142,15.0483856 327.674252,15.0483856 C332.258885,15.0483856 337.832362,16.5706038 342.491907,20.0495317 L350.534494,8.59693714 C344.817186,3.95537017 337.763442,1.63608494 328.237592,1.63608494 C314.62153,1.63608494 307.286116,9.10334438 307.286116,18.7460574 L307.286116,18.8928856 C307.286116,29.6203289 317.021721,32.8865058 328.096757,35.2027945 C333.388563,36.2905213 334.940746,37.0875884 334.940746,38.5378908 L334.940746,38.6817224 C334.940746,40.060109 333.67323,40.8601725 330.706702,40.8601725 C324.923472,40.8601725 318.783658,39.1192103 313.422933,34.9121348 L304.604256,45.7174869 C310.881908,51.3688719 319.913336,54.2694767 329.933607,54.2694767 C343.196083,54.2694767 351.733091,47.7431159 351.733091,37.0875884 L351.733091,36.9437567 Z" id="Fill-10" fill="#9C050D"></path>
                        <polygon id="Fill-12" fill="#9C050D" points="348.721915 49.7873231 349.917516 49.7873231 349.917516 53.065486 350.756534 53.065486 350.756534 49.7873231 351.949138 49.7873231 351.949138 49.0831474 348.721915 49.0831474"></polygon>
                        <g id="Group-16" transform="translate(351.589629, 48.943881)">
                            <mask id="mask-2" fill="white">
                                <use xlink:href="#path-1"></use>
                            </mask>
                            <g id="Clip-15"></g>
                            <path d="M3.62418731,0.138067872 L2.9050291,3.26940259 L2.1798779,0.138067872 L0.969294907,0.138067872 L0.969294907,4.12040648 L1.74538648,4.12040648 L1.74538648,1.42655967 C1.74538648,1.34865086 1.74538648,1.24077713 1.74238999,1.09994198 C1.73939349,0.959106833 1.73939349,0.851233101 1.73939349,0.779317279 L2.48851663,4.12040648 L3.29756962,4.12040648 L4.05268575,0.779317279 C4.05268575,0.851233101 4.05268575,0.959106833 4.04968925,1.09994198 C4.04669276,1.24077713 4.04669276,1.34865086 4.04669276,1.42655967 L4.04669276,4.12040648 L4.82278433,4.12040648 L4.82278433,0.138067872 L3.62418731,0.138067872 Z" id="Fill-14" fill="#FFFFFF" mask="url(#mask-2)"></path>
                        </g>
                        <polygon id="Fill-17" fill="#9C050D" points="45.5772511 2.57788255 0.000599298511 2.57788255 0.000599298511 16.9340784 14.5335882 16.9340784 14.5335882 53.329477 31.0412657 53.329477 31.0412657 16.9340784 45.5772511 16.9340784"></polygon>
                        <path d="M134.458015,21.7916925 C134.458015,24.9080447 132.060821,26.7239192 128.108447,26.7239192 L120.982788,26.7239192 L120.982788,16.7905464 L128.180363,16.7905464 C131.988905,16.7905464 134.458015,18.3816839 134.458015,21.6448643 L134.458015,21.7916925 Z M150.896773,20.5571375 L150.896773,20.4133059 C150.896773,15.1934159 149.34459,11.4238282 146.381059,8.37639529 C142.926103,4.82555161 137.352626,2.57818219 128.602868,2.57818219 L104.47511,2.57818219 L104.47511,18.168933 C104.666886,18.0910242 104.861658,18.0101189 105.05643,17.944196 C106.467778,17.4467783 107.939056,17.135143 109.419323,16.9433675 C109.862804,16.8834377 110.572972,16.8384903 111.040425,16.9553535 C111.76258,17.12915 111.741605,17.6535362 111.217218,18.0430803 C110.581962,18.5135296 109.898762,18.7772209 109.116677,19.2776352 C108.544347,19.6432073 107.92707,19.9338671 107.363729,20.3144216 C106.719483,20.7519095 105.212247,21.6568503 105.152317,22.5947525 C105.089391,23.577602 106.518718,23.6974617 107.231883,23.7334196 C107.816199,23.7663811 108.406508,23.7274266 108.987828,23.6525143 C109.599112,23.577602 111.274152,23.3169072 111.447948,23.400809 C112.760412,24.0450549 109.868797,25.4354274 109.476256,26.2984173 C108.382536,28.6956113 111.639724,27.9884391 112.601598,27.7097653 C113.985978,27.3022423 115.310427,26.6729788 116.58993,26.0077575 C117.342049,25.6182135 119.541475,24.2847743 120.179728,24.776199 C121.081672,25.7500591 116.976477,29.1600677 116.215368,29.7383907 C114.204721,31.2666019 111.921394,32.4382305 109.494235,33.1334168 C107.888115,33.5948766 106.165132,33.7147363 104.47511,33.5679082 L104.47511,53.3267801 L120.982788,53.3267801 L120.982788,38.8297491 L124.512656,38.8297491 L133.822758,53.3267801 L152.661707,53.3267801 L141.161168,36.0759725 C147.15715,33.0974589 150.896773,27.9554776 150.896773,20.5571375 L150.896773,20.5571375 Z" id="Fill-19" fill="#9C050D"></path>
                        <path d="M179.816522,39.1911261 C174.386877,39.1911261 170.575339,34.5495592 170.575339,27.954279 L170.575339,27.8074509 C170.575339,21.718578 174.243046,16.717432 179.816522,16.717432 C184.332236,16.717432 186.942181,19.2524647 188.776034,22.8782207 L202.395093,14.68581 C198.232965,6.92789079 190.894555,1.49225329 180.029273,1.49225329 C165.283533,1.49225329 153.782994,12.8010162 153.782994,27.954279 L153.782994,28.0981107 C153.782994,43.8296966 165.709035,54.4133083 179.394016,54.4133083 C191.670646,54.4133083 198.583555,48.2495231 202.745683,40.7133443 L189.129621,32.8115935 C187.083016,36.5811811 184.473071,39.1911261 179.816522,39.1911261" id="Fill-21" fill="#9C050D"></path>
                        <polygon id="Fill-23" fill="#9C050D" points="237.521177 20.48672 222.421851 20.48672 222.421851 2.57668395 205.914174 2.57668395 205.914174 53.3282784 222.421851 53.3282784 222.421851 35.1305791 237.521177 35.1305791 237.521177 53.3282784 254.031851 53.3282784 254.031851 2.57668395 237.521177 2.57668395"></polygon>
                        <polygon id="Fill-25" fill="#9C050D" points="291.20484 2.57788255 282.667833 19.2503671 274.202741 2.57788255 255.717379 2.57788255 274.343576 35.3505216 274.343576 53.329477 290.851254 53.329477 290.851254 35.1287812 309.477451 2.57788255"></polygon>
                        <path d="M351.733091,36.9437567 C351.733091,26.7227206 343.265003,22.9501365 330.637783,20.5559389 C325.417893,19.5431244 324.078461,18.6711451 324.078461,17.295755 L324.078461,17.1519234 C324.078461,15.9173685 325.205142,15.0483856 327.674252,15.0483856 C332.258885,15.0483856 337.832362,16.5706038 342.491907,20.0495317 L350.534494,8.59693714 C344.817186,3.95537017 337.763442,1.63608494 328.237592,1.63608494 C314.62153,1.63608494 307.286116,9.10334438 307.286116,18.7460574 L307.286116,18.8928856 C307.286116,29.6203289 317.021721,32.8865058 328.096757,35.2027945 C333.388563,36.2905213 334.940746,37.0875884 334.940746,38.5378908 L334.940746,38.6817224 C334.940746,40.060109 333.67323,40.8601725 330.706702,40.8601725 C324.923472,40.8601725 318.783658,39.1192103 313.422933,34.9121348 L304.604256,45.7174869 C310.881908,51.3688719 319.913336,54.2694767 329.933607,54.2694767 C343.196083,54.2694767 351.733091,47.7431159 351.733091,37.0875884 L351.733091,36.9437567 Z" id="Fill-27" fill="#9C050D"></path>
                        <polygon id="Fill-29" fill="#9C050D" points="348.721915 49.7873231 349.917516 49.7873231 349.917516 53.065486 350.756534 53.065486 350.756534 49.7873231 351.949138 49.7873231 351.949138 49.0831474 348.721915 49.0831474"></polygon>
                        <g id="Group-33" transform="translate(351.589629, 48.943881)">
                            <mask id="mask-4" fill="white">
                                <use xlink:href="#path-3"></use>
                            </mask>
                            <g id="Clip-32"></g>
                            <path d="M3.62418731,0.138067872 L2.9050291,3.26940259 L2.1798779,0.138067872 L0.969294907,0.138067872 L0.969294907,4.12040648 L1.74538648,4.12040648 L1.74538648,1.42655967 C1.74538648,1.34865086 1.74538648,1.24077713 1.74238999,1.09994198 C1.73939349,0.959106833 1.73939349,0.851233101 1.73939349,0.779317279 L2.48851663,4.12040648 L3.29756962,4.12040648 L4.05268575,0.779317279 C4.05268575,0.851233101 4.05268575,0.959106833 4.04968925,1.09994198 C4.04669276,1.24077713 4.04669276,1.34865086 4.04669276,1.42655967 L4.04669276,4.12040648 L4.82278433,4.12040648 L4.82278433,0.138067872 L3.62418731,0.138067872 Z" id="Fill-31" fill="#FFFFFF" mask="url(#mask-4)"></path>
                        </g>
                        <path d="M70.4328572,53.0969491 C66.1388833,52.5575805 62.1895061,51.0143868 58.8214485,48.716077 L58.8514134,48.6980981 L59.3698066,48.4044418 L59.7683402,48.1767084 L59.834263,48.1407504 L60.0560034,48.0148978 C61.3025443,48.8179578 62.6269941,49.519137 64.0173666,50.0974601 L64.0203631,50.1004566 C64.0892824,50.1693759 64.1432193,50.2263093 64.2001526,50.2862391 L64.2600825,50.3371795 C64.3679562,50.4360637 64.4488615,50.5139725 64.5357598,50.5888849 L64.5867002,50.6338323 C64.7065599,50.735713 64.8054441,50.8136218 64.9073249,50.8945271 L64.9552688,50.9274885 C65.0901109,51.0293693 65.2039777,51.1102746 65.3268338,51.1911799 L65.3777742,51.2241413 C65.5126164,51.3110396 65.650455,51.3949414 65.7942867,51.4728502 C66.5284274,51.8713837 67.268561,52.1021136 68.0236771,52.1710329 C68.2424211,52.1920084 68.467158,52.2039944 68.7128704,52.2039944 C68.7847863,52.2039944 68.8596986,52.2009979 68.9316144,52.2009979 L69.1084075,52.1950049 C69.4020637,52.1800224 69.6987165,52.153054 69.9893763,52.1051101 L70.09725,52.0841346 C70.4028922,52.0301978 70.6725766,51.9612785 70.9332714,51.8863661 C71.3288084,51.9313135 71.7273419,51.9672714 72.1288719,51.9942399 C72.6922125,52.0301978 73.2525567,52.0242048 73.8099043,52.0242048 C74.1934553,52.2129838 74.532059,52.329847 74.8137293,52.3987664 C74.8766556,52.4137488 74.9455749,52.4197418 75.0085013,52.4197418 C75.0564452,52.4197418 75.1043891,52.4167453 75.1523329,52.4107523 C75.1733084,52.6294963 75.2152593,52.9201561 75.2871751,53.2467738 C75.0534487,53.2587597 74.8227188,53.2707457 74.5889923,53.2767387 C74.2833501,53.1269141 74.0226552,52.9920719 73.7949218,52.8752087 L73.6121358,52.7793209 C72.9618969,52.4437138 72.5363949,52.2219733 72.0209982,52.1440645 C71.9790473,52.1380715 71.9340999,52.135075 71.892149,52.135075 C71.7573069,52.135075 71.6194682,52.1650399 71.4996085,52.2339593 C71.4396787,52.2639242 71.3767523,52.2968856 71.3168225,52.33584 C70.9033065,52.5815524 70.6156432,52.8332578 70.4328572,53.0969491" id="Fill-34" fill="#9C050D"></path>
                        <path d="M47.546546,25.8941904 C47.9810374,19.1670646 51.0254738,13.2100374 55.6490618,8.90407763 C55.6760303,9.43445681 55.7599321,9.95285002 55.8857848,10.4652502 C51.8525058,14.4985292 49.1976134,19.8982088 48.8080693,25.9750957 C48.3406165,33.2415902 51.1752985,39.9836984 56.0416024,44.793069 C55.771918,44.9339041 55.5082267,45.0777358 55.2894827,45.17662 C55.1396581,45.2425428 54.986837,45.3084657 54.8370124,45.3743885 C49.9137751,40.340281 47.0641107,33.3824253 47.546546,25.8941904" id="Fill-36" fill="#9C050D"></path>
                        <path d="M75.3548958,1.90487032 C75.6875065,1.92584577 76.0141242,1.98277912 76.3437384,2.01574054 L76.3407419,2.04270897 L76.3287559,2.14458972 C76.3137735,2.3123933 76.2898015,2.4742039 76.2658296,2.64200749 C76.2478506,2.74988122 76.2298717,2.85176196 76.2118927,2.9566392 C76.1909173,3.05851995 76.1669453,3.1604007 76.1429734,3.26228144 C75.8523136,3.23531301 75.5676468,3.18437264 75.2739905,3.16639368 C74.7226359,3.13043577 74.1682848,3.11245682 73.6229231,3.11245682 C68.7026824,3.11245682 64.0790943,4.53878727 60.1806575,7.00190415 C60.177661,6.99591117 60.1746645,6.98991818 60.1716681,6.98692169 L60.1087417,6.89103393 C60.0428189,6.78915318 59.9978715,6.71723736 59.9559206,6.64831803 L59.8959907,6.54344079 C59.8510434,6.46253549 59.8120889,6.38762318 59.7731345,6.31870385 L59.7221942,6.2198196 C59.6862363,6.14490728 59.6472819,6.06999497 59.6143204,5.99508266 L59.581359,5.92616333 L59.5663766,5.89020542 C64.1030663,3.040541 69.5686687,1.53030875 75.3548958,1.90487032" id="Fill-38" fill="#9C050D"></path>
                        <path d="M93.3617185,10.6105801 C96.3731936,13.9726448 98.3808436,17.9519869 99.3097563,22.2100028 C98.9321982,22.7433785 98.6055805,23.3097156 98.3448857,23.9120106 C97.6347169,19.327377 95.6180774,15.0244137 92.4208199,11.4525945 C89.2415413,7.90474736 85.1723044,5.40267608 80.6565901,4.11118779 C80.6446041,4.0662404 80.6386112,4.0242895 80.6266252,3.97334913 C80.6266252,3.96735614 80.6236287,3.96435965 80.6236287,3.95537017 L80.6116427,3.91941226 L80.5607023,3.72164375 L80.5277409,3.60777704 C80.5007725,3.52986823 80.4738041,3.44896293 80.4468356,3.37105412 L80.4198672,3.2991383 L80.3749198,3.17628211 L80.3539444,3.11635226 L80.3359654,3.06840838 L80.3000075,2.96952412 L80.2610531,2.86764338 C80.2340847,2.80172054 80.2041197,2.7357977 80.1771513,2.66987487 C85.2532097,3.93739122 89.8258573,6.66419944 93.3617185,10.6105801" id="Fill-40" fill="#9C050D"></path>
                        <path d="M91.0235554,46.8933106 C88.4585578,49.1047221 85.533981,50.752793 82.4056428,51.8255373 C82.321741,51.6217758 82.2078743,51.4509758 82.0550532,51.3221266 C82.0101058,51.2831722 81.9531724,51.2621967 81.9022321,51.2292353 C81.9351935,51.1453335 81.9621619,51.0584352 81.9651584,50.959551 C81.9681549,50.8726527 81.9651584,50.7617825 81.9651584,50.6569052 C81.9861339,50.6479158 82.0041128,50.6389263 82.0250883,50.6329333 C82.0250883,50.5969754 82.0280848,50.552028 82.0250883,50.5280561 C82.0340777,49.8328698 81.9471795,49.1976134 81.8752636,48.8889746 C83.5233345,46.9412545 82.9510045,44.729843 82.8161623,44.3253165 C82.8581132,43.5492249 82.7562324,42.8600316 82.6034113,42.2607331 C83.4514187,43.0428177 84.5661139,44.2204392 84.8328018,45.3111625 C85.1174686,46.4288542 85.333216,47.9390865 85.0425563,49.341445 C85.3871529,49.1706449 85.734746,49.0118308 86.0703532,48.8230518 C86.0883322,48.6732272 86.1003181,48.5204061 86.1093076,48.3705814 C86.172234,47.0880826 85.959483,45.8774996 85.7557215,45.0804326 C85.6628302,44.7088675 85.4800442,44.3432954 85.2732862,43.9807198 C85.2792792,43.9927058 85.2852722,44.0016953 85.2912651,44.0106848 C85.363181,44.1185585 85.4470828,44.2234357 85.539974,44.316327 C85.5669425,44.3432954 85.5969074,44.3672674 85.6268723,44.3942358 C85.8216443,44.5680324 86.0553707,44.7088675 86.3160656,44.7927693 C86.4628937,44.8377167 86.6187113,44.8706781 86.7775255,44.8826641 C87.0472098,44.906636 87.3049081,44.8706781 87.5416311,44.7987623 C87.7813505,44.7208535 88.0000944,44.6009938 88.185877,44.4511692 C88.563435,44.1425304 88.8151404,43.696053 88.8540948,43.1836528 C88.8630843,43.0578001 88.8600878,42.9319474 88.8421088,42.8120877 C88.7222491,41.9610838 87.9970979,41.2658976 87.0681852,41.1969782 C86.8524378,41.1819958 86.6516728,41.1999747 86.4598972,41.2449221 C86.3640095,41.2658976 86.2711182,41.2958625 86.1812234,41.3348169 C86.0913287,41.3677783 86.0044304,41.4097292 85.9205286,41.4576731 C85.7287531,41.2359327 85.539974,41.0411606 85.345202,40.8553781 C85.3422055,40.8224167 85.3152371,40.7774693 85.3182336,40.7415114 C85.3242266,40.6935675 85.3422055,40.6426271 85.3781634,40.5916868 C85.4830407,40.4388656 85.7197636,40.283048 86.0463813,40.1452094 C86.4928587,39.9654198 87.0891607,39.7586618 87.7423961,39.6298126 C87.8352873,39.6088372 87.9311751,39.5908582 88.0270628,39.5788723 C88.1349366,39.5608933 88.2458068,39.5459108 88.356677,39.5339249 C88.5784175,39.5099529 88.8031544,39.4949705 89.0278914,39.497967 C89.366495,39.5009635 89.7050987,39.5399179 90.0317164,39.6208232 C90.0736673,39.6298126 90.1156182,39.6417986 90.1545726,39.6537846 C90.4392394,39.7346899 90.7119202,39.8515531 90.972615,40.0163602 C91.0864817,40.088276 91.197352,40.1691813 91.3022292,40.2560796 C91.5389521,40.4568446 91.7546996,40.696564 91.9404821,40.9722413 C92.0034085,41.0651326 92.0633383,41.1640168 92.1232682,41.2629011 C92.2730928,41.5355819 92.407935,41.8382277 92.5218017,42.1678418 C92.6386649,42.497456 92.7315562,42.8600316 92.809465,43.2525721 C92.6476544,43.2675546 92.4888403,43.2915265 92.3270297,43.3154985 C92.0034085,43.3634424 91.6737943,43.4353582 91.3471766,43.525253 C91.0205589,43.6181442 90.6969377,43.7350074 90.382306,43.8818356 C90.0676743,44.0286637 89.762032,44.2024603 89.4713723,44.4092183 C89.3275406,44.5140955 89.1867055,44.6249657 89.0488668,44.7478219 C88.0540313,45.6317872 87.5356381,46.6416052 87.4996802,47.7323285 C87.4996802,47.7982513 87.5116661,47.8581812 87.5146626,47.924104 C87.7963329,47.7383215 88.0869927,47.5705179 88.3596735,47.3727494 C88.788172,45.3770854 90.77185,44.5021095 92.0633383,44.1455269 C92.9742721,43.1776598 93.783325,42.1348804 94.5174657,41.0501501 C94.4575359,40.9662483 94.403599,40.891336 94.3376762,40.8074342 C94.0560059,40.4208867 93.9361462,40.0912725 94.0230445,39.9174759 C94.1309182,39.6627741 94.604364,39.5309284 94.8261045,39.491974 C94.9729326,39.4769915 95.194673,39.5129494 95.4403854,39.5668863 C96.6329895,37.4873205 97.5049688,35.2489405 98.029355,32.8966939 C98.3829411,32.7618517 98.7365272,32.6389955 99.0871169,32.5520972 C99.1949906,32.5221323 99.2998678,32.5281253 99.4047451,32.5191358 C98.3140218,38.080626 95.4224065,43.099751 91.0235554,46.8933106" id="Fill-42" fill="#9C050D"></path>
                        <path d="M56.4877801,8.15225765 L56.4877801,8.15225765 C56.4937731,7.96647511 56.5087556,7.7687066 56.5327275,7.57393458 C56.535724,7.55595563 56.535724,7.54396966 56.5387205,7.5259907 C56.541717,7.4870363 56.5507065,7.45407488 56.5537029,7.41512048 C56.5626924,7.37916257 56.5686854,7.34020816 56.5746784,7.30425025 C56.6136328,7.03456592 56.6615767,6.77686756 56.7155135,6.53415167 C57.0900751,4.8291474 57.7612894,3.79535747 58.0369668,3.68448725 C58.0759212,3.72943463 58.1388475,3.84030486 58.2017738,4.05904882 C58.2167563,4.11298568 58.2317388,4.187898 58.2467212,4.25981382 C58.2557107,4.31375068 58.2676967,4.35270509 58.2766862,4.41563143 C58.2796827,4.44859285 58.2856756,4.50552621 58.2976616,4.58643151 C58.3276265,4.80217897 58.4055353,5.18273352 58.5703424,5.66217233 C58.5943144,5.72809517 58.6152898,5.794018 58.6422583,5.86293733 C58.6542442,5.89290226 58.6692267,5.92586368 58.6782162,5.9558286 C58.6842092,5.96781457 58.6931986,5.98579353 58.6991916,6.00077599 C58.7351495,6.09067077 58.7711074,6.17756905 58.8130583,6.26746383 C58.8250443,6.29742875 58.8370303,6.32439719 58.8490162,6.34836913 C58.8879706,6.43227092 58.926925,6.51617271 58.9718724,6.59707801 C58.9898514,6.63603241 59.0078303,6.67498682 59.0288058,6.71094473 C59.0677602,6.78885353 59.1127076,6.86676234 59.157655,6.95066413 C59.1816269,6.98961853 59.2085953,7.03456592 59.2325673,7.07951331 C59.2805112,7.15442562 59.328455,7.23233443 59.3793954,7.31323973 C59.4093603,7.35818712 59.4363288,7.406131 59.4692902,7.45407488 C59.5232271,7.53198369 59.5801604,7.61288899 59.6370938,7.69379428 C59.6700552,7.74173817 59.7030166,7.78968205 59.7389745,7.83762593 C59.8048974,7.92452421 59.8768132,8.0114225 59.9457325,8.09832078 C59.9727009,8.1312822 59.9966729,8.16424362 60.0236413,8.19420854 C60.0296343,8.20619451 60.0386238,8.21518399 60.0446168,8.22117697 C60.0835712,8.26612436 60.1225256,8.31107175 60.16148,8.35302265 C60.2363923,8.43992093 60.3113046,8.52681922 60.3922099,8.6137175 C60.0625957,8.87141586 59.747964,9.1381037 59.4483148,9.41078452 L59.4243428,9.42876347 C59.4213463,9.43475646 59.4213463,9.43775295 59.4153533,9.44074944 C59.1216971,9.70743728 58.8400268,9.97712161 58.5673459,10.2557954 C58.0968966,10.7352342 57.6564122,11.232652 57.2518857,11.7540417 C56.9282645,11.0978098 56.5537029,10.1059708 56.4877801,8.8564334 C56.4787906,8.64967541 56.4757941,8.43692444 56.4817871,8.21518399 C56.4847836,8.19420854 56.4877801,8.17323309 56.4877801,8.15225765" id="Fill-44" fill="#9C050D"></path>
                        <g id="Group-48" transform="translate(73.915821, 0.000000)">
                            <mask id="mask-6" fill="white">
                                <use xlink:href="#path-5"></use>
                            </mask>
                            <g id="Clip-47"></g>
                            <path d="M2.60081467,4.93042885 C2.63677258,4.83753758 2.66673751,4.74164982 2.70269542,4.64276557 C2.72067437,4.59182519 2.73865333,4.53788833 2.75663228,4.48994444 C2.7895937,4.38207071 2.82255512,4.28018997 2.85551654,4.17830922 C2.9094534,4.00451265 2.95739728,3.83371258 2.99934818,3.65991601 L2.99934818,3.65691951 C3.04429557,3.48012645 3.08624646,3.29734041 3.12220437,3.11755085 C3.14617631,3.00068764 3.16115878,2.88682093 3.17913773,2.77295421 C3.20910266,2.59316466 3.2330746,2.41037861 3.25105355,2.23358555 L3.26603602,2.11072936 C3.26903251,2.07776794 3.27502549,2.04480652 3.27502549,2.0118451 C3.29600094,1.76013973 3.30199393,1.51143084 3.30199393,1.26571846 C3.30199393,1.19679913 3.29899743,1.12488331 3.29899743,1.05596398 C3.29600094,0.963072707 3.28701146,0.870181438 3.28101848,0.771297184 C3.272029,0.612483078 3.26603602,0.447675988 3.24805706,0.28586539 C3.2330746,0.163009195 3.22408512,0.0731144183 3.22408512,-0.00179789553 C3.30798691,0.0491424779 3.40986766,0.124054792 3.52073788,0.216946061 C3.62561512,0.303844345 3.73648535,0.405725092 3.85334856,0.522588302 C3.97320826,0.636455019 4.09606445,0.765304199 4.21892065,0.900146364 C4.2398961,0.924118304 4.26087154,0.945093752 4.28184699,0.969065692 C4.41369267,1.11889032 4.54853483,1.27470793 4.67738401,1.43651853 C4.71034543,1.49345189 4.74330685,1.54738876 4.77626826,1.60132562 C4.89313147,1.80209062 5.00100521,1.99686264 5.10288595,2.19163465 L5.10288595,2.19463115 C5.14783334,2.27553645 5.18678774,2.35644175 5.22574215,2.43435055 C5.26469655,2.51525585 5.30365095,2.59616115 5.34260536,2.67107346 C5.34260536,2.67406996 5.34560185,2.67706645 5.34560185,2.68305943 C5.38155976,2.75497526 5.41452118,2.82988757 5.4474826,2.90479988 C5.486437,2.99469466 5.5283879,3.09058242 5.56434581,3.1804772 C5.57633178,3.21044212 5.58532125,3.23741056 5.59431073,3.2613825 C5.61228969,3.31232287 5.63026864,3.36026675 5.6482476,3.40521414 C5.66622655,3.4621475 5.69019849,3.51608436 5.70817745,3.57301772 C5.74113887,3.66590899 5.77709678,3.76179675 5.8070617,3.85768452 C5.81605118,3.88465295 5.82504066,3.91461787 5.83103364,3.9445828 C5.84601611,3.99552317 5.85800208,4.04946004 5.87298454,4.10339691 C5.87897752,4.12736885 5.887967,4.15733377 5.89695648,4.1843022 L5.89695648,4.1872987 C5.95089335,4.40004967 5.99584073,4.60680765 6.02880215,4.80457616 L6.02880215,4.80757266 C6.03479514,4.85851303 6.04678111,4.90645691 6.05277409,4.95440079 C6.07075305,5.09223945 6.08273902,5.22108863 6.09472499,5.3529343 C6.09472499,5.37390975 6.09772148,5.40087818 6.09772148,5.42784661 C6.09772148,5.43683609 6.09772148,5.44582557 6.09772148,5.45481505 C6.10671096,5.5956502 6.10970745,5.73049236 6.10671096,5.86233804 C6.10071797,6.08407848 6.08273902,6.29682946 6.0497776,6.49759446 C6.0497776,6.50059095 6.0497776,6.50059095 6.0497776,6.50358744 C5.98685126,6.91111043 5.87897752,7.27668252 5.74413536,7.60929319 C5.60929319,7.94190387 5.45047909,8.23556014 5.28267551,8.4932585 C5.27967901,8.49925148 5.27668252,8.50524447 5.27368603,8.50824096 C5.19577722,8.62810066 5.11487192,8.73897089 5.03696312,8.84984111 C5.02797364,8.86182708 5.01598767,8.87680955 5.0040017,8.89179201 C4.93208588,8.98767977 4.86017006,9.08356753 4.79125073,9.16746932 C4.78226125,9.18245179 4.77027528,9.19443776 4.75828931,9.20942022 C4.683377,9.30231149 4.60846468,9.38920977 4.54254185,9.47011507 C4.42867513,9.60495724 4.30581893,9.72182045 4.17696975,9.8207047 C4.13501886,9.85666261 4.08707498,9.87464157 4.04212759,9.90460649 C3.95223281,9.96753284 3.86233804,10.0274627 3.76645027,10.0754066 C3.70951691,10.102375 3.64958706,10.114361 3.58965721,10.1353364 C3.49976244,10.1682978 3.41286415,10.2072522 3.31997288,10.2282277 C3.25405005,10.2402137 3.18812721,10.2402137 3.11920788,10.2462066 C3.02032363,10.2581926 2.91844288,10.2761716 2.81656213,10.2731751 C2.50193042,10.2611891 2.19928467,10.1802838 1.92660384,10.0364522 C1.78876519,9.96453634 1.6629125,9.87763806 1.5430528,9.77575731 C1.42618959,9.67387657 1.31831586,9.56000985 1.22542459,9.43116067 C0.952743764,9.06259208 0.895810405,8.68203753 0.931768316,8.34643036 C0.949747271,8.17862678 0.991698167,8.02280917 1.03964205,7.88197402 C1.05162802,7.85200909 1.06661048,7.82204417 1.08159294,7.78908275 C1.09357891,7.75612133 1.10556488,7.72315991 1.12054735,7.69319499 C1.17448421,7.57633178 1.22842108,7.48344051 1.27037197,7.41751767 C1.29134742,7.38455625 1.30632989,7.36358081 1.31831586,7.34560185 C1.32730533,7.33661237 1.33030183,7.32762289 1.33329832,7.3246264 L1.33629481,7.3246264 C1.49510892,7.09689297 1.64193705,6.86017006 1.7827722,6.62045065 C1.83670907,6.52755938 1.89064593,6.43167162 1.9445828,6.33878035 C2.02249161,6.1979452 2.09440743,6.05711005 2.16332676,5.91327841 C2.32513735,5.59265371 2.47196549,5.26303952 2.60081467,4.93042885" id="Fill-46" fill="#FFFFFF" mask="url(#mask-6)"></path>
                        </g>
                        <path d="M59.965809,10.2096494 C60.0347283,10.1377336 60.1096407,10.0658178 60.190546,10.0028914 C60.3523566,9.85606331 60.5231566,9.72421764 60.6999497,9.57738951 C60.8827357,9.43355786 61.0655218,9.27474376 61.2543008,9.13091211 C62.9293402,7.86339576 64.8890463,6.79664441 67.1094473,5.97860195 C69.8122836,4.9897594 72.6739339,4.86690321 75.3527983,5.2324753 C75.0950999,5.80180889 74.7984472,6.31720561 74.4987979,6.74570404 C74.0523205,7.3240271 73.4500255,8.74436457 74.3819347,9.99390197 C74.9302928,10.7460216 75.7812967,11.1835095 76.6982234,11.2134744 C77.6391221,11.2494324 78.5410664,10.8329199 79.1733263,10.0837967 C79.7186879,9.44854033 80.6296217,8.35482054 80.905299,6.70674964 C83.1257,7.59670793 84.9475674,8.6934242 86.0083258,9.64930533 C88.0639197,11.4711728 92.6335709,16.5682066 92.5316901,25.4378246 C90.8356753,26.3247864 88.947885,27.0019937 87.6084528,27.0529341 C85.5948098,27.1158604 83.6171248,27.7271449 82.4964365,28.1346679 L82.6222892,27.7391309 L82.8829841,26.9031095 L82.0409697,27.1428289 C80.0183372,27.703173 78.8347226,29.4111737 78.2653891,30.4749286 C77.6421186,29.5729843 76.5933462,28.8538261 75.3527983,28.4013557 C75.5116124,27.5443589 75.5865247,26.3996987 75.3527983,25.0063297 C74.9602578,22.7439778 73.5459133,21.5873317 72.7158848,21.0869174 C72.7578357,21.047963 72.7937936,21.0120051 72.7937936,21.0120051 C73.8965029,19.9182853 74.9482718,18.8904884 76.0030372,18.9743902 C76.0030372,18.9743902 77.1357114,19.046306 77.6660905,19.6635834 C77.6660905,19.6635834 77.2345956,18.1383687 76.074953,18.0274985 C74.5856962,17.9166283 73.3930922,19.1002428 72.1255758,20.3377943 C72.1255758,20.3377943 71.238614,21.248728 70.2257995,21.5873317 C69.3418342,21.8839844 68.2001706,21.6232896 68.1402407,21.5993176 C67.3821281,21.2217596 66.7438752,20.9340963 66.7438752,20.9340963 L66.0636714,20.6014856 C66.0636714,20.6014856 65.6771238,21.3296333 66.3483382,21.7940897 C66.3573276,21.7940897 66.60304,21.9139494 66.9566261,22.07576 C65.8808853,23.0466235 65.8808853,24.9134384 65.8778888,25.0123227 C66.0426959,28.3384294 66.8127945,30.0464302 67.4989913,30.915413 C67.4750194,30.9453779 67.4450544,30.9813358 67.4330685,31.0083043 C67.0944648,30.6577146 66.5251312,30.2022478 65.5632571,29.6478966 C65.611201,28.8718051 65.6591449,27.502408 65.6022115,26.0251371 C65.5422817,24.3051504 64.4275864,22.8278796 63.7743511,22.0997319 C64.1429196,21.874995 64.5144847,21.5663562 64.9130182,21.1198788 C64.9130182,21.1198788 65.3235377,20.5894996 64.9160147,19.6456045 L64.2028495,20.4906154 C63.7174177,21.04197 63.2319859,21.3835702 62.7585401,21.5423843 C61.3621745,21.7761107 60.762876,20.7782787 60.7359076,20.7333313 L60.568104,20.439675 C60.568104,20.439675 60.5441321,20.445668 60.5351426,20.445668 C60.4542373,20.3048329 60.385318,20.1699907 60.3343776,20.0351485 C59.6302019,18.2162775 57.4367693,17.841716 57.343878,17.8267335 C56.4119688,17.622972 56.0493932,18.7706287 56.0493932,18.7706287 C56.5977514,18.5458917 57.1970499,18.7616392 57.1970499,18.7616392 C57.2150289,18.7616392 58.9470015,19.0672814 59.4534088,20.3767487 C59.4893667,20.4786294 59.5403071,20.5865032 59.5942439,20.6943769 C57.7064536,21.3925597 57.0232533,23.2653675 57.0022779,23.3582588 L56.9932884,23.3852272 L56.9842989,23.4032062 C56.2112038,26.9660358 56.7895269,29.0575876 57.3019271,30.1093565 C57.0921727,30.1872653 56.8644392,30.2921425 56.6576812,30.4090057 C56.7086216,30.3730478 56.759562,30.3370899 56.8134988,30.3101215 C56.0344108,28.4792645 54.7638979,24.7336488 54.9946279,20.3048329 C55.1864034,16.4453504 56.9573305,12.9544366 59.965809,10.2096494" id="Fill-49" fill="#9C050D"></path>
                        <path d="M59.7171001,29.6691717 C59.2886017,29.6332138 58.7821945,29.6571858 58.2128609,29.7710525 C57.7963484,28.9889679 57.1461095,27.1101671 57.9012256,23.5832954 C57.964152,23.4035058 58.5694435,21.920242 60.1246231,21.4647751 C60.5411356,21.9711824 61.0954867,22.3876948 61.7816835,22.5195405 C62.0933187,22.5704809 62.4558943,22.5704809 62.8604208,22.4566142 C63.1151227,22.717309 63.603551,23.2686636 64.005081,23.9728394 C63.3368631,23.8499832 62.1622381,23.8829446 60.7389041,25.0096258 C59.1387771,26.2741457 59.2466508,28.3716905 59.7171001,29.6691717" id="Fill-51" fill="#9C050D"></path>
                        <path d="M69.4922581,28.9170521 C68.9528895,29.2946102 68.4854366,29.7291016 68.1198646,30.1456141 C67.5864889,29.3845049 66.9662149,27.8922517 66.8223826,24.9796609 C66.8223826,24.9736679 66.8163903,22.9780039 67.9670434,22.5465089 C68.9019491,22.8941021 70.5829814,22.9210705 71.9943294,21.7494419 C72.2130734,21.8633086 72.551677,22.0700666 72.9322316,22.4026773 C72.1351646,22.3247685 69.2435493,22.3307615 68.9199281,26.5827844 C68.9199281,26.5827844 68.9199281,27.9072341 69.4922581,28.9170521" id="Fill-53" fill="#9C050D"></path>
                        <path d="M85.9465981,42.9954731 C85.9525911,42.9055783 85.9735665,42.812687 86.0095244,42.7317817 C86.1114052,42.4860693 86.3301491,42.3002868 86.6058264,42.216385 C86.7256861,42.1834236 86.8575318,42.1684411 86.9953705,42.1774306 C87.1961355,42.1924131 87.381918,42.2643289 87.5287461,42.3722026 C87.777455,42.5519922 87.9272796,42.836659 87.9063042,43.1512907 C87.8643533,43.6517049 87.393904,44.0202735 86.8545353,43.9783226 C86.7166967,43.9693332 86.590844,43.9333752 86.4769772,43.8794384 C86.1323806,43.7146313 85.9136366,43.3730311 85.9465981,42.9954731" id="Fill-55" fill="#9C050D"></path>
                        <path d="M85.2061648,43.8848321 C85.2151542,43.902811 85.2211472,43.92079 85.2301367,43.9387689 C84.513975,42.7371754 83.3513359,41.6734206 82.689111,41.1130765 L82.689111,41.1130765 C82.8808865,41.0022062 83.1325919,40.9123115 83.4232517,40.9302904 C83.7798343,40.9452729 84.1424099,41.1130765 84.5109785,41.4037362 C84.6727891,41.7513294 84.9394769,42.0569716 85.1881858,42.2787121 C85.0863051,42.4734841 85.0233787,42.692228 85.0083962,42.9259545 C84.9754348,43.2645581 85.0563401,43.5971688 85.2061648,43.8848321" id="Fill-57" fill="#9C050D"></path>
                        <path d="M82.086816,54.8702734 C82.1317634,54.849298 82.1767108,54.8283225 82.2186617,54.8103436 C82.2516231,54.8013541 82.2785915,54.7923646 82.3085565,54.7833751 C82.3834688,54.7594032 82.4433986,54.7474172 82.506325,54.7354313 C82.6261847,54.7084628 82.7310619,54.6934804 82.8059742,54.6964769 C82.8629076,54.6964769 82.907855,54.7024698 82.9408164,54.7114593 C82.9737778,54.7204488 82.9947533,54.7294383 83.0037427,54.7414242 C83.0037427,54.7414242 83.0397006,54.7983576 83.0247182,54.9631647 C83.0157287,55.0860209 82.9797708,55.2747999 82.8748935,55.5444843 C82.8419321,55.6313825 82.7999812,55.7302668 82.7520374,55.8381405 C82.6981005,55.9520072 82.6321777,56.0568845 82.5572653,56.1557687 C82.3325284,56.443432 82.0208932,56.6771584 81.679293,56.8539515 C81.3167174,57.045727 80.9181839,57.1805692 80.5616013,57.270464 C80.3848082,57.3154114 80.2140082,57.3543658 80.0641835,57.3813342 C79.9113624,57.4112991 79.7795167,57.4292781 79.6746395,57.4442605 C79.5188219,57.465236 79.4229341,57.4742255 79.4199376,57.4742255 L78.3262179,57.5431448 L78.254302,57.5491378 L79.1412638,58.3042539 C79.2341551,58.3821627 79.3300429,58.445089 79.4259306,58.5020224 C79.6207026,58.6098961 79.8184711,58.6788155 80.0042537,58.7327523 C80.097145,58.7597208 80.1870397,58.7836927 80.2709415,58.8016717 C80.3248784,58.8166541 80.3788153,58.8286401 80.4297556,58.8436226 C80.5556083,58.876584 80.6604856,58.9125419 80.7353979,58.9514963 C80.7503803,58.9604858 80.7683593,58.9694752 80.7803453,58.9814612 C80.7953277,58.9964437 80.8192997,59.0294051 80.8402751,59.071356 C80.8852225,59.1582543 80.9271734,59.284107 80.9271734,59.4099596 C80.9271734,59.4698895 80.9181839,59.5328158 80.8912155,59.5867527 C80.8612506,59.6526755 80.8103102,59.7096089 80.7353979,59.7575528 C80.6574891,59.8025002 80.5616013,59.8414546 80.4477346,59.8714195 C80.3638328,59.8923949 80.267945,59.9073774 80.1660643,59.9163669 C80.1331029,59.9193634 80.091152,59.9193634 80.0581905,59.9223599 C79.9742888,59.9253564 79.8933835,59.9313494 79.8034887,59.9283529 C79.7165904,59.9253564 79.6296921,59.9253564 79.5397973,59.9193634 C78.6768075,59.8504441 78.1434318,59.6496791 77.7898457,59.3620158 C77.6909614,59.2811105 77.6040631,59.1882192 77.5321473,59.0953279 C77.457235,58.9994402 77.3943087,58.9005559 77.3403718,58.7926822 C77.25647,58.6338681 77.1935437,58.4600715 77.1366103,58.2862749 C77.0976559,58.1664152 77.061698,58.0465555 77.0257401,57.9207028 L76.9747997,57.7499028 C76.9358453,57.6180571 76.8819084,57.4892079 76.8159856,57.3663517 C76.7500628,57.2434955 76.672154,57.1266323 76.5822592,57.0127656 C76.0039361,56.2876144 74.9761392,55.7692212 73.9213738,55.4785614 C73.5617947,55.3796772 73.1962226,55.3077613 72.845633,55.262814 C72.4171345,55.2088771 72.0605519,55.1010034 71.7848746,54.9451857 C71.6650149,54.8792629 71.5631342,54.8073471 71.4732394,54.7234453 C71.2065515,54.4747364 71.0627199,54.1541117 71.0447409,53.7555782 C71.0447409,53.7046378 71.0657164,53.650701 71.1046708,53.5907711 C71.221534,53.4169745 71.4852253,53.213213 71.7459202,53.0603919 C71.7968606,53.030427 71.8478009,53.0004621 71.8927483,52.9764901 C72.2553239,53.0334235 72.5759486,53.1892411 73.223191,53.5278448 C73.3400542,53.5847781 73.4629104,53.650701 73.5947561,53.7166238 C73.9962861,53.9263783 74.4996969,54.1810801 75.1529322,54.4777329 C75.4196201,54.6035856 75.6982939,54.6575225 75.9829607,54.6575225 C76.3485328,54.6575225 76.7230943,54.5646312 77.0856699,54.423796 C77.3493613,54.3159223 77.6070596,54.1840766 77.846779,54.034252 C78.3322108,53.7375992 78.7487233,53.3870096 79.0333901,53.1023428 C79.1772217,52.9615077 79.2850955,52.8386515 79.3540148,52.7487567 C79.4469061,52.6199075 79.6506676,52.4551004 79.9023729,52.3082723 C80.073173,52.209388 80.2649485,52.1164968 80.4597205,52.0445809 C80.6514961,51.9696686 80.8462681,51.9217248 81.0260576,51.9067423 C81.1159524,51.8977528 81.2028507,51.9007493 81.2807595,51.9127353 C81.3316999,51.9187283 81.3766473,51.9307142 81.4126052,51.9427002 C81.4545561,51.9576827 81.484521,51.9786581 81.5144859,52.0026301 C81.5744158,52.0535704 81.6133702,52.1194933 81.6463316,52.209388 C81.703265,52.3801881 81.6523246,52.5989321 81.5294684,52.8446445 C81.3406894,53.213213 80.9841067,53.638715 80.5735873,54.046238 C80.5046679,54.1151573 80.4327521,54.1840766 80.3608363,54.247003 C80.2649485,54.3368978 80.1660643,54.4178031 80.06718,54.5017048 C79.9682958,54.5856066 79.872408,54.6755014 79.7765202,54.7534102 C79.7165904,54.8013541 79.659657,54.843305 79.6027237,54.8882524 C79.4948499,54.9721542 79.3839797,55.056056 79.2791025,55.1279718 L78.5179934,55.6703369 L79.3989622,55.9609967 C79.5068359,55.9999511 79.6147096,56.0179301 79.7255799,56.0179301 C79.7525483,56.0179301 79.7765202,56.0059441 79.8034887,56.0059441 C79.8544291,55.9999511 79.9083659,55.9909616 79.9593063,55.9789757 C80.0551941,55.9609967 80.1510818,55.9370248 80.2529626,55.9010669 C80.3039029,55.8830879 80.3578398,55.8621125 80.4117767,55.8381405 C80.5196504,55.7901966 80.6245276,55.7362598 80.7324014,55.6763299 C80.7803453,55.6493615 80.8252926,55.6253895 80.8732365,55.5984211 C81.0200647,55.5115228 81.1698893,55.4156351 81.3227104,55.3167508 C81.4096087,55.262814 81.4995035,55.2058806 81.5864018,55.1549402 C81.7601983,55.0470665 81.9309984,54.9421892 82.086816,54.8702734" id="Fill-59" fill="#9C050D"></path>
                        <path d="M61.5051072,46.6182326 L62.6317884,45.9769832 C62.6677464,46.1268078 62.6917183,46.2706394 62.7636341,46.4354465 C62.8565254,46.6841554 62.9584061,46.8969064 63.0662799,47.0916784 C63.1022378,47.1546047 63.1411922,47.2055451 63.1771501,47.265475 C63.2550589,47.3883312 63.3329677,47.5051944 63.4168695,47.6040786 C63.4618169,47.6580155 63.5037678,47.7059594 63.5487152,47.7539033 C63.632617,47.843798 63.7195152,47.9247033 63.8064135,47.9936227 C63.8483644,48.0295806 63.8903153,48.0655385 63.9352627,48.0984999 C64.0401399,48.1764087 64.1480137,48.2363386 64.2558874,48.2932719 C64.2798593,48.3022614 64.3038313,48.3172439 64.3248067,48.3292298 C64.4566524,48.3891597 64.5884981,48.4311106 64.7203438,48.4670685 C64.7592982,48.476058 64.7952561,48.4790545 64.831214,48.4880439 C64.9271017,48.5060229 65.0169965,48.5240018 65.1068913,48.5299948 C65.1518387,48.5359878 65.1937896,48.5389843 65.238737,48.5389843 C65.2746949,48.5419808 65.3136493,48.5479738 65.3526037,48.5479738 C65.3765756,48.5479738 65.3975511,48.5419808 65.4245195,48.5389843 C65.5863301,48.5359878 65.7451442,48.5210054 65.8769899,48.4970334 C66.1077198,48.4550825 66.4912709,48.3022614 66.6800499,47.7059594 C66.8658324,47.1396223 66.7999096,46.2676429 66.5901551,45.5514812 C66.5212358,45.3087653 66.437334,45.0840284 66.3384497,44.8982459 L66.3384497,44.8982459 L66.3534322,44.8982459 C66.3594252,44.8982459 66.3654182,44.8982459 66.3684147,44.8952494 C66.4523165,44.8922529 66.5512007,44.9072353 66.644092,44.9192213 C66.7040218,44.9252143 66.7579587,44.9252143 66.820885,44.9342038 C66.9197693,44.9491862 67.02165,44.9731582 67.1235308,45.0001266 C67.1804641,45.0121126 67.234401,45.021102 67.2913344,45.0360845 C67.4052011,45.0660494 67.5160713,45.1050038 67.623945,45.1409617 C67.6718889,45.1559442 67.7168363,45.1679302 67.7617837,45.1829126 C67.9146048,45.2368495 68.061433,45.2937829 68.1962751,45.3507162 C69.1521562,47.2954399 70.0900584,48.7097844 70.9620377,49.7465708 C71.2526975,50.0911674 71.5373643,50.3968097 71.8100451,50.6634975 C71.7471188,50.690466 71.6781995,50.7204309 71.6122766,50.7503958 C71.3635677,50.8582695 71.1178554,50.9511608 70.8691465,51.0290696 L70.7642692,51.062031 C70.5035744,51.1429363 70.2428795,51.2028662 69.9791882,51.2508101 C69.9372373,51.2597995 69.8952864,51.2657925 69.8533355,51.274782 C69.5926406,51.3137364 69.3289493,51.3407048 69.0682545,51.3526908 C69.0173141,51.3556873 68.9633772,51.3556873 68.9124368,51.3586838 C68.6427525,51.3646768 68.3730682,51.3586838 68.1033838,51.3317154 C67.4022046,51.268789 66.7729412,51.0470486 66.224583,50.7503958 C66.2155935,50.7444028 66.2066041,50.7384098 66.1976146,50.7354133 C66.0747584,50.666494 65.9548987,50.5945782 65.8380355,50.5196659 C65.8200565,50.5076799 65.8050741,50.4986904 65.7900916,50.4867045 C65.6852144,50.4177851 65.5803371,50.3428728 65.4814529,50.270957 L65.421523,50.2260096 C65.3286317,50.1540938 65.2417335,50.082178 65.1548352,50.0102622 C65.1338597,49.9922832 65.1098878,49.9713077 65.0889123,49.9533288 C65.008007,49.887406 64.9360912,49.8154901 64.8641754,49.7495673 C64.8402035,49.7255954 64.813235,49.7016234 64.7892631,49.6776515 C64.7323297,49.6237146 64.6783929,49.5667813 64.6274525,49.5158409 C64.1270382,49.0004442 63.827389,48.5509703 63.7584696,48.4371036 L63.7494802,48.4430965 C63.7075293,48.3831667 63.6745679,48.3292298 63.6505959,48.2962684 C63.626624,48.257314 63.614638,48.2363386 63.6116415,48.2333421 L63.4917818,48.0205911 C63.4917818,48.0145981 63.231087,48.0026121 63.231087,48.0026121 C62.002525,47.9247033 61.4661528,47.7179453 61.2294299,47.5651242 C61.0885948,47.472233 61.0556334,47.4003171 61.0466439,47.3793417 C60.992707,47.1875662 61.2803703,46.8160011 61.5051072,46.6182326" id="Fill-61" fill="#9C050D"></path>
                        <path d="M65.4143314,45.1667316 C65.6270824,45.388472 65.9087527,46.3773146 65.8338404,47.1324307 C65.8038755,47.4380729 65.7319596,47.5519397 65.6989982,47.5759116 C64.7610961,47.7407187 64.0778957,47.2642764 63.6404078,46.1046338 C63.568492,45.8948793 63.5205481,45.7240792 63.4875867,45.5652651 C63.3287726,44.7622051 63.6673763,44.4835313 63.6883517,44.4745418 C63.7722535,44.4176084 63.8921132,44.396633 64.0209624,44.4056225 C64.1018677,44.408619 64.182773,44.4415804 64.2666748,44.4685488 C64.3236081,44.4805348 64.383538,44.4865278 64.4404713,44.5104997 C64.57831,44.5704296 64.7161487,44.6423454 64.8539873,44.7292437 C64.8599803,44.7292437 64.8599803,44.7322402 64.8599803,44.7382331 C65.0128014,44.8341209 65.1566331,44.9449911 65.2884787,45.0618543 C65.3274331,45.1008087 65.3663875,45.1277772 65.4143314,45.1667316" id="Fill-63" fill="#9C050D"></path>
                        <path d="M60.017049,41.9478993 C60.0140525,41.7441378 60.041021,41.5493658 60.1458982,41.4145236 C60.5833861,40.8242146 61.1137653,41.069927 61.2965514,41.1778007 C61.3414987,41.2227481 61.5182918,41.3995411 61.7190568,41.654243 C61.7190568,41.654243 62.2014921,42.3883837 62.3842782,42.8228751 C62.5790502,43.2633595 62.6749379,43.9375703 62.6090151,44.2312266 C62.6060186,44.282167 62.6120116,44.3510863 62.5910361,44.3900407 C62.5700607,44.4230021 62.4891554,44.5398653 62.1625377,44.5608408 C61.7670007,44.5908057 61.5003129,44.5518513 61.3295128,44.5069039 C61.2785724,44.2042582 61.1856811,43.9255844 61.0987829,43.6888615 C61.026867,43.5270509 60.6403195,42.6400891 60.017049,41.9478993" id="Fill-65" fill="#9C050D"></path>
                        <path d="M60.458732,45.102307 C60.4677215,45.4469036 60.4137847,45.7855073 60.1411038,45.9203495 C59.3620158,46.31289 58.5799312,45.3060685 58.0465555,44.3921383 C57.7409133,43.8647556 57.7798677,43.2175132 57.8697625,42.7740323 C57.9656502,42.267625 58.3312223,42.0818425 58.4151241,42.0578706 C58.645854,42.0189162 58.9005559,42.1627478 59.1432718,42.3874847 C59.1432718,42.3874847 59.685637,43.0197447 59.9852862,43.6669871 C59.9852862,43.6669871 60.3928092,44.5539489 60.458732,45.102307" id="Fill-67" fill="#9C050D"></path>
                        <path d="M63.528339,43.5102705 C63.4264583,42.9798913 63.2226968,42.4555051 63.0728721,42.1049155 L63.0189353,41.9760663 C62.9470195,41.7872873 62.8481352,41.6045012 62.7342685,41.4456871 C62.8361492,41.2329362 63.0219318,41.1280589 63.120816,41.0771185 C63.4684092,41.0081992 63.7560724,41.0771185 64.0167673,41.3228309 C64.6040798,41.8532101 64.8587817,43.0338282 64.7898624,43.6211407 C64.3673569,43.4563336 63.935862,43.3844178 63.528339,43.5102705" id="Fill-69" fill="#9C050D"></path>
                        <path d="M65.3178444,41.61409 L65.863206,41.3773671 L66.3576273,41.1586231 C67.073789,41.4702584 67.7599858,41.7729041 68.272386,42.009627 L68.0296701,42.5879501 C67.2415926,42.9685046 66.4804835,43.3490592 65.7253674,43.7056418 C65.7852972,43.1722661 65.6474586,42.3512272 65.3178444,41.61409" id="Fill-71" fill="#9C050D"></path>
                        <path d="M46.1918317,51.9525886 C46.1019369,51.8057605 46.048,51.6409534 46.0300211,51.4671568 C45.9940632,50.6581038 46.8210951,49.9299562 47.4443656,49.5793665 C49.3890892,48.4766573 51.5345779,47.7604955 53.5781858,46.8525583 L53.5841788,46.8555548 C54.6209652,46.3940949 55.6637447,45.9296386 56.7005311,45.4681787 L56.7005311,45.4651822 L57.4106998,45.147554 C57.7792684,45.7318701 58.2467212,46.3281721 58.8610022,46.6787617 L58.6542442,46.771653 L58.5014231,46.8375758 L55.0884181,48.3538011 L53.2455752,49.1718435 C52.1398694,49.6213174 51.0401566,50.0737878 49.9284579,50.5082792 C49.1763383,50.798939 48.4182257,51.0866023 47.6631095,51.3772621 C47.3994182,51.4761463 46.9349618,51.6859008 46.1918317,51.9525886" id="Fill-73" fill="#9C050D"></path>
                        <path d="M57.0729951,48.7424462 C56.6894441,48.9611901 56.3388544,49.1649516 56.0272192,49.3417447 C55.5597664,49.6084325 55.1732188,49.8271765 54.8735696,50.0039695 C54.8406081,50.0219485 54.8076467,50.0399274 54.7776818,50.0549099 C54.717752,50.0908678 54.6608186,50.1238292 54.6068817,50.1537941 C54.2652816,50.3515627 54.085492,50.4534434 54.085492,50.4534434 C54.085492,50.4534434 53.8337867,50.6002715 53.4262637,50.822012 C53.4052882,50.833998 53.3873093,50.8429874 53.3663338,50.8549734 C53.306404,50.8879348 53.2404811,50.9238927 53.1745583,50.9568541 C53.099646,50.998805 53.0277302,51.0377594 52.9498213,51.0767139 C52.9108669,51.0946928 52.8719125,51.1186647 52.8299616,51.1396402 C52.7190914,51.1965736 52.6022282,51.2565034 52.479372,51.3164333 C52.4583966,51.3284192 52.4344246,51.3404052 52.4104527,51.3523912 C52.266621,51.4273035 52.1197929,51.4962228 51.9669718,51.5711351 C51.9549858,51.5771281 51.9459963,51.5801246 51.9340104,51.5861176 C50.4986904,52.2783074 48.6798195,53.0064551 47.5381558,52.9435287 C47.3493768,52.9345392 47.1665907,52.9225533 47.0197626,52.8626234 L47.0197626,52.8626234 L47.0197626,52.8596269 L47.0976714,52.823669 L55.4309172,49.1230007 L58.8439222,47.6067755 L58.9967433,47.5408526 L59.7608489,47.1992525 L59.7608489,47.1992525 L59.7698384,47.196256 L59.7698384,47.2052455 C59.6499787,47.2741648 59.5331155,47.3400876 59.4162523,47.409007 C59.2574382,47.4959052 59.1046171,47.5858 58.9517959,47.6726983 C58.7750029,47.7745791 58.6012063,47.8704668 58.4334027,47.9663546 C57.9389815,48.2480249 57.4865111,48.5087197 57.0729951,48.7424462" id="Fill-75" fill="#9C050D"></path>
                        <path d="M99.6429662,23.096665 C100.751668,21.5984187 102.025178,20.3129234 103.697221,19.476902 C105.845706,18.4011611 108.266872,17.9247188 110.646087,17.7149643 C109.183799,18.2633225 107.787433,18.9944667 106.51692,19.8994074 C105.668913,20.5017024 104.497284,21.3437168 104.293523,22.4614085 C103.745165,25.4908625 109.357595,24.5529603 110.864831,24.1873883 C110.172641,24.6578376 109.348606,25.1642448 108.827216,25.8294662 C107.916282,26.9891088 108.377742,28.4663796 109.804072,28.8259587 C111.21542,29.1825413 112.88147,28.5562744 114.178952,28.0438742 C115.949879,27.3426949 117.636904,26.4257682 119.275985,25.4579011 C119.216056,25.5148345 119.153129,25.5657748 119.093199,25.6197117 C119.03327,25.6706521 118.97334,25.7245889 118.91341,25.7755293 C114.694348,29.3563379 108.983034,31.9902549 103.421543,31.2261493 C102.360785,31.0793211 99.7927909,30.2403032 99.3822714,30.2702681 C98.3364955,30.336191 97.1558774,30.8665702 96.2119823,31.2681002 C95.2081573,31.6936021 94.1414059,32.0262128 93.113609,32.3977779 C93.5660793,31.8614057 93.9825918,31.2920721 94.3631464,30.7017631 C94.8276027,29.9826049 95.3489924,29.8897136 96.1490559,29.5870678 C96.6614561,29.3922958 97.6742706,29.0327167 98.5132885,28.6911166 C98.6241588,28.6461692 98.4653447,28.0318882 98.4563552,27.8850601 C98.4263903,27.3696634 98.4593517,26.8482736 98.528271,26.3358734 C98.6810921,25.1942098 99.0556537,24.082511 99.6429662,23.090672 C99.6429662,23.090672 99.6429662,23.0936685 99.6429662,23.096665" id="Fill-77" fill="#9C050D"></path>
                        <path d="M110.750964,31.8230506 C108.191959,32.8029037 106.424029,33.0576055 103.709207,32.7070159 C101.440862,32.4133596 100.15237,31.448489 98.7919624,31.844026 C97.2787336,32.2845104 95.7984663,32.9497318 94.3421709,33.5430373 C93.0147247,34.082406 91.684282,34.6217746 90.3568358,35.1611433 C92.1427454,33.5190654 95.0103887,32.7309878 97.2367827,31.7810997 C98.1117585,31.4065381 99.0346783,31.0020116 99.9755769,31.1997801 C100.637802,31.3406153 101.114244,31.5024259 101.755493,31.655247 C104.479305,32.3144754 105.923615,32.2036051 108.057117,31.8769875 C110.906782,31.436503 113.348923,30.3847342 115.674201,28.7037018 C116.854819,27.8497015 118.377038,26.5372377 119.386856,25.40756 C119.407831,25.3955741 119.428807,25.3895811 119.446786,25.3745986 C117.160462,28.2152735 114.163969,30.5135833 110.750964,31.8230506" id="Fill-79" fill="#9C050D"></path>
                        <path d="M68.3407061,36.5167565 L68.3347131,36.519753 C67.5766005,36.933269 67.2230143,37.7153535 67.2200178,37.724343 C67.2200178,37.724343 66.5547965,37.2868551 66.9892879,36.3939003 C66.0633717,36.3459564 65.5389855,36.6995426 65.2752942,36.9632339 C66.7615545,37.9221115 68.6163834,38.7251715 70.3963,38.2637117 C71.3401951,38.0239923 72.0713393,37.5325675 72.6556553,36.9572409 C71.1963635,34.9795558 68.4665587,36.4508337 68.3407061,36.5167565" id="Fill-81" fill="#9C050D"></path>
                        <path d="M94.3068123,27.1760899 C93.5337172,28.1649325 92.2392324,28.9260416 90.9057932,29.4893822 C90.4623123,29.6811577 90.0128385,29.8489613 89.578347,29.9927929 C89.1468521,30.1426176 88.7243467,30.2684702 88.3377991,30.376344 C87.169167,30.7029617 86.2911947,30.8587793 86.177328,30.8827512 C86.1503596,30.8827512 84.9068152,31.0835162 83.6692637,31.8086674 C83.5314251,31.8865762 83.3935864,31.976471 83.2587442,32.0693623 C82.4466948,32.6327029 81.6945751,33.4507453 81.364961,34.6133845 C81.2930451,34.8830688 81.2660767,35.1108022 81.2840557,35.3055742 C81.2960416,35.401462 81.3170171,35.4883603 81.3499785,35.5692656 C81.3829399,35.6471744 81.4278873,35.7220867 81.4848207,35.7820166 C81.559733,35.8689148 81.6586172,35.9378342 81.766491,35.9947675 C81.8024489,36.0127465 81.8384068,36.0277289 81.8743647,36.0427114 C81.9582665,36.0816658 82.0481613,36.1116307 82.144049,36.1385992 C82.1859999,36.1475886 82.2219578,36.1595746 82.2609122,36.1685641 C82.3867649,36.198529 82.5156141,36.2195045 82.6444633,36.2314904 C82.6564492,36.2314904 82.6624422,36.2314904 82.6714317,36.2344869 C82.8152633,36.2464729 82.953102,36.2524659 83.0879442,36.2524659 L83.2048074,36.2524659 C83.3006951,36.2494694 83.3935864,36.2464729 83.4804847,36.2404799 C83.5104496,36.2374834 83.543411,36.2374834 83.573376,36.2344869 C83.6782532,36.2284939 83.774141,36.216508 83.8430603,36.2075185 C84.2116289,36.1685641 84.6850747,36.0726763 85.1285556,35.9677991 C85.8686893,35.791006 86.5339106,35.5872445 86.5339106,35.5872445 C86.4200439,35.7310762 86.2971877,35.8659183 86.1623455,35.985778 C85.2424223,36.8487679 83.9838954,37.1394277 83.9838954,37.1394277 L83.9838954,37.1394277 C83.9599235,37.1424242 83.9119796,37.1514136 83.8490533,37.1574066 C83.8280778,37.1604031 83.8100989,37.1604031 83.7861269,37.1633996 C83.7291936,37.1723891 83.6632707,37.1783821 83.5853619,37.1843751 C83.5524005,37.1873716 83.5254321,37.1873716 83.4864777,37.1903681 C83.3816004,37.196361 83.2677337,37.202354 83.141881,37.202354 L83.1149126,37.202354 L83.1119161,37.202354 L83.0879442,37.202354 C82.9291301,37.202354 82.75833,37.1903681 82.5815369,37.1753856 C82.5216071,37.1693926 82.4646737,37.1574066 82.4047439,37.1484172 C82.2699017,37.1304382 82.138056,37.1064663 82.0032139,37.0765013 C81.9342945,37.0585224 81.8683717,37.0405434 81.8024489,37.019568 C81.6676067,36.9776171 81.541754,36.9266767 81.4159013,36.8637504 C81.358968,36.8397784 81.2990381,36.8158065 81.2421048,36.7828451 C81.0713047,36.6839608 80.9094941,36.5670976 80.7716554,36.4142765 C80.4390448,36.0337219 80.2952131,35.5482901 80.343157,34.9699671 C80.3611359,34.7751951 80.3970939,34.5744301 80.4600202,34.3556861 C81.4998031,30.6580143 85.8447173,29.9778105 86.0065279,29.9538385 C86.0634613,29.9448491 90.3064947,29.4084769 92.802573,27.6135778 C94.2918298,26.6996476 95.1338442,25.3991698 95.1338442,25.3991698 C95.0319635,26.1902439 94.3068123,27.1760899 94.3068123,27.1760899 L94.3068123,27.1760899 Z M75.5098145,33.7264227 C75.488839,33.8163174 75.2401302,34.9310127 74.5119825,36.1445921 C74.4220877,36.2974133 74.3232034,36.4532309 74.2153297,36.6030555 C74.0025787,36.9116942 73.7568664,37.220333 73.4751961,37.5079963 C73.3313644,37.6548244 73.1845363,37.7956595 73.0257222,37.9334982 C72.3904657,38.4758634 71.5993917,38.9313302 70.6285281,39.1800391 C70.4097842,39.233976 70.1940367,39.2759269 69.9782892,39.3028953 C69.9063734,39.3118848 69.8374541,39.3118848 69.7685348,39.3178778 C69.6217066,39.3298637 69.477875,39.3418497 69.3340433,39.3418497 C69.3310468,39.3418497 69.3250539,39.3448462 69.3190609,39.3448462 C69.3100714,39.3448462 69.2980854,39.3418497 69.2860995,39.3418497 C68.9594818,39.3388532 68.6298676,39.3028953 68.3062464,39.2459619 C68.2642955,39.239969 68.2193481,39.233976 68.1744007,39.2249865 C67.859769,39.1650566 67.5481338,39.0811549 67.2424915,38.9792741 C67.1855582,38.9612952 67.1256283,38.9433162 67.068695,38.9223407 C66.7720422,38.814467 66.4753894,38.6946073 66.1877262,38.5597651 L66.046891,38.4878493 C65.7532347,38.3470142 65.4655715,38.1941931 65.1898941,38.029386 C65.1839012,38.0263895 65.1779082,38.0203965 65.1719152,38.0174 C64.8962379,37.8525929 64.6325465,37.6817928 64.3778447,37.5079963 C64.3418867,37.4810278 64.3059288,37.4600524 64.2699709,37.4330839 C64.0302515,37.2652804 63.8025181,37.1004733 63.5867706,36.9356662 C63.5448197,36.9027048 63.5058653,36.8697433 63.4639144,36.8397784 C63.2571564,36.6779678 63.0593879,36.5221502 62.8825949,36.3723256 C62.8496335,36.3483536 62.822665,36.3243817 62.7897036,36.2974133 C62.6189035,36.1535816 62.4570929,36.015743 62.3162578,35.8958833 C62.22037,35.8119815 62.1364682,35.7400657 62.0645524,35.6801358 C61.9926366,35.6172095 61.9327067,35.5722621 61.8847628,35.5363042 L60.9079063,34.793174 L62.1244823,34.6823038 C62.1244823,34.6853003 62.1454577,34.6823038 62.1514507,34.6823038 C62.1664331,34.6793073 62.1784191,34.6793073 62.2173735,34.6763108 C62.232356,34.6733143 62.2593244,34.6703178 62.2773034,34.6703178 C62.3282437,34.6643248 62.3791841,34.6583318 62.4510999,34.6493424 C62.5230158,34.6433494 62.6129105,34.6313634 62.7058018,34.6193774 C62.7357667,34.6163809 62.7597387,34.6133845 62.7927001,34.6073915 C62.8915843,34.598402 63.0054511,34.580423 63.1163213,34.5654406 C63.1522792,34.5594476 63.1822441,34.5564511 63.218202,34.5504581 C63.3080968,34.5354756 63.4039846,34.5204932 63.4998723,34.5025142 C63.5627987,34.4935248 63.625725,34.4845353 63.6886514,34.4755458 C63.7935286,34.4545703 63.9014023,34.4335949 64.0092761,34.4126195 C64.0632129,34.4006335 64.1171498,34.391644 64.1710867,34.379658 C64.2819569,34.3556861 64.3898306,34.3287177 64.4977044,34.3017492 C64.5426517,34.2897633 64.5905956,34.2777773 64.635543,34.2657913 C64.7853676,34.2298334 64.9232063,34.184886 65.049059,34.1369421 C65.2228556,34.0740158 65.3996486,34.0110895 65.5734452,33.9541561 C65.6243856,33.9361771 65.6783224,33.9181982 65.7292628,33.9032157 C65.8760909,33.8552718 66.0229191,33.8163174 66.1697472,33.777363 C66.2146946,33.7653771 66.2626385,33.7503946 66.3105824,33.7414051 C66.4993614,33.6964577 66.6941334,33.6604998 66.8948984,33.6335314 C66.9338528,33.6275384 66.9758037,33.6245419 67.0177546,33.6185489 C67.1795652,33.6035665 67.3503653,33.5915805 67.5241618,33.588584 C67.5601197,33.588584 67.5930812,33.582591 67.6290391,33.582591 C67.659004,33.582591 67.6919654,33.588584 67.7249268,33.588584 C67.859769,33.5915805 68.0036006,33.60057 68.1474323,33.6095594 C68.2133551,33.6185489 68.279278,33.6215454 68.3481973,33.6305349 C68.5639448,33.6575033 68.7856852,33.6964577 69.0194116,33.7503946 L69.3370398,33.8342964 C69.6426821,33.9092087 69.9573138,33.9811245 70.2839315,34.0440509 C70.3228859,34.0500439 70.3588438,34.0590333 70.3977982,34.0650263 C70.7184229,34.1189632 71.0630195,34.1549211 71.4196022,34.1609141 C71.4825285,34.1609141 71.5394619,34.1669071 71.6023882,34.1639106 C71.7312374,34.1639106 71.8660796,34.1489281 72.0009217,34.1399386 C72.1028025,34.1309492 72.2046832,34.1249562 72.3125569,34.1099737 C72.4593851,34.0889983 72.6122062,34.0530403 72.7650273,34.0170824 C72.8699046,33.9931105 72.9717853,33.9811245 73.079659,33.9481631 C73.2564521,33.8972227 73.4392381,33.8283034 73.6250207,33.7593841 C73.7209084,33.7234262 73.8137997,33.6964577 73.912684,33.6545068 C74.2033437,33.5316506 74.502993,33.3848225 74.8206212,33.2080294 L75.7285585,32.7016222 L75.5098145,33.7264227 Z M90.8218915,27.2480058 C89.6802278,27.6824972 88.5595396,27.9641675 87.6306269,27.9911359 C84.8319028,28.0870237 81.9642595,29.3575365 81.937291,29.366526 L80.9694239,29.8040139 L81.2960416,28.8001889 L81.4069118,28.4196343 C79.5700619,29.4444348 78.7520194,31.6618393 78.7340405,31.6858112 L78.7340405,31.6828147 L78.2785736,32.9563241 L77.8500752,31.6768217 C77.7901453,31.4940357 77.7002506,31.3172426 77.5863838,31.1374531 C77.5504259,31.0805197 77.4964891,31.0235864 77.4515417,30.966653 C77.3706364,30.8527863 77.2867346,30.7329266 77.1818573,30.6190599 C77.118931,30.5561335 77.0410222,30.4932072 76.9691064,30.4302808 C76.8642291,30.3313966 76.7653449,30.2325123 76.6424887,30.1396211 C76.5615834,30.0736982 76.4597026,30.0167649 76.3698079,29.956835 C76.2469517,29.8699367 76.127092,29.7860349 75.9892533,29.7111226 C75.8873726,29.6511928 75.7675129,29.6032489 75.6596391,29.549312 C75.5158075,29.4833892 75.3809653,29.4084769 75.2281442,29.3515435 C75.1082845,29.3006032 74.9734423,29.2646452 74.8475896,29.2256908 C74.691772,29.171754 74.5359544,29.1178171 74.3711473,29.0788627 C74.2333087,29.0429048 74.0864805,29.0189329 73.9456454,28.9919644 C73.7748453,28.964996 73.6070417,28.9290381 73.4302487,28.9080626 C73.2774275,28.8900837 73.1216099,28.8870872 72.9687888,28.8780977 C72.7440519,28.8661117 72.5223114,28.8511293 72.288585,28.8571223 C71.3057354,28.8870872 70.4367526,29.3455505 69.7385698,29.9028982 C69.2741135,30.2744632 68.8845695,30.6939722 68.5849202,31.0625408 C68.1294533,31.6138954 67.877748,32.0573763 67.871755,32.0723588 C67.871755,32.0723588 67.8627655,32.0873412 67.847783,32.1113132 C67.8028356,32.195215 67.7009549,32.378001 67.5960777,32.56678 C67.5631162,32.6297064 67.5271583,32.6926327 67.4971934,32.7495661 C67.4013056,32.9293556 67.3263933,33.0761838 67.3263933,33.0881697 L67.0117616,31.99445 C67.0087651,31.9914535 66.7450738,31.4161269 65.0850169,30.4572493 C64.9262028,30.364358 64.7823711,30.3194106 64.6445325,30.2894457 C64.6115711,30.2834527 64.5816061,30.2774597 64.5456482,30.2744632 C64.4138026,30.2594808 64.2849534,30.2654738 64.1710867,30.3134176 C63.8774304,30.4392703 63.637711,30.7479091 63.4609179,31.0715303 C63.3260758,31.3112497 63.230188,31.5599585 63.1732546,31.7427446 C63.1522792,31.8056709 63.1372967,31.8566113 63.1283073,31.9045552 L62.8706089,32.9233627 L62.2773034,32.0633693 C62.0915208,31.7966815 61.7978646,31.5000287 61.411317,31.2513198 C61.021773,31.0026109 60.5363412,30.7988494 59.9730006,30.7089547 C59.793211,30.6789897 59.5894496,30.6610108 59.3647126,30.6580143 C59.3377442,30.6580143 59.3107757,30.6550178 59.2838073,30.6550178 C59.1010213,30.6580143 58.9062492,30.6729967 58.6994913,30.7029617 C58.6515474,30.7119511 58.600607,30.7209406 58.5526631,30.7299301 C58.3578911,30.7628915 58.1541296,30.8108354 57.9383822,30.8767582 C57.9114137,30.8857477 57.8874418,30.8917407 57.8574769,30.9007302 C57.6237504,30.9816355 57.378038,31.0895092 57.1293292,31.2153619 C57.0693993,31.2453268 57.0094695,31.2782882 56.9495396,31.3112497 C56.6858483,31.4550813 56.4191604,31.6168919 56.1434831,31.8236499 C54.5014052,33.0282399 54.4474683,34.3107387 54.6811947,35.1557496 C54.8220299,35.6651533 55.0677423,36.015743 55.1306686,36.1026413 L55.16363,36.1505851 L55.1786125,36.1955325 C56.2243884,38.5327967 59.5504951,38.6496599 61.5341732,38.7215757 C62.0945173,38.7395547 62.5350017,38.7545372 62.8436405,38.8174635 C64.1591007,39.0901443 68.887566,41.2566084 69.0853345,41.3494997 L69.4988504,41.5472682 L69.3250539,41.9727702 L68.5249904,43.8186096 C69.7475593,46.5604003 70.9461563,48.3373204 71.9919322,49.496963 C72.2915815,49.8295736 72.5792448,50.1082475 72.8489291,50.3419739 C73.1216099,50.5816933 73.3793083,50.7734688 73.6160312,50.9322829 C74.2093367,51.3278199 74.691772,51.5016165 75.0123967,51.5795253 C75.0543476,50.4558406 75.3929513,49.5988437 75.7585234,49.0085347 C74.8086352,48.067636 74.2003473,47.1207444 73.8137997,46.2307861 C73.6220242,45.7843087 73.487182,45.3528138 73.3942908,44.9422943 C73.2115047,44.1212553 73.2025152,43.3811217 73.2594486,42.7878161 C73.3013995,42.3413388 73.3823048,41.9697737 73.4572171,41.7090788 C73.5291329,41.4453875 73.5950558,41.2835769 73.6100382,41.2506155 C74.0175612,40.4775204 75.1412459,40.2018431 75.1412459,40.2018431 C75.0243827,40.3606572 74.922502,40.5344537 74.8386002,40.6992608 C74.5838983,41.1936821 74.4700316,41.625177 74.4700316,41.625177 C74.4490561,41.6851069 74.1913578,42.3323493 74.1733788,43.3151988 C74.1673858,43.7347078 74.2063402,44.2201396 74.3261999,44.7445258 C74.4041087,45.0951154 74.520972,45.463684 74.685779,45.8442386 C75.0123967,46.6053477 75.5277935,47.4203936 76.327857,48.2354396 C76.4926641,48.0706325 76.6155203,47.9717483 76.6394922,47.9537693 C76.7323835,47.9088219 76.8222782,47.878857 76.9091765,47.860878 C76.9391414,47.8548851 76.9661099,47.8548851 76.9960748,47.8518886 C77.0350292,47.8488921 77.0769801,47.8399026 77.1159345,47.8399026 C77.1279205,47.8399026 77.1399064,47.8428991 77.1488959,47.8458956 C77.2747486,47.8488921 77.3886153,47.8698675 77.4994856,47.9088219 C77.5234575,47.9148149 77.5414364,47.9238044 77.5654084,47.9327939 C77.6582997,47.9657553 77.7481944,48.0077062 77.8231068,48.0556501 C77.8350927,48.061643 77.8470787,48.067636 77.8590647,48.0766255 C77.9429665,48.1245694 78.0088893,48.1725133 78.0568332,48.2144642 C78.0748121,48.2264501 78.0778086,48.2294466 78.0897946,48.2414326 C78.1257525,48.268401 78.1467279,48.2893765 78.1467279,48.2893765 C77.6103558,48.4302116 77.2178153,48.7028924 77.2178153,48.7028924 C77.2028328,48.7118819 77.1159345,48.7837977 76.9990713,48.9126469 C76.9391414,48.9785698 76.8702221,49.0594751 76.7983063,49.1523663 C76.6544747,49.3411454 76.4956605,49.5928507 76.3548254,49.9104789 C76.2859061,50.0662966 76.2169867,50.2400931 76.1600534,50.4318687 C76.0491832,50.8094267 75.9712744,51.2529076 75.9652814,51.7653078 L75.9622849,51.7653078 C75.9622849,51.7742973 75.9652814,51.7832868 75.9652814,51.7892798 L75.9652814,51.8911605 C75.9652814,51.9241219 75.9652814,51.9600799 75.9652814,51.9900448 L75.9682779,51.9900448 L75.9682779,51.9900448 C75.9682779,51.9900448 75.9712744,52.4275327 76.1001235,53.0268312 C76.1420744,53.2275962 76.2020043,53.4493367 76.2769166,53.6740736 L76.2769166,53.6770701 C76.3518289,53.6710771 76.4357307,53.6351192 76.5136395,53.6111473 C76.7503624,53.5422279 76.9930783,53.4313577 77.2268047,53.299512 C77.2298012,53.2965155 77.2357942,53.293519 77.2387907,53.293519 L77.2417872,53.293519 C77.6163488,53.0777716 77.9639419,52.8140802 78.2246368,52.5773573 C78.3055421,52.502445 78.3774579,52.4335257 78.4403842,52.3646064 C78.5003141,52.30168 78.5512544,52.2387537 78.5902088,52.1878133 C78.6231703,52.1398694 78.6711141,52.0919255 78.7160615,52.0469781 C78.7490229,52.0080237 78.7849809,51.9720658 78.8239353,51.9391044 C78.9587774,51.8162482 79.120588,51.6903955 79.3033741,51.5735323 L79.3093671,51.5735323 C79.3722934,51.5285849 79.4442092,51.4896305 79.5131286,51.4506761 C80.0015568,51.1809918 80.5888694,50.9742338 81.1222451,50.9682408 L81.1222451,50.9652443 C81.1731854,49.9973772 80.9154871,48.9785698 80.9094941,48.9665838 L80.8315853,48.7058889 L81.0203643,48.499131 C81.6316488,47.8518886 81.9103226,47.1567023 82.0211928,46.5304353 C82.132063,45.9041684 82.0721332,45.3528138 82.0062104,44.9992277 C81.961263,44.7625047 81.9133191,44.6156766 81.9073261,44.5947012 L81.8713682,44.5018099 L81.8803577,44.3939362 C82.0451648,42.2754159 80.9124906,40.7502012 80.8945116,40.7322223 L80.4600202,40.3336887 C80.2562587,40.1898571 80.0554937,40.0580114 79.8876901,39.9621237 L78.5602439,39.204011 L80.0794656,39.0781584 C82.6234878,38.8714004 84.0048709,38.6736319 85.2544083,38.0503614 C85.8836717,37.7387262 86.4769772,37.3222137 87.1721635,36.7468872 C87.3459601,36.6030555 87.5257496,36.4502344 87.7145287,36.2854273 C88.2778693,35.7940025 88.9161222,35.2036935 89.6832243,34.4935248 L90.2885158,33.9361771 L90.8938073,33.3788295 C93.9232612,30.6070739 95.2027636,27.2989461 95.7481252,25.1025171 C95.826034,24.7878854 95.8889604,24.4972256 95.9369042,24.2365307 C94.6963563,25.3751979 92.7276607,26.525851 90.8218915,27.2480058 L90.8218915,27.2480058 Z" id="Fill-83" fill="#9C050D"></path>
                    </g>
                </g>
            </g>
        </g>
    </g>
</svg>