<?xml version="1.0" encoding="utf-8"?>
<!-- Generator: Adobe Illustrator 24.0.3, SVG Export Plug-In . SVG Version: 6.00 Build 0)  -->
<svg version="1.1" id="Capa_1" xmlns="http://www.w3.org/2000/svg" xmlns:xlink="http://www.w3.org/1999/xlink" x="0px" y="0px"
	 viewBox="0 0 512 512" style="enable-background:new 0 0 512 512;" xml:space="preserve">
<style type="text/css">
	.st0{fill:#FFFFFF;}
</style>
<g>
	<g>
		<g>
			<polygon class="st0" points="416,160 416,192 480,192 480,480 192,480 192,416 160,416 160,512 512,512 512,160 			"/>
			<rect x="320" y="0" class="st0" width="32" height="32"/>
			<rect x="64" y="0" class="st0" width="32" height="32"/>
			<rect x="128" y="0" class="st0" width="32" height="32"/>
			<rect x="64" y="320" class="st0" width="32" height="32"/>
			<rect x="192" y="0" class="st0" width="32" height="32"/>
			<rect x="256" y="0" class="st0" width="32" height="32"/>
			<rect y="0" class="st0" width="32" height="32"/>
			<rect y="192" class="st0" width="32" height="32"/>
			<rect y="256" class="st0" width="32" height="32"/>
			<rect y="128" class="st0" width="32" height="32"/>
			<rect y="64" class="st0" width="32" height="32"/>
			<rect x="320" y="64" class="st0" width="32" height="32"/>
			<rect y="320" class="st0" width="32" height="32"/>
			<path class="st0" d="M254.3,387.3l41.5,41.5l147.1-147.1l-42.6-42.6l-22.7-67.9l-78.1-78.1l-157.8,65
				c-24.5,10.1-36.2,38.1-26.1,62.7c0.3,0.8,0.7,1.6,1.1,2.4l-1.9,1.9c-25,25-25,65.5,0,90.5c0,0,0,0,0,0l60.3,60.3L254.3,387.3z
				 M128,270.4c0-8.5,3.4-16.6,9.4-22.6l56.6,56.6l22.6-22.6l-67.9-67.9c-6.3-6.2-6.3-16.4,0-22.6c1.5-1.5,3.3-2.7,5.2-3.5
				L292,130.9l57.6,57.6l22.6,67.9l25.3,25.3L295.7,383.5l-26.4-26.4l-79.2-11.3L137.3,293C131.3,287,128,278.9,128,270.4z"/>
		</g>
	</g>
</g>
</svg>
